{
.appVersion = "926";
DisplayStrings = (
"Highest\012/Acircumflextilde/Ecircumflextilde/Ocircumflextilde/Abrevehookabove/Acircumflexhookabove/Ecircumflexhookabove/Ocircumflexhookabove/Abrevetilde/Abreveacute/Abrevegrave/Acircumflexgrave/Ecircumflexgrave/Ocircumflexgrave/Acircumflexacute/Ecircumflexacute/Ocircumflexacute \U00C2/Acircumflexdotbelow \U00CA/Ecircumflexdotbelow \012Lowest\012/ocircumflexdotbelow/odotbelow/ohorndotbelow \U00FD/ydotbelow/ygrave/yhookabove/ytilde/Abrevedotbelow/Acircumflexdotbelow/Adotbelow/Ecircumflexdotbelow/Edotbelow/Idotbelow/Ocircumflexdotbelow/Odotbelow/Ohorndotbelow/Udotbelow/Uhorndotbelow/Ydotbelow",
"Highest\012/Acircumflexgrave \012Lowest\012/Acircumflexgrave",
"Highest\012/Acircumflextilde/Ecircumflextilde/Ocircumflextilde/Abrevehookabove/Acircumflexhookabove/Ecircumflexhookabove/Ocircumflexhookabove/Abrevetilde/Abreveacute/Abrevegrave/Acircumflexgrave/Ecircumflexgrave/Ocircumflexgrave/Acircumflexacute/Ecircumflexacute/Ocircumflexacute \U00C2/Acircumflexdotbelow \U00CA/Ecircumflexdotbelow \012Lowest\012/ocircumflexdotbelow/odotbelow/ohorndotbelow \U00FD/ydotbelow/ygrave/yhookabove/ytilde/Abrevedotbelow/Acircumflexdotbelow/Adotbelow/Ecircumflexdotbelow/Edotbelow/Idotbelow/Ocircumflexdotbelow/Odotbelow/Ohorndotbelow/Udotbelow/Uhorndotbelow/Ydotbelow",
"Highest\012/hookabovecomb/brevecomb_hookabovecomb/Abrevehookabove/Abreveacute/Acircumflextilde/Ecircumflextilde/Ocircumflextilde/Abrevetilde/Abrevegrave/Acircumflexhookabove/Ecircumflexhookabove/Ocircumflexhookabove/Acircumflexgrave/Ecircumflexgrave/Ocircumflexgrave/Acircumflexacute/Ecircumflexacute/Ocircumflexacute \U00C2/Acircumflexdotbelow \U00CA/Ecircumflexdotbelow \012Lowest\012/ocircumflexdotbelow/odotbelow/ohorndotbelow \U00FD/ydotbelow/ygrave/yhookabove/ytilde/Abrevedotbelow/Acircumflexdotbelow/Adotbelow/Ecircumflexdotbelow/Edotbelow/Idotbelow/Ocircumflexdotbelow/Odotbelow/Ohorndotbelow/Udotbelow/Uhorndotbelow/Ydotbelow",

glyphs = (
{
color = 4;
glyphname = A;
lastChange = "2016-08-14 17:38:38 +0000";
layers = (
{
anchors = (
{
name = top;
position = "{361, 740}";
}
);
background = {
paths = (
{
closed = 1;
nodes = (
"177 240 LINE",
"535 240 LINE",
"484 365 LINE",
"222 365 LINE"
);
},
{
closed = 1;
nodes = (
"61 111 LINE",
"209 111 LINE",
"362 606 LINE",
"517 111 LINE",
"671 111 LINE",
"466 740 LINE",
"270 740 LINE"
);
},
{
closed = 1;
nodes = (
"13 0 LINE",
"294 0 LINE",
"294 134 LINE",
"13 134 LINE"
);
},
{
closed = 1;
nodes = (
"436 0 LINE",
"717 0 LINE",
"717 134 LINE",
"436 134 LINE"
);
}
);
};
components = (
{
name = serif.bot;
transform = "{0.85, 0, 0, 1, -46, 0}";
},
{
name = serif.bot;
transform = "{0.85, 0, 0, 1, 377, 0}";
},
{
name = A.alt1;
}
);
layerId = UUID0;
width = 728;
},
{
anchors = (
{
name = top;
position = "{369, 740}";
}
);
background = {
paths = (
{
closed = 1;
nodes = (
"200 252 LINE",
"564 252 LINE",
"533 333 LINE",
"227 333 LINE"
);
},
{
closed = 1;
nodes = (
"53 37 LINE",
"153 37 LINE",
"367 664 LINE",
"585 39 LINE",
"690 39 LINE",
"444 740 LINE",
"300 740 LINE"
);
},
{
closed = 1;
nodes = (
"5 0 LINE",
"245 0 LINE",
"245 84 LINE",
"5 84 LINE"
);
},
{
closed = 1;
nodes = (
"508 0 LINE",
"748 0 LINE",
"748 84 LINE",
"508 84 LINE"
);
}
);
};
components = (
{
name = serif.bot;
transform = "{1, 0, 0, 1, -78, 0}";
},
{
name = serif.bot;
transform = "{1, 0, 0, 1, 425, 0}";
},
{
name = A.alt1;
transform = "{1, 0, 0, 1, 8, 0}";
}
);
layerId = UUID1;
width = 753;
}
);
unicode = 0041;
},
{
color = 4;
glyphname = Aacute;
lastChange = "2016-08-14 17:38:38 +0000";
layers = (
{
background = {
paths = (
{
closed = 1;
nodes = (
"177 240 LINE",
"535 240 LINE",
"484 365 LINE",
"222 365 LINE"
);
},
{
closed = 1;
nodes = (
"61 111 LINE",
"209 111 LINE",
"362 606 LINE",
"517 111 LINE",
"671 111 LINE",
"466 740 LINE",
"270 740 LINE"
);
},
{
closed = 1;
nodes = (
"13 0 LINE",
"294 0 LINE",
"294 134 LINE",
"13 134 LINE"
);
},
{
closed = 1;
nodes = (
"436 0 LINE",
"717 0 LINE",
"717 134 LINE",
"436 134 LINE"
);
},
{
closed = 1;
nodes = (
"311 809 LINE",
"426 809 LINE",
"575 949 LINE",
"575 961 LINE",
"416 961 LINE"
);
}
);
};
components = (
{
name = serif.bot;
transform = "{0.85, 0, 0, 1, -46, 0}";
},
{
name = serif.bot;
transform = "{0.85, 0, 0, 1, 377, 0}";
},
{
name = A.alt1;
},
{
name = acute;
transform = "{1, 0, 0, 1, 291, 234}";
}
);
layerId = UUID0;
width = 728;
},
{
background = {
paths = (
{
closed = 1;
nodes = (
"200 252 LINE",
"564 252 LINE",
"533 333 LINE",
"227 333 LINE"
);
},
{
closed = 1;
nodes = (
"53 37 LINE",
"153 37 LINE",
"367 664 LINE",
"585 39 LINE",
"690 39 LINE",
"444 740 LINE",
"300 740 LINE"
);
},
{
closed = 1;
nodes = (
"5 0 LINE",
"245 0 LINE",
"245 84 LINE",
"5 84 LINE"
);
},
{
closed = 1;
nodes = (
"508 0 LINE",
"748 0 LINE",
"748 84 LINE",
"508 84 LINE"
);
},
{
closed = 1;
nodes = (
"301 809 LINE",
"376 809 LINE",
"522 947 LINE",
"522 955 LINE",
"405 955 LINE"
);
}
);
};
components = (
{
name = serif.bot;
transform = "{1, 0, 0, 1, -78, 0}";
},
{
name = serif.bot;
transform = "{1, 0, 0, 1, 425, 0}";
},
{
name = A.alt1;
transform = "{1, 0, 0, 1, 8, 0}";
},
{
name = acute;
transform = "{1, 0, 0, 1, 260, 234}";
}
);
layerId = UUID1;
width = 753;
}
);
unicode = 00C1;
},
{
color = 4;
glyphname = Acircumflex;
lastChange = "2016-08-14 17:38:38 +0000";
layers = (
{
background = {
paths = (
{
closed = 1;
nodes = (
"177 240 LINE",
"535 240 LINE",
"484 365 LINE",
"222 365 LINE"
);
},
{
closed = 1;
nodes = (
"61 111 LINE",
"209 111 LINE",
"362 606 LINE",
"517 111 LINE",
"671 111 LINE",
"466 740 LINE",
"270 740 LINE"
);
},
{
closed = 1;
nodes = (
"13 0 LINE",
"294 0 LINE",
"294 134 LINE",
"13 134 LINE"
);
},
{
closed = 1;
nodes = (
"436 0 LINE",
"717 0 LINE",
"717 134 LINE",
"436 134 LINE"
);
},
{
closed = 1;
nodes = (
"187 808 LINE",
"320 967 LINE",
"437 967 LINE",
"571 808 LINE",
"451 808 LINE",
"379 883 LINE",
"308 808 LINE"
);
}
);
};
components = (
{
name = serif.bot;
transform = "{0.85, 0, 0, 1, -46, 0}";
},
{
name = serif.bot;
transform = "{0.85, 0, 0, 1, 377, 0}";
},
{
name = A.alt1;
},
{
name = circumflex;
transform = "{1, 0, 0, 1, 145, 234}";
}
);
layerId = UUID0;
width = 728;
},
{
background = {
paths = (
{
closed = 1;
nodes = (
"200 252 LINE",
"564 252 LINE",
"533 333 LINE",
"227 333 LINE"
);
},
{
closed = 1;
nodes = (
"53 37 LINE",
"153 37 LINE",
"367 664 LINE",
"585 39 LINE",
"690 39 LINE",
"444 740 LINE",
"300 740 LINE"
);
},
{
closed = 1;
nodes = (
"5 0 LINE",
"245 0 LINE",
"245 84 LINE",
"5 84 LINE"
);
},
{
closed = 1;
nodes = (
"508 0 LINE",
"748 0 LINE",
"748 84 LINE",
"508 84 LINE"
);
},
{
closed = 1;
nodes = (
"243 808 LINE",
"365 961 LINE",
"396 961 LINE",
"519 808 LINE",
"446 808 LINE",
"381 884 LINE",
"315 808 LINE"
);
}
);
};
components = (
{
name = serif.bot;
transform = "{1, 0, 0, 1, -78, 0}";
},
{
name = serif.bot;
transform = "{1, 0, 0, 1, 425, 0}";
},
{
name = A.alt1;
transform = "{1, 0, 0, 1, 8, 0}";
},
{
name = circumflex;
transform = "{1, 0, 0, 1, 137, 234}";
}
);
layerId = UUID1;
width = 753;
}
);
unicode = 00C2;
},
{
color = 4;
glyphname = Adieresis;
lastChange = "2016-10-12 15:33:50 +0000";
layers = (
{
background = {
paths = (
{
closed = 1;
nodes = (
"177 240 LINE",
"535 240 LINE",
"484 365 LINE",
"222 365 LINE"
);
},
{
closed = 1;
nodes = (
"61 111 LINE",
"209 111 LINE",
"362 606 LINE",
"517 111 LINE",
"671 111 LINE",
"466 740 LINE",
"270 740 LINE"
);
},
{
closed = 1;
nodes = (
"13 0 LINE",
"294 0 LINE",
"294 134 LINE",
"13 134 LINE"
);
},
{
closed = 1;
nodes = (
"436 0 LINE",
"717 0 LINE",
"717 134 LINE",
"436 134 LINE"
);
},
{
closed = 1;
nodes = (
"168 812 OFFCURVE",
"202 777 OFFCURVE",
"245 777 CURVE SMOOTH",
"286 777 OFFCURVE",
"321 812 OFFCURVE",
"321 854 CURVE SMOOTH",
"321 896 OFFCURVE",
"286 931 OFFCURVE",
"245 931 CURVE SMOOTH",
"202 931 OFFCURVE",
"168 896 OFFCURVE",
"168 854 CURVE SMOOTH"
);
},
{
closed = 1;
nodes = (
"402 812 OFFCURVE",
"436 777 OFFCURVE",
"479 777 CURVE SMOOTH",
"520 777 OFFCURVE",
"555 812 OFFCURVE",
"555 854 CURVE SMOOTH",
"555 896 OFFCURVE",
"520 931 OFFCURVE",
"479 931 CURVE SMOOTH",
"436 931 OFFCURVE",
"402 896 OFFCURVE",
"402 854 CURVE SMOOTH"
);
}
);
};
components = (
{
name = A;
},
{
name = dieresiscomb;
transform = "{1, 0, 0, 1, 57, 234}";
}
);
layerId = UUID0;
width = 728;
},
{
background = {
paths = (
{
closed = 1;
nodes = (
"200 252 LINE",
"564 252 LINE",
"533 333 LINE",
"227 333 LINE"
);
},
{
closed = 1;
nodes = (
"53 37 LINE",
"153 37 LINE",
"367 664 LINE",
"585 39 LINE",
"690 39 LINE",
"444 740 LINE",
"300 740 LINE"
);
},
{
closed = 1;
nodes = (
"5 0 LINE",
"245 0 LINE",
"245 84 LINE",
"5 84 LINE"
);
},
{
closed = 1;
nodes = (
"508 0 LINE",
"748 0 LINE",
"748 84 LINE",
"508 84 LINE"
);
},
{
closed = 1;
nodes = (
"187 863 OFFCURVE",
"216 833 OFFCURVE",
"250 833 CURVE SMOOTH",
"283 833 OFFCURVE",
"311 863 OFFCURVE",
"311 898 CURVE SMOOTH",
"311 932 OFFCURVE",
"283 961 OFFCURVE",
"250 961 CURVE SMOOTH",
"216 961 OFFCURVE",
"187 932 OFFCURVE",
"187 898 CURVE SMOOTH"
);
},
{
closed = 1;
nodes = (
"411 863 OFFCURVE",
"440 833 OFFCURVE",
"474 833 CURVE SMOOTH",
"507 833 OFFCURVE",
"535 863 OFFCURVE",
"535 898 CURVE SMOOTH",
"535 932 OFFCURVE",
"507 961 OFFCURVE",
"474 961 CURVE SMOOTH",
"440 961 OFFCURVE",
"411 932 OFFCURVE",
"411 898 CURVE SMOOTH"
);
}
);
};
components = (
{
name = A;
},
{
name = dieresiscomb;
transform = "{1, 0, 0, 1, 99, 234}";
}
);
layerId = UUID1;
width = 753;
}
);
unicode = 00C4;
},
{
color = 4;
glyphname = Agrave;
lastChange = "2016-08-14 17:38:38 +0000";
layers = (
{
background = {
paths = (
{
closed = 1;
nodes = (
"177 240 LINE",
"535 240 LINE",
"484 365 LINE",
"222 365 LINE"
);
},
{
closed = 1;
nodes = (
"61 111 LINE",
"209 111 LINE",
"362 606 LINE",
"517 111 LINE",
"671 111 LINE",
"466 740 LINE",
"270 740 LINE"
);
},
{
closed = 1;
nodes = (
"13 0 LINE",
"294 0 LINE",
"294 134 LINE",
"13 134 LINE"
);
},
{
closed = 1;
nodes = (
"436 0 LINE",
"717 0 LINE",
"717 134 LINE",
"436 134 LINE"
);
},
{
closed = 1;
nodes = (
"321 809 LINE",
"178 949 LINE",
"178 961 LINE",
"337 961 LINE",
"433 809 LINE"
);
}
);
};
components = (
{
name = serif.bot;
transform = "{0.85, 0, 0, 1, -46, 0}";
},
{
name = serif.bot;
transform = "{0.85, 0, 0, 1, 377, 0}";
},
{
name = A.alt1;
},
{
name = grave;
transform = "{1, 0, 0, 1, 96, 234}";
}
);
layerId = UUID0;
width = 728;
},
{
background = {
paths = (
{
closed = 1;
nodes = (
"200 252 LINE",
"564 252 LINE",
"533 333 LINE",
"227 333 LINE"
);
},
{
closed = 1;
nodes = (
"53 37 LINE",
"153 37 LINE",
"367 664 LINE",
"585 39 LINE",
"690 39 LINE",
"444 740 LINE",
"300 740 LINE"
);
},
{
closed = 1;
nodes = (
"5 0 LINE",
"245 0 LINE",
"245 84 LINE",
"5 84 LINE"
);
},
{
closed = 1;
nodes = (
"508 0 LINE",
"748 0 LINE",
"748 84 LINE",
"508 84 LINE"
);
},
{
closed = 1;
nodes = (
"334 809 LINE",
"194 947 LINE",
"194 955 LINE",
"315 955 LINE",
"405 809 LINE"
);
}
);
};
components = (
{
name = serif.bot;
transform = "{1, 0, 0, 1, -78, 0}";
},
{
name = serif.bot;
transform = "{1, 0, 0, 1, 425, 0}";
},
{
name = A.alt1;
transform = "{1, 0, 0, 1, 8, 0}";
},
{
name = grave;
transform = "{1, 0, 0, 1, 104, 234}";
}
);
layerId = UUID1;
width = 753;
}
);
unicode = 00C0;
},
{
color = 4;
glyphname = Aogonek;
lastChange = "2016-08-14 20:23:35 +0000";
layers = (
{
background = {
paths = (
{
closed = 1;
nodes = (
"717 0 LINE",
"717 134 LINE",
"453 134 LINE",
"453 -34 LINE",
"472 4 LINE",
"442 -3 OFFCURVE",
"408 -46 OFFCURVE",
"408 -101 CURVE SMOOTH",
"408 -178 OFFCURVE",
"470 -237 OFFCURVE",
"595 -237 CURVE SMOOTH",
"625 -237 OFFCURVE",
"668 -225 OFFCURVE",
"682 -217 CURVE",
"658 -126 LINE",
"645 -132 OFFCURVE",
"625 -137 OFFCURVE",
"608 -137 CURVE SMOOTH",
"569 -137 OFFCURVE",
"535 -118 OFFCURVE",
"535 -80 CURVE SMOOTH",
"535 -37 OFFCURVE",
"571 0 OFFCURVE",
"630 0 CURVE SMOOTH"
);
},
{
closed = 1;
nodes = (
"177 240 LINE",
"535 240 LINE",
"484 365 LINE",
"222 365 LINE"
);
},
{
closed = 1;
nodes = (
"61 111 LINE",
"209 111 LINE",
"362 606 LINE",
"517 111 LINE",
"671 111 LINE",
"466 740 LINE",
"270 740 LINE"
);
},
{
closed = 1;
nodes = (
"13 0 LINE",
"294 0 LINE",
"294 134 LINE",
"13 134 LINE"
);
}
);
};
components = (
{
name = A.alt1;
},
{
name = serif.bot;
transform = "{0.85, 0, 0, 1, -46, 0}";
}
);
layerId = UUID0;
paths = (
{
closed = 1;
nodes = (
"625 -237 OFFCURVE",
"668 -225 OFFCURVE",
"682 -217 CURVE",
"658 -126 LINE",
"645 -132 OFFCURVE",
"625 -137 OFFCURVE",
"608 -137 CURVE SMOOTH",
"569 -137 OFFCURVE",
"535 -118 OFFCURVE",
"535 -80 CURVE SMOOTH",
"535 -37 OFFCURVE",
"571 0 OFFCURVE",
"630 0 CURVE SMOOTH",
"717 0 LINE",
"717 134 LINE",
"453 134 LINE",
"453 -34 LINE",
"472 4 LINE",
"442 -3 OFFCURVE",
"408 -46 OFFCURVE",
"408 -101 CURVE SMOOTH",
"408 -178 OFFCURVE",
"470 -237 OFFCURVE",
"595 -237 CURVE SMOOTH"
);
}
);
width = 728;
},
{
background = {
paths = (
{
closed = 1;
nodes = (
"738 0 LINE",
"738 84 LINE",
"504 84 LINE",
"504 -37 LINE",
"545 16 LINE",
"489 7 OFFCURVE",
"446 -51 OFFCURVE",
"446 -110 CURVE SMOOTH",
"446 -172 OFFCURVE",
"494 -237 OFFCURVE",
"596 -237 CURVE SMOOTH",
"630 -237 OFFCURVE",
"666 -225 OFFCURVE",
"680 -217 CURVE",
"656 -143 LINE",
"643 -149 OFFCURVE",
"624 -153 OFFCURVE",
"599 -153 CURVE SMOOTH",
"560 -153 OFFCURVE",
"530 -127 OFFCURVE",
"530 -97 CURVE SMOOTH",
"530 -47 OFFCURVE",
"580 0 OFFCURVE",
"646 0 CURVE SMOOTH"
);
},
{
closed = 1;
nodes = (
"200 252 LINE",
"564 252 LINE",
"533 333 LINE",
"227 333 LINE"
);
},
{
closed = 1;
nodes = (
"53 37 LINE",
"153 37 LINE",
"367 664 LINE",
"585 39 LINE",
"690 39 LINE",
"444 740 LINE",
"300 740 LINE"
);
},
{
closed = 1;
nodes = (
"5 0 LINE",
"245 0 LINE",
"245 84 LINE",
"5 84 LINE"
);
}
);
};
components = (
{
name = A.alt1;
transform = "{1, 0, 0, 1, 8, 0}";
},
{
name = serif.bot;
transform = "{1, 0, 0, 1, -78, 0}";
}
);
layerId = UUID1;
paths = (
{
closed = 1;
nodes = (
"630 -237 OFFCURVE",
"666 -225 OFFCURVE",
"680 -217 CURVE",
"656 -143 LINE",
"643 -149 OFFCURVE",
"624 -153 OFFCURVE",
"599 -153 CURVE SMOOTH",
"560 -153 OFFCURVE",
"530 -127 OFFCURVE",
"530 -97 CURVE SMOOTH",
"530 -47 OFFCURVE",
"580 0 OFFCURVE",
"646 0 CURVE SMOOTH",
"738 0 LINE",
"738 84 LINE",
"504 84 LINE",
"504 -37 LINE",
"545 16 LINE",
"489 7 OFFCURVE",
"446 -51 OFFCURVE",
"446 -110 CURVE SMOOTH",
"446 -172 OFFCURVE",
"494 -237 OFFCURVE",
"596 -237 CURVE SMOOTH"
);
}
);
width = 753;
}
);
unicode = 0104;
},
{
color = 4;
glyphname = Aring;
lastChange = "2016-08-14 17:38:38 +0000";
layers = (
{
background = {
paths = (
{
closed = 1;
nodes = (
"177 240 LINE",
"535 240 LINE",
"484 365 LINE",
"222 365 LINE"
);
},
{
closed = 1;
nodes = (
"61 111 LINE",
"209 111 LINE",
"362 606 LINE",
"517 111 LINE",
"671 111 LINE",
"466 740 LINE",
"270 740 LINE"
);
},
{
closed = 1;
nodes = (
"13 0 LINE",
"294 0 LINE",
"294 134 LINE",
"13 134 LINE"
);
},
{
closed = 1;
nodes = (
"436 0 LINE",
"717 0 LINE",
"717 134 LINE",
"436 134 LINE"
);
},
{
closed = 1;
nodes = (
"302 868 OFFCURVE",
"329 894 OFFCURVE",
"363 894 CURVE SMOOTH",
"397 894 OFFCURVE",
"423 868 OFFCURVE",
"423 834 CURVE SMOOTH",
"423 800 OFFCURVE",
"397 773 OFFCURVE",
"363 773 CURVE SMOOTH",
"329 773 OFFCURVE",
"302 800 OFFCURVE",
"302 834 CURVE SMOOTH"
);
},
{
closed = 1;
nodes = (
"278 989 OFFCURVE",
"208 919 OFFCURVE",
"208 834 CURVE SMOOTH",
"208 749 OFFCURVE",
"278 679 OFFCURVE",
"363 679 CURVE SMOOTH",
"448 679 OFFCURVE",
"518 749 OFFCURVE",
"518 834 CURVE SMOOTH",
"518 919 OFFCURVE",
"448 989 OFFCURVE",
"363 989 CURVE SMOOTH"
);
}
);
};
components = (
{
name = serif.bot;
transform = "{0.85, 0, 0, 1, -46, 0}";
},
{
name = serif.bot;
transform = "{0.85, 0, 0, 1, 377, 0}";
},
{
name = A.alt1;
},
{
name = ring;
transform = "{1, 0, 0, 1, 67, 234}";
}
);
layerId = UUID0;
width = 728;
},
{
background = {
paths = (
{
closed = 1;
nodes = (
"200 252 LINE",
"564 252 LINE",
"533 333 LINE",
"227 333 LINE"
);
},
{
closed = 1;
nodes = (
"53 37 LINE",
"153 37 LINE",
"367 664 LINE",
"585 39 LINE",
"690 39 LINE",
"444 740 LINE",
"300 740 LINE"
);
},
{
closed = 1;
nodes = (
"5 0 LINE",
"245 0 LINE",
"245 84 LINE",
"5 84 LINE"
);
},
{
closed = 1;
nodes = (
"508 0 LINE",
"748 0 LINE",
"748 84 LINE",
"508 84 LINE"
);
},
{
closed = 1;
nodes = (
"320 853 OFFCURVE",
"344 877 OFFCURVE",
"371 877 CURVE SMOOTH",
"398 877 OFFCURVE",
"422 853 OFFCURVE",
"422 826 CURVE SMOOTH",
"422 799 OFFCURVE",
"398 775 OFFCURVE",
"371 775 CURVE SMOOTH",
"344 775 OFFCURVE",
"320 799 OFFCURVE",
"320 826 CURVE SMOOTH"
);
},
{
closed = 1;
nodes = (
"303 951 OFFCURVE",
"246 894 OFFCURVE",
"246 826 CURVE SMOOTH",
"246 758 OFFCURVE",
"303 701 OFFCURVE",
"371 701 CURVE SMOOTH",
"439 701 OFFCURVE",
"496 758 OFFCURVE",
"496 826 CURVE SMOOTH",
"496 894 OFFCURVE",
"439 951 OFFCURVE",
"371 951 CURVE SMOOTH"
);
}
);
};
components = (
{
name = serif.bot;
transform = "{1, 0, 0, 1, -78, 0}";
},
{
name = serif.bot;
transform = "{1, 0, 0, 1, 425, 0}";
},
{
name = A.alt1;
transform = "{1, 0, 0, 1, 8, 0}";
},
{
name = ring;
transform = "{1, 0, 0, 1, 73, 234}";
}
);
layerId = UUID1;
width = 753;
}
);
unicode = 00C5;
},
{
color = 4;
glyphname = Atilde;
lastChange = "2016-08-14 17:38:38 +0000";
layers = (
{
background = {
paths = (
{
closed = 1;
nodes = (
"177 240 LINE",
"535 240 LINE",
"484 365 LINE",
"222 365 LINE"
);
},
{
closed = 1;
nodes = (
"61 111 LINE",
"209 111 LINE",
"362 606 LINE",
"517 111 LINE",
"671 111 LINE",
"466 740 LINE",
"270 740 LINE"
);
},
{
closed = 1;
nodes = (
"13 0 LINE",
"294 0 LINE",
"294 134 LINE",
"13 134 LINE"
);
},
{
closed = 1;
nodes = (
"436 0 LINE",
"717 0 LINE",
"717 134 LINE",
"436 134 LINE"
);
},
{
closed = 1;
nodes = (
"234 956 OFFCURVE",
"158 921 OFFCURVE",
"140 851 CURVE",
"214 817 LINE",
"227 834 OFFCURVE",
"247 848 OFFCURVE",
"276 848 CURVE SMOOTH",
"328 848 OFFCURVE",
"366 805 OFFCURVE",
"434 805 CURVE SMOOTH",
"495 805 OFFCURVE",
"548 851 OFFCURVE",
"568 910 CURVE",
"491 944 LINE",
"474 919 OFFCURVE",
"453 911 OFFCURVE",
"426 911 CURVE SMOOTH",
"381 911 OFFCURVE",
"333 956 OFFCURVE",
"279 956 CURVE SMOOTH"
);
}
);
};
components = (
{
name = serif.bot;
transform = "{0.85, 0, 0, 1, -46, 0}";
},
{
name = serif.bot;
transform = "{0.85, 0, 0, 1, 377, 0}";
},
{
name = A.alt1;
},
{
name = tilde;
transform = "{1, 0, 0, 1, 135, 234}";
}
);
layerId = UUID0;
width = 728;
},
{
background = {
paths = (
{
closed = 1;
nodes = (
"200 252 LINE",
"564 252 LINE",
"533 333 LINE",
"227 333 LINE"
);
},
{
closed = 1;
nodes = (
"53 37 LINE",
"153 37 LINE",
"367 664 LINE",
"585 39 LINE",
"690 39 LINE",
"444 740 LINE",
"300 740 LINE"
);
},
{
closed = 1;
nodes = (
"5 0 LINE",
"245 0 LINE",
"245 84 LINE",
"5 84 LINE"
);
},
{
closed = 1;
nodes = (
"508 0 LINE",
"748 0 LINE",
"748 84 LINE",
"508 84 LINE"
);
},
{
closed = 1;
nodes = (
"261 925 OFFCURVE",
"213 906 OFFCURVE",
"196 845 CURVE",
"249 819 LINE",
"259 855 OFFCURVE",
"283 857 OFFCURVE",
"302 857 CURVE SMOOTH",
"345 857 OFFCURVE",
"370 809 OFFCURVE",
"442 809 CURVE SMOOTH",
"495 809 OFFCURVE",
"535 841 OFFCURVE",
"548 896 CURVE",
"490 913 LINE",
"484 886 OFFCURVE",
"464 874 OFFCURVE",
"446 874 CURVE SMOOTH",
"395 874 OFFCURVE",
"371 925 OFFCURVE",
"306 925 CURVE SMOOTH"
);
}
);
};
components = (
{
name = serif.bot;
transform = "{1, 0, 0, 1, -78, 0}";
},
{
name = serif.bot;
transform = "{1, 0, 0, 1, 425, 0}";
},
{
name = A.alt1;
transform = "{1, 0, 0, 1, 8, 0}";
},
{
name = tilde;
transform = "{1, 0, 0, 1, 153, 234}";
}
);
layerId = UUID1;
width = 753;
}
);
unicode = 00C3;
},
{
color = 4;
glyphname = AE;
lastChange = "2016-08-14 20:23:35 +0000";
layers = (
{
background = {
paths = (
{
closed = 1;
nodes = (
"127 0 LINE",
"503 627 LINE",
"444 593 LINE",
"833 593 LINE",
"833 488 LINE",
"992 488 LINE",
"992 740 LINE",
"431 740 LINE",
"0 63 LINE"
);
},
{
closed = 1;
nodes = (
"431 0 LINE",
"992 0 LINE",
"992 265 LINE",
"833 265 LINE",
"833 134 LINE",
"431 134 LINE"
);
},
{
closed = 1;
nodes = (
"652 61 LINE",
"652 665 LINE",
"490 665 LINE",
"490 61 LINE"
);
},
{
closed = 1;
nodes = (
"240 201 LINE",
"570 201 LINE",
"570 335 LINE",
"240 335 LINE"
);
},
{
closed = 1;
nodes = (
"530 310 LINE",
"794 310 LINE",
"794 444 LINE",
"530 444 LINE"
);
},
{
closed = 1;
nodes = (
"-17 0 LINE",
"264 0 LINE",
"264 134 LINE",
"-17 134 LINE"
);
}
);
};
components = (
{
name = uc.stem;
transform = "{1, 0, 0, 1, 348, 0}";
},
{
name = serif.bot;
transform = "{1, 0, 0, 1, 170, 201}";
},
{
name = serif.bot;
transform = "{0.8, 0, 0, 1, 474, 310}";
},
{
name = serif.bot;
transform = "{0.85, 0, 0, 1, -76, 0}";
}
);
layerId = UUID0;
paths = (
{
closed = 1;
nodes = (
"503 627 LINE",
"444 593 LINE",
"833 593 LINE",
"833 488 LINE",
"992 488 LINE",
"992 740 LINE",
"431 740 LINE",
"0 63 LINE",
"127 0 LINE"
);
},
{
closed = 1;
nodes = (
"992 0 LINE",
"992 265 LINE",
"833 265 LINE",
"833 134 LINE",
"431 134 LINE",
"431 0 LINE"
);
}
);
width = 1022;
},
{
background = {
paths = (
{
closed = 1;
nodes = (
"128 30 LINE",
"510 685 LINE",
"460 656 LINE",
"807 656 LINE",
"807 531 LINE",
"907 531 LINE",
"907 740 LINE",
"449 740 LINE",
"43 71 LINE"
);
},
{
closed = 1;
nodes = (
"423 0 LINE",
"907 0 LINE",
"907 209 LINE",
"807 209 LINE",
"807 84 LINE",
"423 84 LINE"
);
},
{
closed = 1;
nodes = (
"580 51 LINE",
"580 685 LINE",
"484 685 LINE",
"484 51 LINE"
);
},
{
closed = 1;
nodes = (
"220 208 LINE",
"527 208 LINE",
"527 292 LINE",
"220 292 LINE"
);
},
{
closed = 1;
nodes = (
"525 337 LINE",
"765 337 LINE",
"765 421 LINE",
"525 421 LINE"
);
},
{
closed = 1;
nodes = (
"-1 0 LINE",
"239 0 LINE",
"239 84 LINE",
"-1 84 LINE"
);
}
);
};
components = (
{
name = uc.stem;
transform = "{1, 0, 0, 1, 337, 0}";
},
{
name = serif.bot;
transform = "{1.28, 0, 0, 1, 114, 208}";
},
{
name = serif.bot;
transform = "{1, 0, 0, 1, 442, 337}";
},
{
name = serif.bot;
transform = "{1, 0, 0, 1, -84, 0}";
}
);
layerId = UUID1;
paths = (
{
closed = 1;
nodes = (
"510 685 LINE",
"460 656 LINE",
"807 656 LINE",
"807 531 LINE",
"907 531 LINE",
"907 740 LINE",
"449 740 LINE",
"43 71 LINE",
"128 30 LINE"
);
},
{
closed = 1;
nodes = (
"907 0 LINE",
"907 209 LINE",
"807 209 LINE",
"807 84 LINE",
"423 84 LINE",
"423 0 LINE"
);
}
);
width = 935;
}
);
unicode = 00C6;
},
{
color = 4;
glyphname = B;
lastChange = "2016-08-14 20:23:35 +0000";
layers = (
{
anchors = (
{
name = top;
position = "{373, 700}";
}
);
background = {
paths = (
{
closed = 1;
nodes = (
"198 306 LINE",
"416 306 LINE SMOOTH",
"453 306 OFFCURVE",
"484 269 OFFCURVE",
"484 221 CURVE SMOOTH",
"484 176 OFFCURVE",
"454 134 OFFCURVE",
"416 134 CURVE SMOOTH",
"55 134 LINE",
"55 0 LINE",
"427 0 LINE SMOOTH",
"553 0 OFFCURVE",
"651 95 OFFCURVE",
"651 229 CURVE SMOOTH",
"651 349 OFFCURVE",
"549 403 OFFCURVE",
"415 418 CURVE",
"408 332 LINE",
"552 337 OFFCURVE",
"644 383 OFFCURVE",
"644 516 CURVE SMOOTH",
"644 638 OFFCURVE",
"550 740 OFFCURVE",
"416 740 CURVE SMOOTH",
"55 741 LINE",
"55 606 LINE",
"409 606 LINE SMOOTH",
"446 606 OFFCURVE",
"476 561 OFFCURVE",
"476 521 CURVE SMOOTH",
"476 480 OFFCURVE",
"446 440 OFFCURVE",
"409 440 CURVE SMOOTH",
"198 440 LINE"
);
},
{
closed = 1;
nodes = (
"293 61 LINE",
"293 665 LINE",
"131 665 LINE",
"131 61 LINE"
);
}
);
};
components = (
{
name = uc.stem;
transform = "{1, 0, 0, 1, -11, 0}";
}
);
layerId = UUID0;
paths = (
{
closed = 1;
nodes = (
"427 0 LINE SMOOTH",
"553 0 OFFCURVE",
"651 95 OFFCURVE",
"651 229 CURVE SMOOTH",
"651 349 OFFCURVE",
"549 403 OFFCURVE",
"415 418 CURVE",
"408 332 LINE",
"552 337 OFFCURVE",
"644 383 OFFCURVE",
"644 516 CURVE SMOOTH",
"644 638 OFFCURVE",
"550 740 OFFCURVE",
"416 740 CURVE SMOOTH",
"55 741 LINE",
"55 606 LINE",
"409 606 LINE SMOOTH",
"446 606 OFFCURVE",
"476 561 OFFCURVE",
"476 521 CURVE SMOOTH",
"476 480 OFFCURVE",
"446 440 OFFCURVE",
"409 440 CURVE SMOOTH",
"198 440 LINE",
"198 306 LINE",
"416 306 LINE SMOOTH",
"453 306 OFFCURVE",
"484 269 OFFCURVE",
"484 221 CURVE SMOOTH",
"484 176 OFFCURVE",
"454 134 OFFCURVE",
"416 134 CURVE SMOOTH",
"55 134 LINE",
"55 0 LINE"
);
}
);
width = 677;
},
{
anchors = (
{
name = top;
position = "{335, 700}";
}
);
background = {
paths = (
{
closed = 1;
nodes = (
"187 329 LINE",
"408 329 LINE SMOOTH",
"469 329 OFFCURVE",
"519 275 OFFCURVE",
"519 218 CURVE SMOOTH",
"519 152 OFFCURVE",
"470 84 OFFCURVE",
"408 84 CURVE SMOOTH",
"70 84 LINE",
"70 0 LINE",
"407 0 LINE SMOOTH",
"527 0 OFFCURVE",
"623 97 OFFCURVE",
"623 220 CURVE SMOOTH",
"623 317 OFFCURVE",
"526 403 OFFCURVE",
"401 403 CURVE",
"385 347 LINE",
"529 347 OFFCURVE",
"619 426 OFFCURVE",
"619 524 CURVE SMOOTH",
"619 645 OFFCURVE",
"523 740 OFFCURVE",
"403 740 CURVE SMOOTH",
"70 740 LINE",
"70 656 LINE",
"404 656 LINE SMOOTH",
"465 656 OFFCURVE",
"515 591 OFFCURVE",
"515 527 CURVE SMOOTH",
"515 468 OFFCURVE",
"466 414 OFFCURVE",
"404 414 CURVE SMOOTH",
"190 414 LINE"
);
},
{
closed = 1;
nodes = (
"235 51 LINE",
"235 685 LINE",
"139 685 LINE",
"139 51 LINE"
);
}
);
};
components = (
{
name = uc.stem;
transform = "{1, 0, 0, 1, -21, 0}";
}
);
layerId = UUID1;
paths = (
{
closed = 1;
nodes = (
"393 0 LINE SMOOTH",
"513 0 OFFCURVE",
"609 97 OFFCURVE",
"609 220 CURVE SMOOTH",
"609 317 OFFCURVE",
"512 403 OFFCURVE",
"387 403 CURVE",
"371 347 LINE",
"515 347 OFFCURVE",
"605 426 OFFCURVE",
"605 524 CURVE SMOOTH",
"605 645 OFFCURVE",
"509 740 OFFCURVE",
"389 740 CURVE SMOOTH",
"70 740 LINE",
"70 656 LINE",
"390 656 LINE SMOOTH",
"451 656 OFFCURVE",
"501 591 OFFCURVE",
"501 527 CURVE SMOOTH",
"501 468 OFFCURVE",
"452 414 OFFCURVE",
"390 414 CURVE SMOOTH",
"190 414 LINE",
"187 329 LINE",
"394 329 LINE SMOOTH",
"455 329 OFFCURVE",
"505 275 OFFCURVE",
"505 218 CURVE SMOOTH",
"505 152 OFFCURVE",
"456 84 OFFCURVE",
"394 84 CURVE SMOOTH",
"70 84 LINE",
"70 0 LINE"
);
}
);
width = 646;
}
);
unicode = 0042;
},
{
color = 4;
glyphname = C;
lastChange = "2016-08-14 20:23:35 +0000";
layers = (
{
anchors = (
{
name = bottom;
position = "{387, 0}";
},
{
name = top;
position = "{387, 740}";
}
);
background = {
paths = (
{
closed = 1;
nodes = (
"691 515 LINE",
"582 680 LINE",
"543 712 OFFCURVE",
"504 754 OFFCURVE",
"390 754 CURVE SMOOTH",
"190 754 OFFCURVE",
"32 583 OFFCURVE",
"32 371 CURVE SMOOTH",
"32 158 OFFCURVE",
"190 -13 OFFCURVE",
"390 -13 CURVE SMOOTH",
"549 -13 OFFCURVE",
"669 83 OFFCURVE",
"709 210 CURVE",
"552 254 LINE",
"528 196 OFFCURVE",
"468 141 OFFCURVE",
"390 141 CURVE SMOOTH",
"279 141 OFFCURVE",
"198 245 OFFCURVE",
"198 371 CURVE SMOOTH",
"198 496 OFFCURVE",
"281 601 OFFCURVE",
"390 601 CURVE SMOOTH",
"458 601 OFFCURVE",
"513 561 OFFCURVE",
"540 515 CURVE"
);
},
{
closed = 1;
nodes = (
"691 515 LINE",
"691 680 LINE",
"564 680 LINE",
"563 538 LINE"
);
}
);
};
hints = (
{
horizontal = 1;
origin = "{0, 26}";
target = "{0, 6}";
},
{
horizontal = 1;
origin = "{0, 12}";
target = "{0, 20}";
}
);
layerId = UUID0;
paths = (
{
closed = 1;
nodes = (
"549 -13 OFFCURVE",
"669 83 OFFCURVE",
"709 210 CURVE",
"552 254 LINE",
"528 196 OFFCURVE",
"468 141 OFFCURVE",
"390 141 CURVE SMOOTH",
"279 141 OFFCURVE",
"198 245 OFFCURVE",
"198 371 CURVE SMOOTH",
"198 496 OFFCURVE",
"281 601 OFFCURVE",
"390 601 CURVE SMOOTH",
"458 601 OFFCURVE",
"513 561 OFFCURVE",
"540 515 CURVE",
"691 515 LINE",
"605 680 LINE",
"551 723 OFFCURVE",
"468 754 OFFCURVE",
"390 754 CURVE SMOOTH",
"190 754 OFFCURVE",
"32 583 OFFCURVE",
"32 371 CURVE SMOOTH",
"32 158 OFFCURVE",
"190 -13 OFFCURVE",
"390 -13 CURVE SMOOTH"
);
},
{
closed = 1;
nodes = (
"691 680 LINE",
"605 680 LINE",
"563 538 LINE",
"691 515 LINE"
);
}
);
width = 759;
},
{
anchors = (
{
name = bottom;
position = "{382, 0}";
},
{
name = top;
position = "{382, 740}";
}
);
background = {
paths = (
{
closed = 1;
nodes = (
"697 545 LINE",
"657 625 LINE",
"588 704 OFFCURVE",
"512 754 OFFCURVE",
"385 754 CURVE SMOOTH",
"178 754 OFFCURVE",
"32 579 OFFCURVE",
"32 371 CURVE SMOOTH",
"32 164 OFFCURVE",
"177 -12 OFFCURVE",
"385 -12 CURVE SMOOTH",
"537 -12 OFFCURVE",
"642 74 OFFCURVE",
"702 201 CURVE",
"614 241 LINE",
"563 134 OFFCURVE",
"497 80 OFFCURVE",
"385 80 CURVE SMOOTH",
"235 80 OFFCURVE",
"131 215 OFFCURVE",
"131 371 CURVE SMOOTH",
"131 527 OFFCURVE",
"234 663 OFFCURVE",
"385 663 CURVE SMOOTH",
"486 663 OFFCURVE",
"549 619 OFFCURVE",
"592 545 CURVE"
);
},
{
closed = 1;
nodes = (
"697 545 LINE",
"697 632 LINE",
"592 632 LINE",
"598 561 LINE"
);
}
);
};
hints = (
{
horizontal = 1;
origin = "{0, 26}";
target = "{0, 6}";
},
{
horizontal = 1;
origin = "{0, 12}";
target = "{0, 20}";
}
);
layerId = UUID1;
paths = (
{
closed = 1;
nodes = (
"537 -12 OFFCURVE",
"642 74 OFFCURVE",
"702 201 CURVE",
"614 241 LINE",
"563 134 OFFCURVE",
"497 80 OFFCURVE",
"385 80 CURVE SMOOTH",
"235 80 OFFCURVE",
"131 215 OFFCURVE",
"131 371 CURVE SMOOTH",
"131 527 OFFCURVE",
"234 663 OFFCURVE",
"385 663 CURVE SMOOTH",
"486 663 OFFCURVE",
"549 619 OFFCURVE",
"592 545 CURVE",
"697 545 LINE",
"657 625 LINE",
"588 704 OFFCURVE",
"512 754 OFFCURVE",
"385 754 CURVE SMOOTH",
"178 754 OFFCURVE",
"32 579 OFFCURVE",
"32 371 CURVE SMOOTH",
"32 164 OFFCURVE",
"177 -12 OFFCURVE",
"385 -12 CURVE SMOOTH"
);
},
{
closed = 1;
nodes = (
"697 632 LINE",
"592 632 LINE",
"598 561 LINE",
"697 545 LINE"
);
}
);
width = 734;
}
);
unicode = 0043;
},
{
color = 4;
glyphname = Ccedilla;
lastChange = "2016-08-14 17:38:38 +0000";
layers = (
{
background = {
paths = (
{
closed = 1;
nodes = (
"691 515 LINE",
"582 680 LINE",
"543 712 OFFCURVE",
"504 754 OFFCURVE",
"390 754 CURVE SMOOTH",
"190 754 OFFCURVE",
"32 583 OFFCURVE",
"32 371 CURVE SMOOTH",
"32 158 OFFCURVE",
"190 -13 OFFCURVE",
"390 -13 CURVE SMOOTH",
"549 -13 OFFCURVE",
"669 83 OFFCURVE",
"709 210 CURVE",
"552 254 LINE",
"528 196 OFFCURVE",
"468 141 OFFCURVE",
"390 141 CURVE SMOOTH",
"279 141 OFFCURVE",
"198 245 OFFCURVE",
"198 371 CURVE SMOOTH",
"198 496 OFFCURVE",
"281 601 OFFCURVE",
"390 601 CURVE SMOOTH",
"458 601 OFFCURVE",
"513 561 OFFCURVE",
"540 515 CURVE"
);
},
{
closed = 1;
nodes = (
"691 515 LINE",
"691 680 LINE",
"564 680 LINE",
"563 538 LINE"
);
},
{
closed = 1;
nodes = (
"244 -222 LINE",
"348 -220 OFFCURVE",
"431 -171 OFFCURVE",
"461 -68 CURVE",
"342 -26 LINE",
"329 -100 OFFCURVE",
"285 -139 OFFCURVE",
"232 -143 CURVE"
);
}
);
};
components = (
{
name = C;
},
{
name = cedilla;
transform = "{1, 0, 0, 1, 143, 0}";
}
);
layerId = UUID0;
width = 759;
},
{
background = {
paths = (
{
closed = 1;
nodes = (
"697 545 LINE",
"657 625 LINE",
"588 704 OFFCURVE",
"512 754 OFFCURVE",
"385 754 CURVE SMOOTH",
"178 754 OFFCURVE",
"32 579 OFFCURVE",
"32 371 CURVE SMOOTH",
"32 164 OFFCURVE",
"177 -12 OFFCURVE",
"385 -12 CURVE SMOOTH",
"537 -12 OFFCURVE",
"642 74 OFFCURVE",
"702 201 CURVE",
"614 241 LINE",
"563 134 OFFCURVE",
"497 80 OFFCURVE",
"385 80 CURVE SMOOTH",
"235 80 OFFCURVE",
"131 215 OFFCURVE",
"131 371 CURVE SMOOTH",
"131 527 OFFCURVE",
"234 663 OFFCURVE",
"385 663 CURVE SMOOTH",
"486 663 OFFCURVE",
"549 619 OFFCURVE",
"592 545 CURVE"
);
},
{
closed = 1;
nodes = (
"697 545 LINE",
"697 632 LINE",
"592 632 LINE",
"598 561 LINE"
);
},
{
closed = 1;
nodes = (
"254 -211 LINE",
"348 -211 OFFCURVE",
"426 -155 OFFCURVE",
"450 -60 CURVE",
"377 -38 LINE",
"366 -98 OFFCURVE",
"320 -146 OFFCURVE",
"249 -148 CURVE"
);
}
);
};
components = (
{
name = C;
},
{
name = cedilla;
transform = "{1, 0, 0, 1, 160, 0}";
}
);
layerId = UUID1;
width = 734;
}
);
unicode = 00C7;
},
{
color = 4;
glyphname = D;
lastChange = "2016-08-14 17:38:38 +0000";
layers = (
{
anchors = (
{
name = top;
position = "{348, 700}";
}
);
background = {
paths = (
{
closed = 1;
nodes = (
"294 61 LINE",
"294 665 LINE",
"132 665 LINE",
"132 61 LINE"
);
},
{
closed = 1;
nodes = (
"55 606 LINE",
"355 606 LINE SMOOTH",
"461 606 OFFCURVE",
"547 503 OFFCURVE",
"547 371 CURVE SMOOTH",
"547 239 OFFCURVE",
"461 134 OFFCURVE",
"355 134 CURVE SMOOTH",
"55 134 LINE",
"55 0 LINE",
"356 0 LINE SMOOTH",
"559 0 OFFCURVE",
"719 166 OFFCURVE",
"719 371 CURVE SMOOTH",
"719 576 OFFCURVE",
"559 740 OFFCURVE",
"356 740 CURVE SMOOTH",
"55 740 LINE"
);
}
);
};
components = (
{
name = uc.stem;
transform = "{1, 0, 0, 1, -43, 0}";
},
{
name = D.alt1;
}
);
layerId = UUID0;
width = 717;
},
{
anchors = (
{
name = top;
position = "{350, 700}";
}
);
background = {
paths = (
{
closed = 1;
nodes = (
"242 51 LINE",
"242 685 LINE",
"146 685 LINE",
"146 51 LINE"
);
},
{
closed = 1;
nodes = (
"70 656 LINE",
"357 656 LINE SMOOTH",
"494 656 OFFCURVE",
"605 531 OFFCURVE",
"605 372 CURVE SMOOTH",
"605 211 OFFCURVE",
"494 84 OFFCURVE",
"357 84 CURVE SMOOTH",
"70 84 LINE",
"70 0 LINE",
"351 0 LINE SMOOTH",
"554 0 OFFCURVE",
"707 166 OFFCURVE",
"707 372 CURVE SMOOTH",
"707 576 OFFCURVE",
"554 740 OFFCURVE",
"351 740 CURVE SMOOTH",
"70 740 LINE"
);
}
);
};
components = (
{
name = uc.stem;
transform = "{1, 0, 0, 1, -1, 0}";
},
{
name = D.alt1;
transform = "{1, 0, 0, 1, 2, 0}";
}
);
layerId = UUID1;
width = 742;
}
);
unicode = 0044;
},
{
color = 4;
glyphname = Eth;
lastChange = "2016-08-14 17:38:38 +0000";
layers = (
{
anchors = (
{
name = top;
position = "{348, 700}";
}
);
background = {
paths = (
{
closed = 1;
nodes = (
"261 61 LINE",
"261 665 LINE",
"99 665 LINE",
"99 61 LINE"
);
},
{
closed = 1;
nodes = (
"40 606 LINE",
"323 606 LINE SMOOTH",
"429 606 OFFCURVE",
"515 503 OFFCURVE",
"515 371 CURVE SMOOTH",
"515 239 OFFCURVE",
"429 134 OFFCURVE",
"323 134 CURVE SMOOTH",
"40 134 LINE",
"40 0 LINE",
"324 0 LINE SMOOTH",
"527 0 OFFCURVE",
"687 166 OFFCURVE",
"687 371 CURVE SMOOTH",
"687 576 OFFCURVE",
"527 740 OFFCURVE",
"324 740 CURVE SMOOTH",
"40 740 LINE"
);
},
{
closed = 1;
nodes = (
"338 303 LINE",
"338 437 LINE",
"32 437 LINE",
"32 303 LINE"
);
}
);
};
components = (
{
name = uc.stem;
transform = "{1, 0, 0, 1, -43, 0}";
},
{
name = D.alt1;
},
{
name = hyphen;
transform = "{1, 0, 0, 1, 2, 84}";
}
);
layerId = UUID0;
width = 717;
},
{
anchors = (
{
name = top;
position = "{348, 700}";
}
);
background = {
paths = (
{
closed = 1;
nodes = (
"240 51 LINE",
"240 685 LINE",
"144 685 LINE",
"144 51 LINE"
);
},
{
closed = 1;
nodes = (
"68 656 LINE",
"355 656 LINE SMOOTH",
"492 656 OFFCURVE",
"603 531 OFFCURVE",
"603 372 CURVE SMOOTH",
"603 211 OFFCURVE",
"492 84 OFFCURVE",
"355 84 CURVE SMOOTH",
"68 84 LINE",
"68 0 LINE",
"349 0 LINE SMOOTH",
"552 0 OFFCURVE",
"705 166 OFFCURVE",
"705 372 CURVE SMOOTH",
"705 576 OFFCURVE",
"552 740 OFFCURVE",
"349 740 CURVE SMOOTH",
"68 740 LINE"
);
},
{
closed = 1;
nodes = (
"331 330 LINE",
"331 414 LINE",
"62 414 LINE",
"62 330 LINE"
);
}
);
};
components = (
{
name = uc.stem;
transform = "{1, 0, 0, 1, -3, 0}";
},
{
name = D.alt1;
},
{
name = hyphen;
transform = "{1, 0, 0, 1, 16, 88}";
}
);
layerId = UUID1;
width = 740;
}
);
unicode = 00D0;
},
{
color = 4;
glyphname = E;
lastChange = "2016-08-14 17:38:38 +0000";
layers = (
{
anchors = (
{
name = top;
position = "{362, 740}";
}
);
background = {
paths = (
{
closed = 1;
nodes = (
"294 61 LINE",
"294 665 LINE",
"132 665 LINE",
"132 61 LINE"
);
},
{
closed = 1;
nodes = (
"55 606 LINE",
"485 606 LINE",
"485 501 LINE",
"644 501 LINE",
"644 740 LINE",
"55 740 LINE"
);
},
{
closed = 1;
nodes = (
"55 0 LINE",
"644 0 LINE",
"644 265 LINE",
"485 265 LINE",
"485 134 LINE",
"55 134 LINE"
);
},
{
closed = 1;
nodes = (
"181 309 LINE",
"441 309 LINE",
"441 443 LINE",
"181 443 LINE"
);
}
);
};
components = (
{
name = uc.stem;
transform = "{1, 0, 0, 1, -9, 0}";
},
{
name = E.alt1;
}
);
layerId = UUID0;
width = 674;
},
{
anchors = (
{
name = top;
position = "{354, 740}";
}
);
background = {
paths = (
{
closed = 1;
nodes = (
"236 51 LINE",
"236 685 LINE",
"140 685 LINE",
"140 51 LINE"
);
},
{
closed = 1;
nodes = (
"70 656 LINE",
"500 656 LINE",
"500 531 LINE",
"600 531 LINE",
"600 740 LINE",
"70 740 LINE"
);
},
{
closed = 1;
nodes = (
"70 0 LINE",
"600 0 LINE",
"600 209 LINE",
"500 209 LINE",
"500 84 LINE",
"70 84 LINE"
);
},
{
closed = 1;
nodes = (
"194 335 LINE",
"458 335 LINE",
"458 419 LINE",
"194 419 LINE"
);
}
);
};
components = (
{
name = uc.stem;
transform = "{1, 0, 0, 1, -7, 0}";
},
{
name = E.alt1;
transform = "{1, 0, 0, 1, 10, 0}";
}
);
layerId = UUID1;
width = 628;
}
);
unicode = 0045;
},
{
color = 4;
glyphname = Eacute;
lastChange = "2016-08-14 17:38:38 +0000";
layers = (
{
background = {
paths = (
{
closed = 1;
nodes = (
"294 61 LINE",
"294 665 LINE",
"132 665 LINE",
"132 61 LINE"
);
},
{
closed = 1;
nodes = (
"55 606 LINE",
"485 606 LINE",
"485 501 LINE",
"644 501 LINE",
"644 740 LINE",
"55 740 LINE"
);
},
{
closed = 1;
nodes = (
"55 0 LINE",
"644 0 LINE",
"644 265 LINE",
"485 265 LINE",
"485 134 LINE",
"55 134 LINE"
);
},
{
closed = 1;
nodes = (
"181 309 LINE",
"441 309 LINE",
"441 443 LINE",
"181 443 LINE"
);
},
{
closed = 1;
nodes = (
"312 809 LINE",
"427 809 LINE",
"576 949 LINE",
"576 961 LINE",
"417 961 LINE"
);
}
);
};
components = (
{
name = uc.stem;
transform = "{1, 0, 0, 1, -9, 0}";
},
{
name = E.alt1;
},
{
name = acute;
transform = "{1, 0, 0, 1, 292, 234}";
}
);
layerId = UUID0;
width = 674;
},
{
background = {
paths = (
{
closed = 1;
nodes = (
"236 51 LINE",
"236 685 LINE",
"140 685 LINE",
"140 51 LINE"
);
},
{
closed = 1;
nodes = (
"70 656 LINE",
"500 656 LINE",
"500 531 LINE",
"600 531 LINE",
"600 740 LINE",
"70 740 LINE"
);
},
{
closed = 1;
nodes = (
"70 0 LINE",
"600 0 LINE",
"600 209 LINE",
"500 209 LINE",
"500 84 LINE",
"70 84 LINE"
);
},
{
closed = 1;
nodes = (
"194 335 LINE",
"458 335 LINE",
"458 419 LINE",
"194 419 LINE"
);
},
{
closed = 1;
nodes = (
"286 809 LINE",
"361 809 LINE",
"507 947 LINE",
"507 955 LINE",
"390 955 LINE"
);
}
);
};
components = (
{
name = uc.stem;
transform = "{1, 0, 0, 1, -16, 0}";
},
{
name = E.alt1;
},
{
name = acute;
transform = "{1, 0, 0, 1, 235, 234}";
}
);
layerId = UUID1;
width = 618;
}
);
unicode = 00C9;
},
{
color = 4;
glyphname = Ecircumflex;
lastChange = "2016-08-14 17:38:38 +0000";
layers = (
{
background = {
paths = (
{
closed = 1;
nodes = (
"294 61 LINE",
"294 665 LINE",
"132 665 LINE",
"132 61 LINE"
);
},
{
closed = 1;
nodes = (
"55 606 LINE",
"485 606 LINE",
"485 501 LINE",
"644 501 LINE",
"644 740 LINE",
"55 740 LINE"
);
},
{
closed = 1;
nodes = (
"55 0 LINE",
"644 0 LINE",
"644 265 LINE",
"485 265 LINE",
"485 134 LINE",
"55 134 LINE"
);
},
{
closed = 1;
nodes = (
"181 309 LINE",
"441 309 LINE",
"441 443 LINE",
"181 443 LINE"
);
},
{
closed = 1;
nodes = (
"188 808 LINE",
"321 967 LINE",
"438 967 LINE",
"572 808 LINE",
"452 808 LINE",
"380 883 LINE",
"309 808 LINE"
);
}
);
};
components = (
{
name = uc.stem;
transform = "{1, 0, 0, 1, -9, 0}";
},
{
name = E.alt1;
},
{
name = circumflex;
transform = "{1, 0, 0, 1, 146, 234}";
}
);
layerId = UUID0;
width = 674;
},
{
background = {
paths = (
{
closed = 1;
nodes = (
"236 51 LINE",
"236 685 LINE",
"140 685 LINE",
"140 51 LINE"
);
},
{
closed = 1;
nodes = (
"70 656 LINE",
"500 656 LINE",
"500 531 LINE",
"600 531 LINE",
"600 740 LINE",
"70 740 LINE"
);
},
{
closed = 1;
nodes = (
"70 0 LINE",
"600 0 LINE",
"600 209 LINE",
"500 209 LINE",
"500 84 LINE",
"70 84 LINE"
);
},
{
closed = 1;
nodes = (
"194 335 LINE",
"458 335 LINE",
"458 419 LINE",
"194 419 LINE"
);
},
{
closed = 1;
nodes = (
"228 808 LINE",
"350 961 LINE",
"381 961 LINE",
"504 808 LINE",
"431 808 LINE",
"366 884 LINE",
"300 808 LINE"
);
}
);
};
components = (
{
name = uc.stem;
transform = "{1, 0, 0, 1, -16, 0}";
},
{
name = E.alt1;
},
{
name = circumflex;
transform = "{1, 0, 0, 1, 112, 234}";
}
);
layerId = UUID1;
width = 618;
}
);
unicode = 00CA;
},
{
color = 4;
glyphname = Edieresis;
lastChange = "2016-10-12 15:33:50 +0000";
layers = (
{
background = {
paths = (
{
closed = 1;
nodes = (
"294 61 LINE",
"294 665 LINE",
"132 665 LINE",
"132 61 LINE"
);
},
{
closed = 1;
nodes = (
"55 606 LINE",
"485 606 LINE",
"485 501 LINE",
"644 501 LINE",
"644 740 LINE",
"55 740 LINE"
);
},
{
closed = 1;
nodes = (
"55 0 LINE",
"644 0 LINE",
"644 265 LINE",
"485 265 LINE",
"485 134 LINE",
"55 134 LINE"
);
},
{
closed = 1;
nodes = (
"181 309 LINE",
"441 309 LINE",
"441 443 LINE",
"181 443 LINE"
);
},
{
closed = 1;
nodes = (
"192 812 OFFCURVE",
"226 777 OFFCURVE",
"269 777 CURVE SMOOTH",
"310 777 OFFCURVE",
"345 812 OFFCURVE",
"345 854 CURVE SMOOTH",
"345 896 OFFCURVE",
"310 931 OFFCURVE",
"269 931 CURVE SMOOTH",
"226 931 OFFCURVE",
"192 896 OFFCURVE",
"192 854 CURVE SMOOTH"
);
},
{
closed = 1;
nodes = (
"426 812 OFFCURVE",
"460 777 OFFCURVE",
"503 777 CURVE SMOOTH",
"544 777 OFFCURVE",
"579 812 OFFCURVE",
"579 854 CURVE SMOOTH",
"579 896 OFFCURVE",
"544 931 OFFCURVE",
"503 931 CURVE SMOOTH",
"460 931 OFFCURVE",
"426 896 OFFCURVE",
"426 854 CURVE SMOOTH"
);
}
);
};
components = (
{
name = E;
},
{
name = dieresiscomb;
transform = "{1, 0, 0, 1, 58, 234}";
}
);
layerId = UUID0;
width = 674;
},
{
background = {
paths = (
{
closed = 1;
nodes = (
"236 51 LINE",
"236 685 LINE",
"140 685 LINE",
"140 51 LINE"
);
},
{
closed = 1;
nodes = (
"70 656 LINE",
"500 656 LINE",
"500 531 LINE",
"600 531 LINE",
"600 740 LINE",
"70 740 LINE"
);
},
{
closed = 1;
nodes = (
"70 0 LINE",
"600 0 LINE",
"600 209 LINE",
"500 209 LINE",
"500 84 LINE",
"70 84 LINE"
);
},
{
closed = 1;
nodes = (
"194 335 LINE",
"458 335 LINE",
"458 419 LINE",
"194 419 LINE"
);
},
{
closed = 1;
nodes = (
"340 1097 OFFCURVE",
"369 1067 OFFCURVE",
"403 1067 CURVE SMOOTH",
"436 1067 OFFCURVE",
"464 1097 OFFCURVE",
"464 1132 CURVE SMOOTH",
"464 1166 OFFCURVE",
"436 1195 OFFCURVE",
"403 1195 CURVE SMOOTH",
"369 1195 OFFCURVE",
"340 1166 OFFCURVE",
"340 1132 CURVE SMOOTH"
);
},
{
closed = 1;
nodes = (
"564 1097 OFFCURVE",
"593 1067 OFFCURVE",
"627 1067 CURVE SMOOTH",
"660 1067 OFFCURVE",
"688 1097 OFFCURVE",
"688 1132 CURVE SMOOTH",
"688 1166 OFFCURVE",
"660 1195 OFFCURVE",
"627 1195 CURVE SMOOTH",
"593 1195 OFFCURVE",
"564 1166 OFFCURVE",
"564 1132 CURVE SMOOTH"
);
}
);
};
components = (
{
name = E;
},
{
name = dieresiscomb;
transform = "{1, 0, 0, 1, 84, 234}";
}
);
layerId = UUID1;
width = 628;
}
);
unicode = 00CB;
},
{
color = 4;
glyphname = Egrave;
lastChange = "2016-08-14 17:38:38 +0000";
layers = (
{
background = {
paths = (
{
closed = 1;
nodes = (
"294 61 LINE",
"294 665 LINE",
"132 665 LINE",
"132 61 LINE"
);
},
{
closed = 1;
nodes = (
"55 606 LINE",
"485 606 LINE",
"485 501 LINE",
"644 501 LINE",
"644 740 LINE",
"55 740 LINE"
);
},
{
closed = 1;
nodes = (
"55 0 LINE",
"644 0 LINE",
"644 265 LINE",
"485 265 LINE",
"485 134 LINE",
"55 134 LINE"
);
},
{
closed = 1;
nodes = (
"181 309 LINE",
"441 309 LINE",
"441 443 LINE",
"181 443 LINE"
);
},
{
closed = 1;
nodes = (
"322 809 LINE",
"179 949 LINE",
"179 961 LINE",
"338 961 LINE",
"434 809 LINE"
);
}
);
};
components = (
{
name = uc.stem;
transform = "{1, 0, 0, 1, -9, 0}";
},
{
name = E.alt1;
},
{
name = grave;
transform = "{1, 0, 0, 1, 97, 234}";
}
);
layerId = UUID0;
width = 674;
},
{
background = {
paths = (
{
closed = 1;
nodes = (
"236 51 LINE",
"236 685 LINE",
"140 685 LINE",
"140 51 LINE"
);
},
{
closed = 1;
nodes = (
"70 656 LINE",
"500 656 LINE",
"500 531 LINE",
"600 531 LINE",
"600 740 LINE",
"70 740 LINE"
);
},
{
closed = 1;
nodes = (
"70 0 LINE",
"600 0 LINE",
"600 209 LINE",
"500 209 LINE",
"500 84 LINE",
"70 84 LINE"
);
},
{
closed = 1;
nodes = (
"194 335 LINE",
"458 335 LINE",
"458 419 LINE",
"194 419 LINE"
);
},
{
closed = 1;
nodes = (
"319 809 LINE",
"179 947 LINE",
"179 955 LINE",
"300 955 LINE",
"390 809 LINE"
);
}
);
};
components = (
{
name = uc.stem;
transform = "{1, 0, 0, 1, -16, 0}";
},
{
name = E.alt1;
},
{
name = grave;
transform = "{1, 0, 0, 1, 79, 234}";
}
);
layerId = UUID1;
width = 618;
}
);
unicode = 00C8;
},
{
color = 4;
glyphname = Eogonek;
lastChange = "2016-08-14 17:38:38 +0000";
layers = (
{
background = {
paths = (
{
closed = 1;
nodes = (
"295 61 LINE",
"295 665 LINE",
"133 665 LINE",
"133 61 LINE"
);
},
{
closed = 1;
nodes = (
"55 593 LINE",
"485 593 LINE",
"485 488 LINE",
"644 488 LINE",
"644 740 LINE",
"55 740 LINE"
);
},
{
closed = 1;
nodes = (
"55 0 LINE",
"644 0 LINE",
"644 265 LINE",
"485 265 LINE",
"485 134 LINE",
"55 134 LINE"
);
},
{
closed = 1;
nodes = (
"182 305 LINE",
"442 305 LINE",
"442 447 LINE",
"182 447 LINE"
);
},
{
closed = 1;
nodes = (
"593 47 LINE",
"519 31 OFFCURVE",
"415 -27 OFFCURVE",
"415 -127 CURVE SMOOTH",
"415 -193 OFFCURVE",
"478 -230 OFFCURVE",
"557 -230 CURVE SMOOTH",
"592 -230 OFFCURVE",
"630 -218 OFFCURVE",
"644 -210 CURVE",
"620 -127 LINE",
"607 -133 OFFCURVE",
"590 -138 OFFCURVE",
"565 -138 CURVE SMOOTH",
"551 -138 OFFCURVE",
"530 -130 OFFCURVE",
"530 -105 CURVE SMOOTH",
"530 -61 OFFCURVE",
"568 -34 OFFCURVE",
"635 1 CURVE"
);
}
);
};
components = (
{
name = uc.stem;
transform = "{1, 0, 0, 1, -9, 0}";
},
{
name = E.alt1;
},
{
name = ogonek;
transform = "{1, 0, 0, 1, 406, 0}";
}
);
layerId = UUID0;
width = 674;
},
{
background = {
paths = (
{
closed = 1;
nodes = (
"236 51 LINE",
"236 685 LINE",
"140 685 LINE",
"140 51 LINE"
);
},
{
closed = 1;
nodes = (
"70 656 LINE",
"500 656 LINE",
"500 531 LINE",
"600 531 LINE",
"600 740 LINE",
"70 740 LINE"
);
},
{
closed = 1;
nodes = (
"70 0 LINE",
"600 0 LINE",
"600 209 LINE",
"500 209 LINE",
"500 84 LINE",
"70 84 LINE"
);
},
{
closed = 1;
nodes = (
"194 335 LINE",
"458 335 LINE",
"458 419 LINE",
"194 419 LINE"
);
},
{
closed = 1;
nodes = (
"549 47 LINE",
"492 32 OFFCURVE",
"376 -27 OFFCURVE",
"376 -127 CURVE SMOOTH",
"376 -193 OFFCURVE",
"434 -230 OFFCURVE",
"513 -230 CURVE SMOOTH",
"550 -230 OFFCURVE",
"583 -219 OFFCURVE",
"600 -209 CURVE",
"579 -147 LINE",
"566 -153 OFFCURVE",
"541 -158 OFFCURVE",
"516 -158 CURVE SMOOTH",
"483 -158 OFFCURVE",
"461 -137 OFFCURVE",
"461 -110 CURVE SMOOTH",
"461 -61 OFFCURVE",
"507 -28 OFFCURVE",
"591 0 CURVE"
);
}
);
};
components = (
{
name = uc.stem;
transform = "{1, 0, 0, 1, -7, 0}";
},
{
name = E.alt1;
transform = "{1, 0, 0, 1, 10, 0}";
},
{
name = ogonek;
transform = "{1, 0, 0, 1, 362, 0}";
}
);
layerId = UUID1;
width = 628;
}
);
unicode = 0118;
},
{
color = 4;
glyphname = F;
lastChange = "2016-08-14 20:23:35 +0000";
layers = (
{
anchors = (
{
name = top;
position = "{357, 700}";
}
);
background = {
paths = (
{
closed = 1;
nodes = (
"250 297 LINE",
"446 297 LINE",
"446 431 LINE",
"250 431 LINE"
);
},
{
closed = 1;
nodes = (
"55 606 LINE",
"469 606 LINE",
"469 502 LINE",
"628 502 LINE",
"628 740 LINE",
"55 740 LINE"
);
},
{
closed = 1;
nodes = (
"294 61 LINE",
"294 665 LINE",
"132 665 LINE",
"132 61 LINE"
);
},
{
closed = 1;
nodes = (
"55 0 LINE",
"372 0 LINE",
"372 134 LINE",
"55 134 LINE"
);
}
);
};
components = (
{
name = uc.stem;
transform = "{1, 0, 0, 1, -10, 0}";
},
{
name = serif.bot;
transform = "{0.96, 0, 0, 1, -12, 0}";
}
);
layerId = UUID0;
paths = (
{
closed = 1;
nodes = (
"628 488 LINE",
"628 740 LINE",
"55 740 LINE",
"55 592 LINE",
"469 592 LINE",
"469 488 LINE"
);
},
{
closed = 1;
nodes = (
"446 294 LINE",
"446 436 LINE",
"250 436 LINE",
"250 294 LINE"
);
}
);
width = 628;
},
{
anchors = (
{
name = top;
position = "{335, 700}";
}
);
background = {
paths = (
{
closed = 1;
nodes = (
"187 336 LINE",
"492 336 LINE",
"492 418 LINE",
"187 418 LINE"
);
},
{
closed = 1;
nodes = (
"72 656 LINE",
"502 656 LINE",
"502 531 LINE",
"602 531 LINE",
"602 740 LINE",
"72 740 LINE"
);
},
{
closed = 1;
nodes = (
"234 51 LINE",
"234 685 LINE",
"138 685 LINE",
"138 51 LINE"
);
},
{
closed = 1;
nodes = (
"70 0 LINE",
"310 0 LINE",
"310 84 LINE",
"70 84 LINE"
);
}
);
};
components = (
{
name = uc.stem;
transform = "{1, 0, 0, 1, -9, 0}";
},
{
name = serif.bot;
transform = "{1, 0, 0, 1, -13, 0}";
}
);
layerId = UUID1;
paths = (
{
closed = 1;
nodes = (
"602 531 LINE",
"602 740 LINE",
"72 740 LINE",
"72 656 LINE",
"502 656 LINE",
"502 531 LINE"
);
},
{
closed = 1;
nodes = (
"492 336 LINE",
"492 418 LINE",
"187 418 LINE",
"187 336 LINE"
);
}
);
width = 609;
}
);
unicode = 0046;
},
{
color = 4;
glyphname = G;
lastChange = "2016-08-14 20:23:35 +0000";
layers = (
{
background = {
paths = (
{
closed = 1;
nodes = (
"691 515 LINE",
"598 666 LINE",
"553 705 OFFCURVE",
"506 753 OFFCURVE",
"390 753 CURVE SMOOTH",
"190 753 OFFCURVE",
"32 581 OFFCURVE",
"32 371 CURVE SMOOTH",
"32 261 OFFCURVE",
"73 157 OFFCURVE",
"146 86 CURVE SMOOTH",
"203 31 OFFCURVE",
"284 -4 OFFCURVE",
"370 -6 CURVE SMOOTH",
"496 -9 OFFCURVE",
"616 71 OFFCURVE",
"625 273 CURVE",
"545 300 LINE",
"532 206 OFFCURVE",
"471 148 OFFCURVE",
"390 148 CURVE SMOOTH",
"282 148 OFFCURVE",
"197 247 OFFCURVE",
"197 371 CURVE SMOOTH",
"197 491 OFFCURVE",
"281 603 OFFCURVE",
"390 603 CURVE SMOOTH",
"465 603 OFFCURVE",
"513 561 OFFCURVE",
"540 515 CURVE"
);
},
{
closed = 1;
nodes = (
"691 515 LINE",
"691 680 LINE",
"563 680 LINE",
"563 538 LINE"
);
},
{
closed = 1;
nodes = (
"395 261 LINE",
"738 261 LINE",
"738 395 LINE",
"395 395 LINE"
);
},
{
closed = 1;
nodes = (
"738 0 LINE",
"738 302 LINE",
"592 302 LINE",
"592 0 LINE"
);
}
);
};
components = (
{
name = serif.top;
transform = "{1.04, 0, 0, 1, 322, -305}";
},
{
name = uc.stem;
transform = "{0.9, 0, 0, 0.5, 464, -30}";
}
);
hints = (
{
horizontal = 1;
origin = "{0, 29}";
target = "{0, 6}";
},
{
horizontal = 1;
origin = "{0, 12}";
target = "{0, 20}";
}
);
layerId = UUID0;
paths = (
{
closed = 1;
nodes = (
"496 -8 OFFCURVE",
"616 71 OFFCURVE",
"625 273 CURVE",
"545 300 LINE",
"532 206 OFFCURVE",
"471 155 OFFCURVE",
"390 155 CURVE SMOOTH",
"282 155 OFFCURVE",
"197 253 OFFCURVE",
"197 371 CURVE SMOOTH",
"197 491 OFFCURVE",
"281 589 OFFCURVE",
"390 589 CURVE SMOOTH",
"458 589 OFFCURVE",
"513 561 OFFCURVE",
"540 515 CURVE",
"691 515 LINE",
"563 713 LINE",
"512 740 OFFCURVE",
"452 753 OFFCURVE",
"390 753 CURVE SMOOTH",
"190 753 OFFCURVE",
"32 581 OFFCURVE",
"32 371 CURVE SMOOTH",
"32 259 OFFCURVE",
"77 160 OFFCURVE",
"149 88 CURVE SMOOTH",
"207 30 OFFCURVE",
"289 -4 OFFCURVE",
"370 -6 CURVE SMOOTH"
);
},
{
closed = 1;
nodes = (
"691 680 LINE",
"563 713 LINE",
"563 538 LINE",
"691 515 LINE"
);
}
);
width = 799;
},
{
background = {
paths = (
{
closed = 1;
nodes = (
"700 545 LINE",
"661 622 LINE",
"607 687 OFFCURVE",
"532 755 OFFCURVE",
"388 755 CURVE SMOOTH",
"186 755 OFFCURVE",
"35 587 OFFCURVE",
"35 371 CURVE SMOOTH",
"35 255 OFFCURVE",
"76 151 OFFCURVE",
"151 81 CURVE SMOOTH",
"209 27 OFFCURVE",
"287 -6 OFFCURVE",
"381 -6 CURVE SMOOTH",
"516 -6 OFFCURVE",
"647 72 OFFCURVE",
"667 238 CURVE",
"631 290 LINE",
"603 146 OFFCURVE",
"520 80 OFFCURVE",
"388 80 CURVE SMOOTH",
"238 80 OFFCURVE",
"134 204 OFFCURVE",
"134 371 CURVE SMOOTH",
"134 527 OFFCURVE",
"237 664 OFFCURVE",
"388 664 CURVE SMOOTH",
"485 664 OFFCURVE",
"552 617 OFFCURVE",
"595 545 CURVE"
);
},
{
closed = 1;
nodes = (
"700 545 LINE",
"700 632 LINE",
"592 632 LINE",
"598 561 LINE"
);
},
{
closed = 1;
nodes = (
"416 268 LINE",
"728 268 LINE",
"728 352 LINE",
"416 352 LINE"
);
},
{
closed = 1;
nodes = (
"729 -3 LINE",
"729 314 LINE",
"638 314 LINE",
"638 -3 LINE"
);
}
);
};
components = (
{
name = serif.top;
transform = "{1.3, 0, 0, 1, 308, -348}";
},
{
name = uc.stem;
transform = "{0.95, 0, 0, 0.5, 498, -28}";
}
);
hints = (
{
horizontal = 1;
origin = "{0, 29}";
target = "{0, 6}";
},
{
horizontal = 1;
origin = "{0, 12}";
target = "{0, 20}";
}
);
layerId = UUID1;
paths = (
{
closed = 1;
nodes = (
"513 -6 OFFCURVE",
"644 72 OFFCURVE",
"664 238 CURVE",
"628 290 LINE",
"600 146 OFFCURVE",
"517 80 OFFCURVE",
"385 80 CURVE SMOOTH",
"235 80 OFFCURVE",
"131 215 OFFCURVE",
"131 371 CURVE SMOOTH",
"131 527 OFFCURVE",
"234 663 OFFCURVE",
"385 663 CURVE SMOOTH",
"486 663 OFFCURVE",
"549 619 OFFCURVE",
"592 545 CURVE",
"697 545 LINE",
"628 649 LINE",
"580 706 OFFCURVE",
"495 754 OFFCURVE",
"385 754 CURVE SMOOTH",
"178 754 OFFCURVE",
"32 579 OFFCURVE",
"32 371 CURVE SMOOTH",
"32 260 OFFCURVE",
"74 159 OFFCURVE",
"144 88 CURVE SMOOTH",
"206 25 OFFCURVE",
"293 -6 OFFCURVE",
"378 -6 CURVE SMOOTH"
);
},
{
closed = 1;
nodes = (
"697 632 LINE",
"592 660 LINE",
"598 561 LINE",
"697 545 LINE"
);
}
);
width = 819;
}
);
unicode = 0047;
},
{
color = 4;
glyphname = H;
lastChange = "2016-08-14 20:23:35 +0000";
layers = (
{
anchors = (
{
name = top;
position = "{388, 700}";
}
);
background = {
paths = (
{
closed = 1;
nodes = (
"226 323 LINE",
"717 323 LINE",
"717 452 LINE",
"226 452 LINE"
);
},
{
closed = 1;
nodes = (
"551 0 LINE",
"868 0 LINE",
"868 134 LINE",
"551 134 LINE"
);
},
{
closed = 1;
nodes = (
"790 61 LINE",
"790 665 LINE",
"628 665 LINE",
"628 61 LINE"
);
},
{
closed = 1;
nodes = (
"551 606 LINE",
"868 606 LINE",
"868 740 LINE",
"551 740 LINE"
);
},
{
closed = 1;
nodes = (
"55 606 LINE",
"372 606 LINE",
"372 740 LINE",
"55 740 LINE"
);
},
{
closed = 1;
nodes = (
"294 61 LINE",
"294 665 LINE",
"132 665 LINE",
"132 61 LINE"
);
},
{
closed = 1;
nodes = (
"55 0 LINE",
"372 0 LINE",
"372 134 LINE",
"55 134 LINE"
);
}
);
};
components = (
{
name = serif.bot;
transform = "{0.96, 0, 0, 1, 484, 0}";
},
{
name = uc.stem;
transform = "{1, 0, 0, 1, 486, 0}";
},
{
name = serif.top;
transform = "{0.96, 0, 0, 1, 484, 40}";
},
{
name = serif.top;
transform = "{0.96, 0, 0, 1, -12, 40}";
},
{
name = uc.stem;
transform = "{1, 0, 0, 1, -10, 0}";
},
{
name = serif.bot;
transform = "{0.96, 0, 0, 1, -12, 0}";
}
);
layerId = UUID0;
paths = (
{
closed = 1;
nodes = (
"717 323 LINE",
"717 452 LINE",
"226 452 LINE",
"226 323 LINE"
);
}
);
width = 923;
},
{
anchors = (
{
name = top;
position = "{390, 700}";
}
);
background = {
paths = (
{
closed = 1;
nodes = (
"205 350 LINE",
"706 350 LINE",
"706 432 LINE",
"205 432 LINE"
);
},
{
closed = 1;
nodes = (
"590 0 LINE",
"830 0 LINE",
"830 84 LINE",
"590 84 LINE"
);
},
{
closed = 1;
nodes = (
"760 51 LINE",
"760 685 LINE",
"664 685 LINE",
"664 51 LINE"
);
},
{
closed = 1;
nodes = (
"590 656 LINE",
"830 656 LINE",
"830 740 LINE",
"590 740 LINE"
);
},
{
closed = 1;
nodes = (
"70 656 LINE",
"310 656 LINE",
"310 740 LINE",
"70 740 LINE"
);
},
{
closed = 1;
nodes = (
"236 51 LINE",
"236 685 LINE",
"140 685 LINE",
"140 51 LINE"
);
},
{
closed = 1;
nodes = (
"70 0 LINE",
"310 0 LINE",
"310 84 LINE",
"70 84 LINE"
);
}
);
};
components = (
{
name = serif.bot;
transform = "{1, 0, 0, 1, 507, 0}";
},
{
name = uc.stem;
transform = "{1, 0, 0, 1, 517, 0}";
},
{
name = serif.top;
transform = "{1, 0, 0, 1, 507, 40}";
},
{
name = serif.top;
transform = "{1, 0, 0, 1, -13, 40}";
},
{
name = uc.stem;
transform = "{1, 0, 0, 1, -7, 0}";
},
{
name = serif.bot;
transform = "{1, 0, 0, 1, -13, 0}";
}
);
layerId = UUID1;
paths = (
{
closed = 1;
nodes = (
"706 350 LINE",
"706 432 LINE",
"205 432 LINE",
"205 350 LINE"
);
}
);
width = 900;
}
);
unicode = 0048;
},
{
color = 4;
glyphname = I;
lastChange = "2016-08-14 17:38:38 +0000";
layers = (
{
anchors = (
{
name = top;
position = "{210, 740}";
}
);
background = {
paths = (
{
closed = 1;
nodes = (
"55 606 LINE",
"372 606 LINE",
"372 740 LINE",
"55 740 LINE"
);
},
{
closed = 1;
nodes = (
"294 61 LINE",
"294 665 LINE",
"132 665 LINE",
"132 61 LINE"
);
},
{
closed = 1;
nodes = (
"55 0 LINE",
"372 0 LINE",
"372 134 LINE",
"55 134 LINE"
);
}
);
};
components = (
{
name = serif.top;
transform = "{0.96, 0, 0, 1, -12, 40}";
},
{
name = uc.stem;
transform = "{1, 0, 0, 1, -10, 0}";
},
{
name = serif.bot;
transform = "{0.96, 0, 0, 1, -12, 0}";
}
);
layerId = UUID0;
width = 427;
},
{
anchors = (
{
name = top;
position = "{188, 740}";
}
);
background = {
paths = (
{
closed = 1;
nodes = (
"70 656 LINE",
"306 656 LINE",
"306 740 LINE",
"70 740 LINE"
);
},
{
closed = 1;
nodes = (
"236 51 LINE",
"236 685 LINE",
"140 685 LINE",
"140 51 LINE"
);
},
{
closed = 1;
nodes = (
"70 0 LINE",
"306 0 LINE",
"306 84 LINE",
"70 84 LINE"
);
}
);
};
components = (
{
name = serif.top;
transform = "{1, 0, 0, 1, -12, 40}";
},
{
name = uc.stem;
transform = "{1, 0, 0, 1, -9, 0}";
},
{
name = serif.bot;
transform = "{1, 0, 0, 1, -13, 0}";
}
);
layerId = UUID1;
width = 381;
}
);
unicode = 0049;
},
{
color = 4;
glyphname = Iacute;
lastChange = "2016-08-14 17:38:38 +0000";
layers = (
{
background = {
paths = (
{
closed = 1;
nodes = (
"55 606 LINE",
"372 606 LINE",
"372 740 LINE",
"55 740 LINE"
);
},
{
closed = 1;
nodes = (
"294 61 LINE",
"294 665 LINE",
"132 665 LINE",
"132 61 LINE"
);
},
{
closed = 1;
nodes = (
"55 0 LINE",
"372 0 LINE",
"372 134 LINE",
"55 134 LINE"
);
},
{
closed = 1;
nodes = (
"160 809 LINE",
"275 809 LINE",
"424 949 LINE",
"424 961 LINE",
"265 961 LINE"
);
}
);
};
components = (
{
name = serif.top;
transform = "{0.96, 0, 0, 1, -12, 40}";
},
{
name = uc.stem;
transform = "{1, 0, 0, 1, -10, 0}";
},
{
name = serif.bot;
transform = "{0.96, 0, 0, 1, -12, 0}";
},
{
name = acute;
transform = "{1, 0, 0, 1, 140, 234}";
}
);
layerId = UUID0;
width = 427;
},
{
background = {
paths = (
{
closed = 1;
nodes = (
"70 656 LINE",
"306 656 LINE",
"306 740 LINE",
"70 740 LINE"
);
},
{
closed = 1;
nodes = (
"236 51 LINE",
"236 685 LINE",
"140 685 LINE",
"140 51 LINE"
);
},
{
closed = 1;
nodes = (
"70 0 LINE",
"306 0 LINE",
"306 84 LINE",
"70 84 LINE"
);
},
{
closed = 1;
nodes = (
"120 809 LINE",
"195 809 LINE",
"341 947 LINE",
"341 955 LINE",
"224 955 LINE"
);
}
);
};
components = (
{
name = serif.top;
transform = "{1, 0, 0, 1, -31, 40}";
},
{
name = uc.stem;
transform = "{1, 0, 0, 1, -28, 0}";
},
{
name = serif.bot;
transform = "{1, 0, 0, 1, -32, 0}";
},
{
name = acute;
transform = "{1, 0, 0, 1, 60, 234}";
}
);
layerId = UUID1;
width = 342;
}
);
unicode = 00CD;
},
{
color = 4;
glyphname = Icircumflex;
lastChange = "2016-08-14 17:38:38 +0000";
layers = (
{
background = {
paths = (
{
closed = 1;
nodes = (
"55 606 LINE",
"372 606 LINE",
"372 740 LINE",
"55 740 LINE"
);
},
{
closed = 1;
nodes = (
"294 61 LINE",
"294 665 LINE",
"132 665 LINE",
"132 61 LINE"
);
},
{
closed = 1;
nodes = (
"55 0 LINE",
"372 0 LINE",
"372 134 LINE",
"55 134 LINE"
);
},
{
closed = 1;
nodes = (
"36 808 LINE",
"169 967 LINE",
"286 967 LINE",
"420 808 LINE",
"300 808 LINE",
"228 883 LINE",
"157 808 LINE"
);
}
);
};
components = (
{
name = serif.top;
transform = "{0.96, 0, 0, 1, -12, 40}";
},
{
name = uc.stem;
transform = "{1, 0, 0, 1, -10, 0}";
},
{
name = serif.bot;
transform = "{0.96, 0, 0, 1, -12, 0}";
},
{
name = circumflex;
transform = "{1, 0, 0, 1, -6, 234}";
}
);
layerId = UUID0;
width = 427;
},
{
background = {
paths = (
{
closed = 1;
nodes = (
"70 656 LINE",
"306 656 LINE",
"306 740 LINE",
"70 740 LINE"
);
},
{
closed = 1;
nodes = (
"236 51 LINE",
"236 685 LINE",
"140 685 LINE",
"140 51 LINE"
);
},
{
closed = 1;
nodes = (
"70 0 LINE",
"306 0 LINE",
"306 84 LINE",
"70 84 LINE"
);
},
{
closed = 1;
nodes = (
"62 808 LINE",
"184 961 LINE",
"215 961 LINE",
"338 808 LINE",
"265 808 LINE",
"200 884 LINE",
"134 808 LINE"
);
}
);
};
components = (
{
name = serif.top;
transform = "{1, 0, 0, 1, -31, 40}";
},
{
name = uc.stem;
transform = "{1, 0, 0, 1, -28, 0}";
},
{
name = serif.bot;
transform = "{1, 0, 0, 1, -32, 0}";
},
{
name = circumflex;
transform = "{1, 0, 0, 1, -63, 234}";
}
);
layerId = UUID1;
width = 342;
}
);
unicode = 00CE;
},
{
color = 4;
glyphname = Idieresis;
lastChange = "2016-10-12 15:33:50 +0000";
layers = (
{
background = {
paths = (
{
closed = 1;
nodes = (
"55 606 LINE",
"372 606 LINE",
"372 740 LINE",
"55 740 LINE"
);
},
{
closed = 1;
nodes = (
"294 61 LINE",
"294 665 LINE",
"132 665 LINE",
"132 61 LINE"
);
},
{
closed = 1;
nodes = (
"55 0 LINE",
"372 0 LINE",
"372 134 LINE",
"55 134 LINE"
);
},
{
closed = 1;
nodes = (
"40 811 OFFCURVE",
"74 776 OFFCURVE",
"118 776 CURVE SMOOTH",
"160 776 OFFCURVE",
"195 811 OFFCURVE",
"195 854 CURVE SMOOTH",
"195 897 OFFCURVE",
"160 932 OFFCURVE",
"118 932 CURVE SMOOTH",
"74 932 OFFCURVE",
"40 897 OFFCURVE",
"40 854 CURVE SMOOTH"
);
},
{
closed = 1;
nodes = (
"224 811 OFFCURVE",
"258 776 OFFCURVE",
"302 776 CURVE SMOOTH",
"344 776 OFFCURVE",
"379 811 OFFCURVE",
"379 854 CURVE SMOOTH",
"379 897 OFFCURVE",
"344 932 OFFCURVE",
"302 932 CURVE SMOOTH",
"258 932 OFFCURVE",
"224 897 OFFCURVE",
"224 854 CURVE SMOOTH"
);
}
);
};
components = (
{
name = I;
},
{
name = dieresiscomb;
transform = "{1, 0, 0, 1, -94, 234}";
}
);
layerId = UUID0;
width = 427;
},
{
background = {
paths = (
{
closed = 1;
nodes = (
"70 656 LINE",
"306 656 LINE",
"306 740 LINE",
"70 740 LINE"
);
},
{
closed = 1;
nodes = (
"236 51 LINE",
"236 685 LINE",
"140 685 LINE",
"140 51 LINE"
);
},
{
closed = 1;
nodes = (
"70 0 LINE",
"306 0 LINE",
"306 84 LINE",
"70 84 LINE"
);
},
{
closed = 1;
nodes = (
"51 863 OFFCURVE",
"80 833 OFFCURVE",
"114 833 CURVE SMOOTH",
"147 833 OFFCURVE",
"175 863 OFFCURVE",
"175 898 CURVE SMOOTH",
"175 932 OFFCURVE",
"147 961 OFFCURVE",
"114 961 CURVE SMOOTH",
"80 961 OFFCURVE",
"51 932 OFFCURVE",
"51 898 CURVE SMOOTH"
);
},
{
closed = 1;
nodes = (
"205 863 OFFCURVE",
"234 833 OFFCURVE",
"268 833 CURVE SMOOTH",
"301 833 OFFCURVE",
"329 863 OFFCURVE",
"329 898 CURVE SMOOTH",
"329 932 OFFCURVE",
"301 961 OFFCURVE",
"268 961 CURVE SMOOTH",
"234 961 OFFCURVE",
"205 932 OFFCURVE",
"205 898 CURVE SMOOTH"
);
}
);
};
components = (
{
name = I;
},
{
name = dieresiscomb;
transform = "{1, 0, 0, 1, -82, 234}";
}
);
layerId = UUID1;
width = 381;
}
);
unicode = 00CF;
},
{
color = 4;
glyphname = Igrave;
lastChange = "2016-08-14 17:38:38 +0000";
layers = (
{
background = {
paths = (
{
closed = 1;
nodes = (
"55 606 LINE",
"372 606 LINE",
"372 740 LINE",
"55 740 LINE"
);
},
{
closed = 1;
nodes = (
"294 61 LINE",
"294 665 LINE",
"132 665 LINE",
"132 61 LINE"
);
},
{
closed = 1;
nodes = (
"55 0 LINE",
"372 0 LINE",
"372 134 LINE",
"55 134 LINE"
);
},
{
closed = 1;
nodes = (
"170 809 LINE",
"27 949 LINE",
"27 961 LINE",
"186 961 LINE",
"282 809 LINE"
);
}
);
};
components = (
{
name = serif.top;
transform = "{0.96, 0, 0, 1, -12, 40}";
},
{
name = uc.stem;
transform = "{1, 0, 0, 1, -10, 0}";
},
{
name = serif.bot;
transform = "{0.96, 0, 0, 1, -12, 0}";
},
{
name = grave;
transform = "{1, 0, 0, 1, -55, 234}";
}
);
layerId = UUID0;
width = 427;
},
{
background = {
paths = (
{
closed = 1;
nodes = (
"70 656 LINE",
"306 656 LINE",
"306 740 LINE",
"70 740 LINE"
);
},
{
closed = 1;
nodes = (
"236 51 LINE",
"236 685 LINE",
"140 685 LINE",
"140 51 LINE"
);
},
{
closed = 1;
nodes = (
"70 0 LINE",
"306 0 LINE",
"306 84 LINE",
"70 84 LINE"
);
},
{
closed = 1;
nodes = (
"153 809 LINE",
"13 947 LINE",
"13 955 LINE",
"134 955 LINE",
"224 809 LINE"
);
}
);
};
components = (
{
name = serif.top;
transform = "{1, 0, 0, 1, -31, 40}";
},
{
name = uc.stem;
transform = "{1, 0, 0, 1, -28, 0}";
},
{
name = serif.bot;
transform = "{1, 0, 0, 1, -32, 0}";
},
{
name = grave;
transform = "{1, 0, 0, 1, -96, 234}";
}
);
layerId = UUID1;
width = 342;
}
);
unicode = 00CC;
},
{
color = 4;
glyphname = Iogonek;
lastChange = "2016-08-14 17:38:38 +0000";
layers = (
{
background = {
paths = (
{
closed = 1;
nodes = (
"58 606 LINE",
"388 606 LINE",
"388 740 LINE",
"58 740 LINE"
);
},
{
closed = 1;
nodes = (
"294 61 LINE",
"294 665 LINE",
"132 665 LINE",
"132 61 LINE"
);
},
{
closed = 1;
nodes = (
"58 0 LINE",
"388 0 LINE",
"388 134 LINE",
"58 134 LINE"
);
},
{
closed = 1;
nodes = (
"321 47 LINE",
"247 31 OFFCURVE",
"143 -27 OFFCURVE",
"143 -127 CURVE SMOOTH",
"143 -193 OFFCURVE",
"200 -230 OFFCURVE",
"285 -230 CURVE SMOOTH",
"320 -230 OFFCURVE",
"358 -218 OFFCURVE",
"372 -210 CURVE",
"348 -127 LINE",
"335 -133 OFFCURVE",
"318 -138 OFFCURVE",
"298 -138 CURVE SMOOTH",
"279 -138 OFFCURVE",
"255 -127 OFFCURVE",
"255 -97 CURVE SMOOTH",
"255 -39 OFFCURVE",
"326 0 OFFCURVE",
"376 0 CURVE SMOOTH",
"385 0 LINE"
);
}
);
};
components = (
{
name = serif.top;
transform = "{1, 0, 0, 1, -12, 40}";
},
{
name = uc.stem;
transform = "{1, 0, 0, 1, -10, 0}";
},
{
name = serif.bot;
transform = "{1, 0, 0, 1, -12, 0}";
},
{
name = ogonek;
transform = "{1, 0, 0, 1, 134, 0}";
}
);
layerId = UUID0;
width = 427;
},
{
background = {
paths = (
{
closed = 1;
nodes = (
"71 656 LINE",
"311 656 LINE",
"311 740 LINE",
"71 740 LINE"
);
},
{
closed = 1;
nodes = (
"234 51 LINE",
"234 685 LINE",
"138 685 LINE",
"138 51 LINE"
);
},
{
closed = 1;
nodes = (
"70 0 LINE",
"310 0 LINE",
"310 84 LINE",
"70 84 LINE"
);
},
{
closed = 1;
nodes = (
"260 47 LINE",
"203 32 OFFCURVE",
"87 -19 OFFCURVE",
"87 -127 CURVE SMOOTH",
"87 -193 OFFCURVE",
"145 -230 OFFCURVE",
"224 -230 CURVE SMOOTH",
"261 -230 OFFCURVE",
"294 -219 OFFCURVE",
"311 -209 CURVE",
"290 -147 LINE",
"277 -153 OFFCURVE",
"252 -158 OFFCURVE",
"227 -158 CURVE SMOOTH",
"194 -158 OFFCURVE",
"172 -137 OFFCURVE",
"172 -103 CURVE SMOOTH",
"172 -36 OFFCURVE",
"240 0 OFFCURVE",
"291 0 CURVE SMOOTH",
"308 0 LINE"
);
}
);
};
components = (
{
name = serif.top;
transform = "{1, 0, 0, 1, -12, 40}";
},
{
name = uc.stem;
transform = "{1, 0, 0, 1, -9, 0}";
},
{
name = serif.bot;
transform = "{1, 0, 0, 1, -13, 0}";
},
{
name = ogonek;
transform = "{1, 0, 0, 1, 73, 0}";
}
);
layerId = UUID1;
width = 381;
}
);
unicode = 012E;
},
{
color = 4;
glyphname = J;
lastChange = "2016-08-14 20:23:35 +0000";
layers = (
{
anchors = (
{
name = top;
position = "{86, 660}";
}
);
background = {
paths = (
{
closed = 1;
nodes = (
"141 -116 LINE",
"141 -116 OFFCURVE",
"268 27 OFFCURVE",
"268 84 CURVE",
"268 689 LINE",
"109 689 LINE",
"109 100 LINE",
"109 46 OFFCURVE",
"5 -109 OFFCURVE",
"5 -109 CURVE"
);
},
{
closed = 1;
nodes = (
"40 592 LINE",
"320 592 LINE",
"320 740 LINE",
"40 740 LINE"
);
}
);
};
layerId = UUID0;
paths = (
{
closed = 1;
nodes = (
"141 -116 OFFCURVE",
"268 27 OFFCURVE",
"268 84 CURVE",
"268 689 LINE",
"109 689 LINE",
"109 100 LINE",
"109 46 OFFCURVE",
"5 -109 OFFCURVE",
"5 -109 CURVE",
"141 -116 LINE"
);
},
{
closed = 1;
nodes = (
"320 592 LINE",
"320 740 LINE",
"40 740 LINE",
"40 592 LINE"
);
}
);
width = 335;
},
{
anchors = (
{
name = top;
position = "{86, 660}";
}
);
background = {
paths = (
{
closed = 1;
nodes = (
"134 -116 LINE",
"134 -116 OFFCURVE",
"251 27 OFFCURVE",
"251 84 CURVE",
"251 689 LINE",
"154 689 LINE",
"154 100 LINE",
"154 46 OFFCURVE",
"50 -109 OFFCURVE",
"50 -109 CURVE"
);
},
{
closed = 1;
nodes = (
"73 656 LINE",
"313 656 LINE",
"313 740 LINE",
"73 740 LINE"
);
}
);
};
layerId = UUID1;
paths = (
{
closed = 1;
nodes = (
"134 -116 OFFCURVE",
"251 27 OFFCURVE",
"251 84 CURVE",
"251 689 LINE",
"154 689 LINE",
"154 100 LINE",
"154 46 OFFCURVE",
"50 -109 OFFCURVE",
"50 -109 CURVE",
"134 -116 LINE"
);
},
{
closed = 1;
nodes = (
"313 656 LINE",
"313 740 LINE",
"73 740 LINE",
"73 656 LINE"
);
}
);
width = 333;
}
);
unicode = 004A;
},
{
color = 4;
glyphname = K;
lastChange = "2016-08-14 17:38:38 +0000";
layers = (
{
background = {
paths = (
{
closed = 1;
nodes = (
"55 606 LINE",
"372 606 LINE",
"372 740 LINE",
"55 740 LINE"
);
},
{
closed = 1;
nodes = (
"294 61 LINE",
"294 665 LINE",
"132 665 LINE",
"132 61 LINE"
);
},
{
closed = 1;
nodes = (
"290 387 LINE",
"532 145 LINE",
"532 0 LINE",
"778 0 LINE",
"778 134 LINE",
"729 134 LINE",
"455 411 LINE",
"452 359 LINE",
"739 606 LINE",
"783 606 LINE",
"783 740 LINE",
"531 740 LINE",
"531 597 LINE"
);
},
{
closed = 1;
nodes = (
"55 0 LINE",
"372 0 LINE",
"372 134 LINE",
"55 134 LINE"
);
}
);
};
components = (
{
name = serif.bot;
transform = "{0.96, 0, 0, 1, -12, 0}";
},
{
name = uc.stem;
transform = "{1, 0, 0, 1, -10, 0}";
},
{
name = serif.top;
transform = "{0.96, 0, 0, 1, -12, 40}";
},
{
name = K.legs;
}
);
layerId = UUID0;
width = 808;
},
{
background = {
paths = (
{
closed = 1;
nodes = (
"71 656 LINE",
"311 656 LINE",
"311 740 LINE",
"71 740 LINE"
);
},
{
closed = 1;
nodes = (
"236 51 LINE",
"236 685 LINE",
"140 685 LINE",
"140 51 LINE"
);
},
{
closed = 1;
nodes = (
"237 378 LINE",
"531 84 LINE",
"531 0 LINE",
"730 0 LINE",
"730 84 LINE",
"651 84 LINE",
"325 405 LINE",
"310 351 LINE",
"672 656 LINE",
"730 656 LINE",
"730 740 LINE",
"560 740 LINE",
"560 656 LINE"
);
},
{
closed = 1;
nodes = (
"70 0 LINE",
"310 0 LINE",
"310 84 LINE",
"70 84 LINE"
);
}
);
};
components = (
{
name = serif.bot;
transform = "{1, 0, 0, 1, -13, 0}";
},
{
name = uc.stem;
transform = "{1, 0, 0, 1, -9, 0}";
},
{
name = serif.top;
transform = "{1, 0, 0, 1, -12, 40}";
},
{
name = K.legs;
}
);
layerId = UUID1;
width = 763;
}
);
unicode = 004B;
},
{
color = 4;
glyphname = L;
lastChange = "2016-08-14 20:23:35 +0000";
layers = (
{
anchors = (
{
name = top;
position = "{366, 700}";
}
);
background = {
paths = (
{
closed = 1;
nodes = (
"489 272 LINE",
"489 173 LINE SMOOTH",
"489 156 OFFCURVE",
"472 134 OFFCURVE",
"455 134 CURVE SMOOTH",
"55 134 LINE",
"55 0 LINE",
"647 0 LINE",
"647 272 LINE"
);
},
{
closed = 1;
nodes = (
"294 61 LINE",
"294 665 LINE",
"132 665 LINE",
"132 61 LINE"
);
},
{
closed = 1;
nodes = (
"55 606 LINE",
"372 606 LINE",
"372 740 LINE",
"55 740 LINE"
);
}
);
};
components = (
{
name = uc.stem;
transform = "{1, 0, 0, 1, -10, 0}";
},
{
name = serif.top;
transform = "{0.96, 0, 0, 1, -12, 40}";
}
);
layerId = UUID0;
paths = (
{
closed = 1;
nodes = (
"647 0 LINE",
"647 272 LINE",
"489 272 LINE",
"489 173 LINE SMOOTH",
"489 156 OFFCURVE",
"472 134 OFFCURVE",
"455 134 CURVE SMOOTH",
"55 134 LINE",
"55 0 LINE"
);
}
);
width = 657;
},
{
anchors = (
{
name = top;
position = "{347, 700}";
}
);
background = {
paths = (
{
closed = 1;
nodes = (
"535 219 LINE",
"535 126 LINE SMOOTH",
"535 105 OFFCURVE",
"512 84 OFFCURVE",
"491 84 CURVE SMOOTH",
"70 84 LINE",
"70 0 LINE",
"628 0 LINE",
"628 219 LINE"
);
},
{
closed = 1;
nodes = (
"236 51 LINE",
"236 685 LINE",
"140 685 LINE",
"140 51 LINE"
);
},
{
closed = 1;
nodes = (
"70 656 LINE",
"310 656 LINE",
"310 740 LINE",
"70 740 LINE"
);
}
);
};
components = (
{
name = uc.stem;
transform = "{1, 0, 0, 1, -10, 0}";
},
{
name = serif.top;
transform = "{1, 0, 0, 1, -13, 40}";
}
);
layerId = UUID1;
paths = (
{
closed = 1;
nodes = (
"628 0 LINE",
"628 219 LINE",
"532 219 LINE",
"532 126 LINE SMOOTH",
"532 105 OFFCURVE",
"509 84 OFFCURVE",
"488 84 CURVE SMOOTH",
"70 84 LINE",
"70 0 LINE"
);
}
);
width = 633;
}
);
unicode = 004C;
},
{
color = 4;
glyphname = Lslash;
lastChange = "2016-08-14 20:23:35 +0000";
layers = (
{
background = {
paths = (
{
closed = 1;
nodes = (
"489 272 LINE",
"489 173 LINE SMOOTH",
"489 156 OFFCURVE",
"472 134 OFFCURVE",
"455 134 CURVE SMOOTH",
"55 134 LINE",
"55 0 LINE",
"647 0 LINE",
"647 272 LINE"
);
},
{
closed = 1;
nodes = (
"54 205 LINE",
"533 431 LINE",
"533 585 LINE",
"54 359 LINE"
);
},
{
closed = 1;
nodes = (
"294 61 LINE",
"294 665 LINE",
"132 665 LINE",
"132 61 LINE"
);
},
{
closed = 1;
nodes = (
"55 606 LINE",
"372 606 LINE",
"372 740 LINE",
"55 740 LINE"
);
}
);
};
components = (
{
name = uc.stem;
transform = "{1, 0, 0, 1, -10, 0}";
},
{
name = serif.top;
transform = "{0.96, 0, 0, 1, -12, 40}";
}
);
layerId = UUID0;
paths = (
{
closed = 1;
nodes = (
"533 431 LINE",
"533 585 LINE",
"54 359 LINE",
"54 205 LINE"
);
},
{
closed = 1;
nodes = (
"647 0 LINE",
"647 272 LINE",
"489 272 LINE",
"489 173 LINE SMOOTH",
"489 156 OFFCURVE",
"472 134 OFFCURVE",
"455 134 CURVE SMOOTH",
"55 134 LINE",
"55 0 LINE"
);
}
);
width = 657;
},
{
background = {
paths = (
{
closed = 1;
nodes = (
"532 219 LINE",
"532 126 LINE SMOOTH",
"532 105 OFFCURVE",
"509 84 OFFCURVE",
"488 84 CURVE SMOOTH",
"70 84 LINE",
"70 0 LINE",
"628 0 LINE",
"628 219 LINE"
);
},
{
closed = 1;
nodes = (
"70 195 LINE",
"507 430 LINE",
"507 532 LINE",
"70 297 LINE"
);
},
{
closed = 1;
nodes = (
"233 51 LINE",
"233 685 LINE",
"137 685 LINE",
"137 51 LINE"
);
},
{
closed = 1;
nodes = (
"70 656 LINE",
"310 656 LINE",
"310 740 LINE",
"70 740 LINE"
);
}
);
};
components = (
{
name = uc.stem;
transform = "{1, 0, 0, 1, -10, 0}";
},
{
name = serif.top;
transform = "{1, 0, 0, 1, -13, 40}";
}
);
layerId = UUID1;
paths = (
{
closed = 1;
nodes = (
"507 430 LINE",
"507 532 LINE",
"70 297 LINE",
"70 195 LINE"
);
},
{
closed = 1;
nodes = (
"628 0 LINE",
"628 219 LINE",
"532 219 LINE",
"532 126 LINE SMOOTH",
"532 105 OFFCURVE",
"509 84 OFFCURVE",
"488 84 CURVE SMOOTH",
"70 84 LINE",
"70 0 LINE"
);
}
);
width = 633;
}
);
unicode = 0141;
},
{
color = 4;
glyphname = M;
lastChange = "2016-08-14 20:23:35 +0000";
layers = (
{
anchors = (
{
name = top;
position = "{500, 700}";
}
);
background = {
paths = (
{
closed = 1;
nodes = (
"132 606 LINE",
"132 101 LINE",
"292 101 LINE",
"292 662 LINE",
"260 613 LINE",
"511 9 LINE",
"648 9 LINE",
"896 625 LINE",
"866 665 LINE",
"866 101 LINE",
"1028 101 LINE",
"1028 606 LINE",
"1105 606 LINE",
"1105 740 LINE",
"788 740 LINE",
"546 102 LINE",
"628 102 LINE",
"367 740 LINE",
"55 740 LINE",
"55 606 LINE"
);
},
{
closed = 1;
nodes = (
"55 0 LINE",
"339 0 LINE",
"339 134 LINE",
"55 134 LINE"
);
},
{
closed = 1;
nodes = (
"815 0 LINE",
"1105 0 LINE",
"1105 134 LINE",
"815 134 LINE"
);
}
);
};
components = (
{
name = serif.bot;
transform = "{0.84, 0, 0, 1, -4, 0}";
},
{
name = serif.bot;
transform = "{0.84, 0, 0, 1, 753, 0}";
}
);
layerId = UUID0;
paths = (
{
closed = 1;
nodes = (
"641 9 LINE",
"889 625 LINE",
"863 665 LINE",
"863 101 LINE",
"1021 101 LINE",
"1021 606 LINE",
"1090 606 LINE",
"1090 740 LINE",
"781 740 LINE",
"539 102 LINE",
"621 102 LINE",
"360 740 LINE",
"55 740 LINE",
"55 606 LINE",
"124 606 LINE",
"124 101 LINE",
"277 101 LINE",
"282 662 LINE",
"253 613 LINE",
"504 9 LINE"
);
}
);
width = 1145;
},
{
anchors = (
{
name = top;
position = "{495, 700}";
}
);
background = {
paths = (
{
closed = 1;
nodes = (
"140 647 LINE",
"140 61 LINE",
"234 61 LINE",
"234 693 LINE",
"220 688 LINE",
"496 0 LINE",
"579 0 LINE",
"854 693 LINE",
"838 683 LINE",
"838 61 LINE",
"929 61 LINE",
"929 647 LINE",
"998 647 LINE",
"998 740 LINE",
"777 740 LINE",
"520 50 LINE",
"556 55 LINE",
"304 740 LINE",
"70 740 LINE",
"70 647 LINE"
);
},
{
closed = 1;
nodes = (
"70 0 LINE",
"308 0 LINE",
"308 84 LINE",
"70 84 LINE"
);
},
{
closed = 1;
nodes = (
"758 0 LINE",
"998 0 LINE",
"998 84 LINE",
"758 84 LINE"
);
}
);
};
components = (
{
name = serif.bot;
transform = "{1, 0, 0, 1, -7, 0}";
},
{
name = serif.bot;
transform = "{1, 0, 0, 1, 687, 0}";
}
);
layerId = UUID1;
paths = (
{
closed = 1;
nodes = (
"585 0 LINE",
"860 693 LINE",
"844 683 LINE",
"844 61 LINE",
"935 61 LINE",
"935 647 LINE",
"1012 647 LINE",
"1012 740 LINE",
"783 740 LINE",
"526 50 LINE",
"562 55 LINE",
"310 740 LINE",
"70 740 LINE",
"70 647 LINE",
"146 647 LINE",
"146 61 LINE",
"240 61 LINE",
"240 693 LINE",
"226 688 LINE",
"502 0 LINE"
);
}
);
width = 1062;
}
);
unicode = 004D;
},
{
color = 4;
glyphname = N;
lastChange = "2016-08-14 17:38:38 +0000";
layers = (
{
anchors = (
{
name = top;
position = "{417, 740}";
}
);
background = {
paths = (
{
closed = 1;
nodes = (
"538 606 LINE",
"819 606 LINE",
"819 740 LINE",
"538 740 LINE"
);
},
{
closed = 1;
nodes = (
"759 629 LINE",
"597 629 LINE",
"597 244 LINE",
"612 238 LINE",
"295 741 LINE",
"56 741 LINE",
"56 606 LINE",
"132 606 LINE",
"132 112 LINE",
"294 112 LINE",
"294 533 LINE",
"268 511 LINE",
"597 0 LINE",
"759 0 LINE"
);
},
{
closed = 1;
nodes = (
"55 0 LINE",
"351 0 LINE",
"351 134 LINE",
"55 134 LINE"
);
}
);
};
components = (
{
name = serif.top;
transform = "{0.85, 0, 0, 1, 464, 40}";
},
{
name = serif.bot;
transform = "{0.85, 0, 0, 1, -4, 0}";
},
{
name = N.alt1;
}
);
layerId = UUID0;
width = 829;
},
{
anchors = (
{
name = top;
position = "{403, 740}";
}
);
background = {
paths = (
{
closed = 1;
nodes = (
"526 656 LINE",
"766 656 LINE",
"766 740 LINE",
"526 740 LINE"
);
},
{
closed = 1;
nodes = (
"703 682 LINE",
"609 682 LINE",
"609 106 LINE",
"624 104 LINE",
"267 741 LINE",
"72 741 LINE",
"72 656 LINE",
"138 656 LINE",
"138 60 LINE",
"234 60 LINE",
"234 648 LINE",
"215 648 LINE",
"578 0 LINE",
"703 0 LINE"
);
},
{
closed = 1;
nodes = (
"70 0 LINE",
"310 0 LINE",
"310 84 LINE",
"70 84 LINE"
);
}
);
};
components = (
{
name = serif.top;
transform = "{1, 0, 0, 1, 443, 40}";
},
{
name = serif.bot;
transform = "{1, 0, 0, 1, -13, 0}";
},
{
name = N.alt1;
transform = "{1, 0, 0, 1, 20, 0}";
}
);
layerId = UUID1;
width = 784;
}
);
unicode = 004E;
},
{
color = 4;
glyphname = Ntilde;
lastChange = "2016-08-14 17:38:38 +0000";
layers = (
{
background = {
paths = (
{
closed = 1;
nodes = (
"538 606 LINE",
"819 606 LINE",
"819 740 LINE",
"538 740 LINE"
);
},
{
closed = 1;
nodes = (
"759 629 LINE",
"597 629 LINE",
"597 244 LINE",
"612 238 LINE",
"295 741 LINE",
"56 741 LINE",
"56 606 LINE",
"132 606 LINE",
"132 112 LINE",
"294 112 LINE",
"294 533 LINE",
"268 511 LINE",
"597 0 LINE",
"759 0 LINE"
);
},
{
closed = 1;
nodes = (
"55 0 LINE",
"351 0 LINE",
"351 134 LINE",
"55 134 LINE"
);
},
{
closed = 1;
nodes = (
"290 956 OFFCURVE",
"214 921 OFFCURVE",
"196 851 CURVE",
"270 817 LINE",
"283 834 OFFCURVE",
"303 848 OFFCURVE",
"332 848 CURVE SMOOTH",
"384 848 OFFCURVE",
"422 805 OFFCURVE",
"490 805 CURVE SMOOTH",
"551 805 OFFCURVE",
"604 851 OFFCURVE",
"624 910 CURVE",
"547 944 LINE",
"530 919 OFFCURVE",
"509 911 OFFCURVE",
"482 911 CURVE SMOOTH",
"437 911 OFFCURVE",
"389 956 OFFCURVE",
"335 956 CURVE SMOOTH"
);
}
);
};
components = (
{
name = serif.top;
transform = "{0.85, 0, 0, 1, 464, 40}";
},
{
name = serif.bot;
transform = "{0.85, 0, 0, 1, -4, 0}";
},
{
name = N.alt1;
},
{
name = tilde;
transform = "{1, 0, 0, 1, 191, 234}";
}
);
layerId = UUID0;
width = 829;
},
{
background = {
paths = (
{
closed = 1;
nodes = (
"526 656 LINE",
"766 656 LINE",
"766 740 LINE",
"526 740 LINE"
);
},
{
closed = 1;
nodes = (
"703 682 LINE",
"609 682 LINE",
"609 106 LINE",
"624 104 LINE",
"267 741 LINE",
"72 741 LINE",
"72 656 LINE",
"138 656 LINE",
"138 60 LINE",
"234 60 LINE",
"234 648 LINE",
"215 648 LINE",
"578 0 LINE",
"703 0 LINE"
);
},
{
closed = 1;
nodes = (
"70 0 LINE",
"310 0 LINE",
"310 84 LINE",
"70 84 LINE"
);
},
{
closed = 1;
nodes = (
"295 925 OFFCURVE",
"247 906 OFFCURVE",
"230 845 CURVE",
"283 819 LINE",
"293 855 OFFCURVE",
"317 857 OFFCURVE",
"336 857 CURVE SMOOTH",
"379 857 OFFCURVE",
"404 809 OFFCURVE",
"476 809 CURVE SMOOTH",
"529 809 OFFCURVE",
"569 841 OFFCURVE",
"582 896 CURVE",
"524 913 LINE",
"518 886 OFFCURVE",
"498 874 OFFCURVE",
"480 874 CURVE SMOOTH",
"429 874 OFFCURVE",
"405 925 OFFCURVE",
"340 925 CURVE SMOOTH"
);
}
);
};
components = (
{
name = serif.top;
transform = "{1, 0, 0, 1, 423, 40}";
},
{
name = serif.bot;
transform = "{1, 0, 0, 1, -33, 0}";
},
{
name = N.alt1;
},
{
name = tilde;
transform = "{1, 0, 0, 1, 167, 234}";
}
);
layerId = UUID1;
width = 764;
}
);
unicode = 00D1;
},
{
color = 4;
glyphname = O;
lastChange = "2016-08-14 20:17:32 +0000";
layers = (
{
anchors = (
{
name = bottom;
position = "{391, 0}";
},
{
name = center;
position = "{391, 370}";
},
{
name = ogonek;
position = "{703, 10}";
},
{
name = top;
position = "{387, 740}";
},
{
name = topleft;
position = "{20, 740}";
},
{
name = topright;
position = "{761, 740}";
}
);
background = {
paths = (
{
closed = 1;
nodes = (
"591 -13 OFFCURVE",
"749 158 OFFCURVE",
"749 370 CURVE SMOOTH",
"749 583 OFFCURVE",
"591 754 OFFCURVE",
"390 754 CURVE SMOOTH",
"190 754 OFFCURVE",
"32 583 OFFCURVE",
"32 370 CURVE SMOOTH",
"32 158 OFFCURVE",
"190 -13 OFFCURVE",
"390 -13 CURVE SMOOTH"
);
},
{
closed = 1;
nodes = (
"279 140 OFFCURVE",
"198 245 OFFCURVE",
"198 370 CURVE SMOOTH",
"198 496 OFFCURVE",
"279 601 OFFCURVE",
"390 601 CURVE SMOOTH",
"502 601 OFFCURVE",
"582 496 OFFCURVE",
"582 370 CURVE SMOOTH",
"582 245 OFFCURVE",
"504 140 OFFCURVE",
"390 140 CURVE SMOOTH"
);
}
);
};
hints = (
{
origin = "{0, 9}";
target = "{1, 3}";
},
{
origin = "{1, 9}";
target = "{0, 3}";
},
{
horizontal = 1;
origin = "{1, 6}";
target = "{0, 6}";
},
{
horizontal = 1;
origin = "{0, 0}";
target = "{1, 0}";
}
);
layerId = UUID0;
paths = (
{
closed = 1;
nodes = (
"591 -13 OFFCURVE",
"749 158 OFFCURVE",
"749 370 CURVE SMOOTH",
"749 583 OFFCURVE",
"591 754 OFFCURVE",
"390 754 CURVE SMOOTH",
"190 754 OFFCURVE",
"32 583 OFFCURVE",
"32 370 CURVE SMOOTH",
"32 158 OFFCURVE",
"190 -13 OFFCURVE",
"390 -13 CURVE SMOOTH"
);
},
{
closed = 1;
nodes = (
"279 140 OFFCURVE",
"198 245 OFFCURVE",
"198 370 CURVE SMOOTH",
"198 496 OFFCURVE",
"279 601 OFFCURVE",
"390 601 CURVE SMOOTH",
"502 601 OFFCURVE",
"582 496 OFFCURVE",
"582 370 CURVE SMOOTH",
"582 245 OFFCURVE",
"504 140 OFFCURVE",
"390 140 CURVE SMOOTH"
);
}
);
width = 781;
},
{
anchors = (
{
name = bottom;
position = "{391, 0}";
},
{
name = center;
position = "{391, 370}";
},
{
name = ogonek;
position = "{704, 10}";
},
{
name = top;
position = "{389, 740}";
},
{
name = topleft;
position = "{20, 740}";
},
{
name = topright;
position = "{762, 740}";
}
);
background = {
paths = (
{
closed = 1;
nodes = (
"599 -15 OFFCURVE",
"746 157 OFFCURVE",
"746 370 CURVE SMOOTH",
"746 584 OFFCURVE",
"601 755 OFFCURVE",
"391 755 CURVE SMOOTH",
"183 755 OFFCURVE",
"35 584 OFFCURVE",
"35 370 CURVE SMOOTH",
"35 157 OFFCURVE",
"182 -15 OFFCURVE",
"391 -15 CURVE SMOOTH"
);
},
{
closed = 1;
nodes = (
"237 77 OFFCURVE",
"135 213 OFFCURVE",
"135 370 CURVE SMOOTH",
"135 527 OFFCURVE",
"236 664 OFFCURVE",
"391 664 CURVE SMOOTH",
"545 664 OFFCURVE",
"645 526 OFFCURVE",
"645 370 CURVE SMOOTH",
"645 213 OFFCURVE",
"546 77 OFFCURVE",
"391 77 CURVE SMOOTH"
);
}
);
};
hints = (
{
origin = "{0, 9}";
target = "{1, 3}";
},
{
origin = "{1, 9}";
target = "{0, 3}";
},
{
horizontal = 1;
origin = "{1, 6}";
target = "{0, 6}";
},
{
horizontal = 1;
origin = "{0, 0}";
target = "{1, 0}";
}
);
layerId = UUID1;
paths = (
{
closed = 1;
nodes = (
"600 -15 OFFCURVE",
"747 157 OFFCURVE",
"747 370 CURVE SMOOTH",
"747 584 OFFCURVE",
"602 755 OFFCURVE",
"392 755 CURVE SMOOTH",
"184 755 OFFCURVE",
"37 584 OFFCURVE",
"37 370 CURVE SMOOTH",
"37 157 OFFCURVE",
"183 -15 OFFCURVE",
"392 -15 CURVE SMOOTH"
);
},
{
closed = 1;
nodes = (
"238 77 OFFCURVE",
"137 213 OFFCURVE",
"137 370 CURVE SMOOTH",
"137 527 OFFCURVE",
"237 664 OFFCURVE",
"392 664 CURVE SMOOTH",
"546 664 OFFCURVE",
"646 526 OFFCURVE",
"646 370 CURVE SMOOTH",
"646 213 OFFCURVE",
"547 77 OFFCURVE",
"392 77 CURVE SMOOTH"
);
}
);
width = 782;
}
);
unicode = 004F;
},
{
color = 4;
glyphname = Oacute;
lastChange = "2016-08-14 18:14:25 +0000";
layers = (
{
background = {
paths = (
{
closed = 1;
nodes = (
"591 -13 OFFCURVE",
"749 158 OFFCURVE",
"749 370 CURVE SMOOTH",
"749 583 OFFCURVE",
"591 754 OFFCURVE",
"390 754 CURVE SMOOTH",
"190 754 OFFCURVE",
"32 583 OFFCURVE",
"32 370 CURVE SMOOTH",
"32 158 OFFCURVE",
"190 -13 OFFCURVE",
"390 -13 CURVE SMOOTH"
);
},
{
closed = 1;
nodes = (
"279 140 OFFCURVE",
"198 245 OFFCURVE",
"198 370 CURVE SMOOTH",
"198 496 OFFCURVE",
"279 601 OFFCURVE",
"390 601 CURVE SMOOTH",
"502 601 OFFCURVE",
"582 496 OFFCURVE",
"582 370 CURVE SMOOTH",
"582 245 OFFCURVE",
"504 140 OFFCURVE",
"390 140 CURVE SMOOTH"
);
},
{
closed = 1;
nodes = (
"337 809 LINE",
"452 809 LINE",
"601 949 LINE",
"601 961 LINE",
"442 961 LINE"
);
}
);
};
components = (
{
name = O;
},
{
name = acute;
transform = "{1, 0, 0, 1, 317, 234}";
}
);
layerId = UUID0;
width = 781;
},
{
background = {
paths = (
{
closed = 1;
nodes = (
"599 -15 OFFCURVE",
"746 157 OFFCURVE",
"746 370 CURVE SMOOTH",
"746 584 OFFCURVE",
"601 755 OFFCURVE",
"391 755 CURVE SMOOTH",
"183 755 OFFCURVE",
"35 584 OFFCURVE",
"35 370 CURVE SMOOTH",
"35 157 OFFCURVE",
"182 -15 OFFCURVE",
"391 -15 CURVE SMOOTH"
);
},
{
closed = 1;
nodes = (
"237 77 OFFCURVE",
"135 213 OFFCURVE",
"135 370 CURVE SMOOTH",
"135 527 OFFCURVE",
"236 664 OFFCURVE",
"391 664 CURVE SMOOTH",
"545 664 OFFCURVE",
"645 526 OFFCURVE",
"645 370 CURVE SMOOTH",
"645 213 OFFCURVE",
"546 77 OFFCURVE",
"391 77 CURVE SMOOTH"
);
},
{
closed = 1;
nodes = (
"321 809 LINE",
"396 809 LINE",
"542 947 LINE",
"542 955 LINE",
"425 955 LINE"
);
}
);
};
components = (
{
name = O;
},
{
name = acute;
transform = "{1, 0, 0, 1, 280, 234}";
}
);
layerId = UUID1;
width = 782;
}
);
unicode = 00D3;
},
{
color = 4;
glyphname = Ocircumflex;
lastChange = "2016-08-14 20:05:43 +0000";
layers = (
{
background = {
paths = (
{
closed = 1;
nodes = (
"591 -13 OFFCURVE",
"749 158 OFFCURVE",
"749 370 CURVE SMOOTH",
"749 583 OFFCURVE",
"591 754 OFFCURVE",
"390 754 CURVE SMOOTH",
"190 754 OFFCURVE",
"32 583 OFFCURVE",
"32 370 CURVE SMOOTH",
"32 158 OFFCURVE",
"190 -13 OFFCURVE",
"390 -13 CURVE SMOOTH"
);
},
{
closed = 1;
nodes = (
"279 140 OFFCURVE",
"198 245 OFFCURVE",
"198 370 CURVE SMOOTH",
"198 496 OFFCURVE",
"279 601 OFFCURVE",
"390 601 CURVE SMOOTH",
"502 601 OFFCURVE",
"582 496 OFFCURVE",
"582 370 CURVE SMOOTH",
"582 245 OFFCURVE",
"504 140 OFFCURVE",
"390 140 CURVE SMOOTH"
);
},
{
closed = 1;
nodes = (
"213 808 LINE",
"346 967 LINE",
"463 967 LINE",
"597 808 LINE",
"477 808 LINE",
"405 883 LINE",
"334 808 LINE"
);
}
);
};
components = (
{
name = O;
},
{
name = circumflex;
transform = "{1, 0, 0, 1, 171, 234}";
}
);
layerId = UUID0;
width = 781;
},
{
background = {
paths = (
{
closed = 1;
nodes = (
"599 -15 OFFCURVE",
"746 157 OFFCURVE",
"746 370 CURVE SMOOTH",
"746 584 OFFCURVE",
"601 755 OFFCURVE",
"391 755 CURVE SMOOTH",
"183 755 OFFCURVE",
"35 584 OFFCURVE",
"35 370 CURVE SMOOTH",
"35 157 OFFCURVE",
"182 -15 OFFCURVE",
"391 -15 CURVE SMOOTH"
);
},
{
closed = 1;
nodes = (
"237 77 OFFCURVE",
"135 213 OFFCURVE",
"135 370 CURVE SMOOTH",
"135 527 OFFCURVE",
"236 664 OFFCURVE",
"391 664 CURVE SMOOTH",
"545 664 OFFCURVE",
"645 526 OFFCURVE",
"645 370 CURVE SMOOTH",
"645 213 OFFCURVE",
"546 77 OFFCURVE",
"391 77 CURVE SMOOTH"
);
},
{
closed = 1;
nodes = (
"263 808 LINE",
"385 961 LINE",
"416 961 LINE",
"539 808 LINE",
"466 808 LINE",
"401 884 LINE",
"335 808 LINE"
);
}
);
};
components = (
{
name = O;
},
{
name = circumflex;
transform = "{1, 0, 0, 1, 157, 234}";
}
);
layerId = UUID1;
width = 782;
}
);
unicode = 00D4;
},
{
color = 4;
glyphname = Odieresis;
lastChange = "2016-10-12 15:33:50 +0000";
layers = (
{
background = {
paths = (
{
closed = 1;
nodes = (
"192 812 OFFCURVE",
"226 777 OFFCURVE",
"269 777 CURVE SMOOTH",
"310 777 OFFCURVE",
"345 812 OFFCURVE",
"345 854 CURVE SMOOTH",
"345 896 OFFCURVE",
"310 931 OFFCURVE",
"269 931 CURVE SMOOTH",
"226 931 OFFCURVE",
"192 896 OFFCURVE",
"192 854 CURVE SMOOTH"
);
},
{
closed = 1;
nodes = (
"426 812 OFFCURVE",
"460 777 OFFCURVE",
"503 777 CURVE SMOOTH",
"544 777 OFFCURVE",
"579 812 OFFCURVE",
"579 854 CURVE SMOOTH",
"579 896 OFFCURVE",
"544 931 OFFCURVE",
"503 931 CURVE SMOOTH",
"460 931 OFFCURVE",
"426 896 OFFCURVE",
"426 854 CURVE SMOOTH"
);
},
{
closed = 1;
nodes = (
"591 -13 OFFCURVE",
"749 158 OFFCURVE",
"749 370 CURVE SMOOTH",
"749 583 OFFCURVE",
"591 754 OFFCURVE",
"390 754 CURVE SMOOTH",
"190 754 OFFCURVE",
"32 583 OFFCURVE",
"32 370 CURVE SMOOTH",
"32 158 OFFCURVE",
"190 -13 OFFCURVE",
"390 -13 CURVE SMOOTH"
);
},
{
closed = 1;
nodes = (
"279 140 OFFCURVE",
"198 245 OFFCURVE",
"198 370 CURVE SMOOTH",
"198 496 OFFCURVE",
"279 601 OFFCURVE",
"390 601 CURVE SMOOTH",
"502 601 OFFCURVE",
"582 496 OFFCURVE",
"582 370 CURVE SMOOTH",
"582 245 OFFCURVE",
"504 140 OFFCURVE",
"390 140 CURVE SMOOTH"
);
}
);
};
components = (
{
name = O;
},
{
name = dieresiscomb;
transform = "{1, 0, 0, 1, 83, 234}";
}
);
layerId = UUID0;
width = 781;
},
{
background = {
paths = (
{
closed = 1;
nodes = (
"187 863 OFFCURVE",
"216 833 OFFCURVE",
"250 833 CURVE SMOOTH",
"283 833 OFFCURVE",
"311 863 OFFCURVE",
"311 898 CURVE SMOOTH",
"311 932 OFFCURVE",
"283 961 OFFCURVE",
"250 961 CURVE SMOOTH",
"216 961 OFFCURVE",
"187 932 OFFCURVE",
"187 898 CURVE SMOOTH"
);
},
{
closed = 1;
nodes = (
"411 863 OFFCURVE",
"440 833 OFFCURVE",
"474 833 CURVE SMOOTH",
"507 833 OFFCURVE",
"535 863 OFFCURVE",
"535 898 CURVE SMOOTH",
"535 932 OFFCURVE",
"507 961 OFFCURVE",
"474 961 CURVE SMOOTH",
"440 961 OFFCURVE",
"411 932 OFFCURVE",
"411 898 CURVE SMOOTH"
);
},
{
closed = 1;
nodes = (
"599 -15 OFFCURVE",
"746 157 OFFCURVE",
"746 370 CURVE SMOOTH",
"746 584 OFFCURVE",
"601 755 OFFCURVE",
"391 755 CURVE SMOOTH",
"183 755 OFFCURVE",
"35 584 OFFCURVE",
"35 370 CURVE SMOOTH",
"35 157 OFFCURVE",
"182 -15 OFFCURVE",
"391 -15 CURVE SMOOTH"
);
},
{
closed = 1;
nodes = (
"237 77 OFFCURVE",
"135 213 OFFCURVE",
"135 370 CURVE SMOOTH",
"135 527 OFFCURVE",
"236 664 OFFCURVE",
"391 664 CURVE SMOOTH",
"545 664 OFFCURVE",
"645 526 OFFCURVE",
"645 370 CURVE SMOOTH",
"645 213 OFFCURVE",
"546 77 OFFCURVE",
"391 77 CURVE SMOOTH"
);
}
);
};
components = (
{
name = O;
},
{
name = dieresiscomb;
transform = "{1, 0, 0, 1, 119, 234}";
}
);
layerId = UUID1;
width = 782;
}
);
unicode = 00D6;
},
{
color = 4;
glyphname = Ograve;
lastChange = "2016-08-14 18:06:16 +0000";
layers = (
{
background = {
paths = (
{
closed = 1;
nodes = (
"591 -13 OFFCURVE",
"749 158 OFFCURVE",
"749 370 CURVE SMOOTH",
"749 583 OFFCURVE",
"591 754 OFFCURVE",
"390 754 CURVE SMOOTH",
"190 754 OFFCURVE",
"32 583 OFFCURVE",
"32 370 CURVE SMOOTH",
"32 158 OFFCURVE",
"190 -13 OFFCURVE",
"390 -13 CURVE SMOOTH"
);
},
{
closed = 1;
nodes = (
"279 140 OFFCURVE",
"198 245 OFFCURVE",
"198 370 CURVE SMOOTH",
"198 496 OFFCURVE",
"279 601 OFFCURVE",
"390 601 CURVE SMOOTH",
"502 601 OFFCURVE",
"582 496 OFFCURVE",
"582 370 CURVE SMOOTH",
"582 245 OFFCURVE",
"504 140 OFFCURVE",
"390 140 CURVE SMOOTH"
);
},
{
closed = 1;
nodes = (
"347 809 LINE",
"204 949 LINE",
"204 961 LINE",
"363 961 LINE",
"459 809 LINE"
);
}
);
};
components = (
{
name = O;
},
{
name = grave;
transform = "{1, 0, 0, 1, 122, 234}";
}
);
layerId = UUID0;
width = 781;
},
{
background = {
paths = (
{
closed = 1;
nodes = (
"599 -15 OFFCURVE",
"746 157 OFFCURVE",
"746 370 CURVE SMOOTH",
"746 584 OFFCURVE",
"601 755 OFFCURVE",
"391 755 CURVE SMOOTH",
"183 755 OFFCURVE",
"35 584 OFFCURVE",
"35 370 CURVE SMOOTH",
"35 157 OFFCURVE",
"182 -15 OFFCURVE",
"391 -15 CURVE SMOOTH"
);
},
{
closed = 1;
nodes = (
"237 77 OFFCURVE",
"135 213 OFFCURVE",
"135 370 CURVE SMOOTH",
"135 527 OFFCURVE",
"236 664 OFFCURVE",
"391 664 CURVE SMOOTH",
"545 664 OFFCURVE",
"645 526 OFFCURVE",
"645 370 CURVE SMOOTH",
"645 213 OFFCURVE",
"546 77 OFFCURVE",
"391 77 CURVE SMOOTH"
);
},
{
closed = 1;
nodes = (
"354 809 LINE",
"214 947 LINE",
"214 955 LINE",
"335 955 LINE",
"425 809 LINE"
);
}
);
};
components = (
{
name = O;
},
{
name = grave;
transform = "{1, 0, 0, 1, 124, 234}";
}
);
layerId = UUID1;
width = 782;
}
);
unicode = 00D2;
},
{
color = 4;
glyphname = Oslash;
lastChange = "2016-08-14 20:17:53 +0000";
layers = (
{
background = {
paths = (
{
closed = 1;
nodes = (
"591 -13 OFFCURVE",
"749 158 OFFCURVE",
"749 370 CURVE SMOOTH",
"749 583 OFFCURVE",
"591 754 OFFCURVE",
"390 754 CURVE SMOOTH",
"190 754 OFFCURVE",
"32 583 OFFCURVE",
"32 370 CURVE SMOOTH",
"32 158 OFFCURVE",
"190 -13 OFFCURVE",
"390 -13 CURVE SMOOTH"
);
},
{
closed = 1;
nodes = (
"279 140 OFFCURVE",
"198 245 OFFCURVE",
"198 370 CURVE SMOOTH",
"198 496 OFFCURVE",
"279 601 OFFCURVE",
"390 601 CURVE SMOOTH",
"502 601 OFFCURVE",
"582 496 OFFCURVE",
"582 370 CURVE SMOOTH",
"582 245 OFFCURVE",
"504 140 OFFCURVE",
"390 140 CURVE SMOOTH"
);
},
{
closed = 1;
nodes = (
"27 -12 LINE",
"155 -12 LINE",
"763 788 LINE",
"638 788 LINE"
);
}
);
};
components = (
{
name = O;
},
{
alignment = -1;
name = fraction;
transform = "{1, 0, 0, 1, -19, 0}";
}
);
layerId = UUID0;
width = 781;
},
{
background = {
paths = (
{
closed = 1;
nodes = (
"599 -15 OFFCURVE",
"746 157 OFFCURVE",
"746 370 CURVE SMOOTH",
"746 584 OFFCURVE",
"601 755 OFFCURVE",
"391 755 CURVE SMOOTH",
"183 755 OFFCURVE",
"35 584 OFFCURVE",
"35 370 CURVE SMOOTH",
"35 157 OFFCURVE",
"182 -15 OFFCURVE",
"391 -15 CURVE SMOOTH"
);
},
{
closed = 1;
nodes = (
"237 77 OFFCURVE",
"135 213 OFFCURVE",
"135 370 CURVE SMOOTH",
"135 527 OFFCURVE",
"236 664 OFFCURVE",
"391 664 CURVE SMOOTH",
"545 664 OFFCURVE",
"645 526 OFFCURVE",
"645 370 CURVE SMOOTH",
"645 213 OFFCURVE",
"546 77 OFFCURVE",
"391 77 CURVE SMOOTH"
);
},
{
closed = 1;
nodes = (
"30 -16 LINE",
"127 -16 LINE",
"750 784 LINE",
"653 784 LINE"
);
}
);
};
components = (
{
name = O;
},
{
alignment = -1;
name = fraction;
transform = "{1, 0, 0, 1, -19, 0}";
}
);
layerId = UUID1;
width = 782;
}
);
rightMetricsKey = O;
unicode = 00D8;
},
{
color = 4;
glyphname = Otilde;
lastChange = "2016-08-14 18:49:45 +0000";
layers = (
{
background = {
paths = (
{
closed = 1;
nodes = (
"591 -13 OFFCURVE",
"749 158 OFFCURVE",
"749 370 CURVE SMOOTH",
"749 583 OFFCURVE",
"591 754 OFFCURVE",
"390 754 CURVE SMOOTH",
"190 754 OFFCURVE",
"32 583 OFFCURVE",
"32 370 CURVE SMOOTH",
"32 158 OFFCURVE",
"190 -13 OFFCURVE",
"390 -13 CURVE SMOOTH"
);
},
{
closed = 1;
nodes = (
"279 140 OFFCURVE",
"198 245 OFFCURVE",
"198 370 CURVE SMOOTH",
"198 496 OFFCURVE",
"279 601 OFFCURVE",
"390 601 CURVE SMOOTH",
"502 601 OFFCURVE",
"582 496 OFFCURVE",
"582 370 CURVE SMOOTH",
"582 245 OFFCURVE",
"504 140 OFFCURVE",
"390 140 CURVE SMOOTH"
);
},
{
closed = 1;
nodes = (
"260 956 OFFCURVE",
"184 921 OFFCURVE",
"166 851 CURVE",
"240 817 LINE",
"253 834 OFFCURVE",
"273 848 OFFCURVE",
"302 848 CURVE SMOOTH",
"354 848 OFFCURVE",
"392 805 OFFCURVE",
"460 805 CURVE SMOOTH",
"521 805 OFFCURVE",
"574 851 OFFCURVE",
"594 910 CURVE",
"517 944 LINE",
"500 919 OFFCURVE",
"479 911 OFFCURVE",
"452 911 CURVE SMOOTH",
"407 911 OFFCURVE",
"359 956 OFFCURVE",
"305 956 CURVE SMOOTH"
);
}
);
};
components = (
{
name = O;
},
{
name = tilde;
transform = "{1, 0, 0, 1, 161, 234}";
}
);
layerId = UUID0;
width = 781;
},
{
background = {
paths = (
{
closed = 1;
nodes = (
"599 -15 OFFCURVE",
"746 157 OFFCURVE",
"746 370 CURVE SMOOTH",
"746 584 OFFCURVE",
"601 755 OFFCURVE",
"391 755 CURVE SMOOTH",
"183 755 OFFCURVE",
"35 584 OFFCURVE",
"35 370 CURVE SMOOTH",
"35 157 OFFCURVE",
"182 -15 OFFCURVE",
"391 -15 CURVE SMOOTH"
);
},
{
closed = 1;
nodes = (
"237 77 OFFCURVE",
"135 213 OFFCURVE",
"135 370 CURVE SMOOTH",
"135 527 OFFCURVE",
"236 664 OFFCURVE",
"391 664 CURVE SMOOTH",
"545 664 OFFCURVE",
"645 526 OFFCURVE",
"645 370 CURVE SMOOTH",
"645 213 OFFCURVE",
"546 77 OFFCURVE",
"391 77 CURVE SMOOTH"
);
},
{
closed = 1;
nodes = (
"281 925 OFFCURVE",
"233 906 OFFCURVE",
"216 845 CURVE",
"269 819 LINE",
"279 855 OFFCURVE",
"303 857 OFFCURVE",
"322 857 CURVE SMOOTH",
"365 857 OFFCURVE",
"390 809 OFFCURVE",
"462 809 CURVE SMOOTH",
"515 809 OFFCURVE",
"555 841 OFFCURVE",
"568 896 CURVE",
"510 913 LINE",
"504 886 OFFCURVE",
"484 874 OFFCURVE",
"466 874 CURVE SMOOTH",
"415 874 OFFCURVE",
"391 925 OFFCURVE",
"326 925 CURVE SMOOTH"
);
}
);
};
components = (
{
name = O;
},
{
name = tilde;
transform = "{1, 0, 0, 1, 173, 234}";
}
);
layerId = UUID1;
width = 782;
}
);
unicode = 00D5;
},
{
color = 4;
glyphname = OE;
lastChange = "2016-08-14 20:23:35 +0000";
layers = (
{
background = {
paths = (
{
closed = 1;
nodes = (
"588 0 LINE",
"1100 0 LINE",
"1100 265 LINE",
"941 265 LINE",
"941 134 LINE",
"751 134 LINE",
"751 593 LINE",
"941 593 LINE",
"941 488 LINE",
"1100 488 LINE",
"1100 740 LINE",
"588 740 LINE"
);
},
{
closed = 1;
nodes = (
"638 305 LINE",
"898 305 LINE",
"898 447 LINE",
"638 447 LINE"
);
},
{
closed = 1;
nodes = (
"591 -13 OFFCURVE",
"749 158 OFFCURVE",
"749 370 CURVE SMOOTH",
"749 583 OFFCURVE",
"591 754 OFFCURVE",
"390 754 CURVE SMOOTH",
"190 754 OFFCURVE",
"32 583 OFFCURVE",
"32 370 CURVE SMOOTH",
"32 158 OFFCURVE",
"190 -13 OFFCURVE",
"390 -13 CURVE SMOOTH"
);
},
{
closed = 1;
nodes = (
"279 140 OFFCURVE",
"198 245 OFFCURVE",
"198 370 CURVE SMOOTH",
"198 496 OFFCURVE",
"279 601 OFFCURVE",
"390 601 CURVE SMOOTH",
"502 601 OFFCURVE",
"582 496 OFFCURVE",
"582 370 CURVE SMOOTH",
"582 245 OFFCURVE",
"504 140 OFFCURVE",
"390 140 CURVE SMOOTH"
);
}
);
};
components = (
{
name = O;
}
);
layerId = UUID0;
paths = (
{
closed = 1;
nodes = (
"1100 0 LINE",
"1100 265 LINE",
"941 265 LINE",
"941 134 LINE",
"751 134 LINE",
"751 593 LINE",
"941 593 LINE",
"941 488 LINE",
"1100 488 LINE",
"1100 740 LINE",
"588 740 LINE",
"588 0 LINE"
);
},
{
closed = 1;
nodes = (
"898 305 LINE",
"898 447 LINE",
"638 447 LINE",
"638 305 LINE"
);
}
);
width = 1130;
},
{
background = {
paths = (
{
closed = 1;
nodes = (
"652 0 LINE",
"1112 0 LINE",
"1112 209 LINE",
"1012 209 LINE",
"1012 84 LINE",
"748 84 LINE",
"748 656 LINE",
"1012 656 LINE",
"1012 531 LINE",
"1112 531 LINE",
"1112 740 LINE",
"652 740 LINE"
);
},
{
closed = 1;
nodes = (
"706 335 LINE",
"970 335 LINE",
"970 419 LINE",
"706 419 LINE"
);
},
{
closed = 1;
nodes = (
"599 -15 OFFCURVE",
"746 157 OFFCURVE",
"746 370 CURVE SMOOTH",
"746 584 OFFCURVE",
"601 755 OFFCURVE",
"391 755 CURVE SMOOTH",
"183 755 OFFCURVE",
"35 584 OFFCURVE",
"35 370 CURVE SMOOTH",
"35 157 OFFCURVE",
"182 -15 OFFCURVE",
"391 -15 CURVE SMOOTH"
);
},
{
closed = 1;
nodes = (
"237 77 OFFCURVE",
"135 213 OFFCURVE",
"135 370 CURVE SMOOTH",
"135 527 OFFCURVE",
"236 664 OFFCURVE",
"391 664 CURVE SMOOTH",
"545 664 OFFCURVE",
"645 526 OFFCURVE",
"645 370 CURVE SMOOTH",
"645 213 OFFCURVE",
"546 77 OFFCURVE",
"391 77 CURVE SMOOTH"
);
}
);
};
components = (
{
name = O;
}
);
layerId = UUID1;
paths = (
{
closed = 1;
nodes = (
"1112 0 LINE",
"1112 209 LINE",
"1012 209 LINE",
"1012 84 LINE",
"748 84 LINE",
"748 656 LINE",
"1012 656 LINE",
"1012 531 LINE",
"1112 531 LINE",
"1112 740 LINE",
"652 740 LINE",
"652 0 LINE"
);
},
{
closed = 1;
nodes = (
"970 335 LINE",
"970 419 LINE",
"706 419 LINE",
"706 335 LINE"
);
}
);
width = 1140;
}
);
unicode = 0152;
},
{
color = 4;
glyphname = P;
lastChange = "2016-08-14 20:23:35 +0000";
layers = (
{
anchors = (
{
name = top;
position = "{343, 700}";
}
);
background = {
paths = (
{
closed = 1;
nodes = (
"55 606 LINE",
"361 606 LINE SMOOTH",
"440 606 OFFCURVE",
"482 568 OFFCURVE",
"482 505 CURVE SMOOTH",
"482 437 OFFCURVE",
"435 407 OFFCURVE",
"361 407 CURVE SMOOTH",
"174 407 LINE",
"174 275 LINE",
"397 275 LINE SMOOTH",
"577 275 OFFCURVE",
"658 384 OFFCURVE",
"658 522 CURVE SMOOTH",
"658 637 OFFCURVE",
"549 740 OFFCURVE",
"397 740 CURVE SMOOTH",
"55 740 LINE"
);
},
{
closed = 1;
nodes = (
"294 61 LINE",
"294 665 LINE",
"132 665 LINE",
"132 61 LINE"
);
},
{
closed = 1;
nodes = (
"55 0 LINE",
"362 0 LINE",
"362 134 LINE",
"55 134 LINE"
);
}
);
};
components = (
{
name = uc.stem;
transform = "{1, 0, 0, 1, -10, 0}";
},
{
name = serif.bot;
transform = "{0.93, 0, 0, 1, -10, 0}";
}
);
hints = (
{
origin = "{0, 12}";
target = "{0, 3}";
}
);
layerId = UUID0;
paths = (
{
closed = 1;
nodes = (
"397 275 LINE SMOOTH",
"577 275 OFFCURVE",
"658 384 OFFCURVE",
"658 522 CURVE SMOOTH",
"658 637 OFFCURVE",
"549 740 OFFCURVE",
"397 740 CURVE SMOOTH",
"55 740 LINE",
"55 606 LINE",
"361 606 LINE SMOOTH",
"440 606 OFFCURVE",
"482 568 OFFCURVE",
"482 505 CURVE SMOOTH",
"482 437 OFFCURVE",
"435 407 OFFCURVE",
"361 407 CURVE SMOOTH",
"174 407 LINE",
"174 275 LINE"
);
}
);
width = 634;
},
{
anchors = (
{
name = top;
position = "{334, 700}";
}
);
background = {
paths = (
{
closed = 1;
nodes = (
"70 656 LINE",
"358 656 LINE SMOOTH",
"455 656 OFFCURVE",
"496 613 OFFCURVE",
"496 540 CURVE SMOOTH",
"496 463 OFFCURVE",
"444 423 OFFCURVE",
"370 423 CURVE SMOOTH",
"185 423 LINE",
"185 343 LINE",
"368 343 LINE SMOOTH",
"506 343 OFFCURVE",
"597 432 OFFCURVE",
"597 540 CURVE SMOOTH",
"597 671 OFFCURVE",
"502 740 OFFCURVE",
"370 740 CURVE SMOOTH",
"70 740 LINE"
);
},
{
closed = 1;
nodes = (
"236 51 LINE",
"236 685 LINE",
"140 685 LINE",
"140 51 LINE"
);
},
{
closed = 1;
nodes = (
"72 0 LINE",
"312 0 LINE",
"312 84 LINE",
"72 84 LINE"
);
}
);
};
components = (
{
name = uc.stem;
transform = "{1, 0, 0, 1, 5, 0}";
},
{
name = serif.bot;
transform = "{1, 0, 0, 1, -11, 0}";
}
);
hints = (
{
origin = "{0, 12}";
target = "{0, 3}";
}
);
layerId = UUID1;
paths = (
{
closed = 1;
nodes = (
"379 343 LINE SMOOTH",
"517 343 OFFCURVE",
"609 432 OFFCURVE",
"609 540 CURVE SMOOTH",
"609 671 OFFCURVE",
"513 740 OFFCURVE",
"381 740 CURVE SMOOTH",
"70 741 LINE",
"70 656 LINE",
"369 656 LINE SMOOTH",
"466 656 OFFCURVE",
"508 613 OFFCURVE",
"508 540 CURVE SMOOTH",
"508 463 OFFCURVE",
"455 423 OFFCURVE",
"381 423 CURVE SMOOTH",
"185 423 LINE",
"185 343 LINE"
);
}
);
width = 633;
}
);
unicode = 0050;
},
{
color = 4;
glyphname = Thorn;
lastChange = "2016-08-14 20:23:35 +0000";
layers = (
{
anchors = (
{
name = top;
position = "{210, 740}";
}
);
background = {
paths = (
{
closed = 1;
nodes = (
"199 449 LINE",
"361 449 LINE SMOOTH",
"440 449 OFFCURVE",
"482 419 OFFCURVE",
"482 368 CURVE SMOOTH",
"482 314 OFFCURVE",
"435 290 OFFCURVE",
"361 290 CURVE SMOOTH",
"174 290 LINE",
"174 158 LINE",
"397 158 LINE SMOOTH",
"577 158 OFFCURVE",
"658 259 OFFCURVE",
"658 369 CURVE SMOOTH",
"658 490 OFFCURVE",
"549 583 OFFCURVE",
"397 583 CURVE SMOOTH",
"199 583 LINE"
);
},
{
closed = 1;
nodes = (
"55 606 LINE",
"372 606 LINE",
"372 740 LINE",
"55 740 LINE"
);
},
{
closed = 1;
nodes = (
"294 61 LINE",
"294 665 LINE",
"132 665 LINE",
"132 61 LINE"
);
},
{
closed = 1;
nodes = (
"55 0 LINE",
"372 0 LINE",
"372 134 LINE",
"55 134 LINE"
);
}
);
};
components = (
{
name = serif.top;
transform = "{0.96, 0, 0, 1, -12, 40}";
},
{
name = uc.stem;
transform = "{1, 0, 0, 1, -10, 0}";
},
{
name = serif.bot;
transform = "{0.96, 0, 0, 1, -12, 0}";
}
);
layerId = UUID0;
paths = (
{
closed = 1;
nodes = (
"397 158 LINE SMOOTH",
"577 158 OFFCURVE",
"658 259 OFFCURVE",
"658 369 CURVE SMOOTH",
"658 490 OFFCURVE",
"549 583 OFFCURVE",
"397 583 CURVE SMOOTH",
"199 583 LINE",
"199 449 LINE",
"361 449 LINE SMOOTH",
"440 449 OFFCURVE",
"482 419 OFFCURVE",
"482 368 CURVE SMOOTH",
"482 314 OFFCURVE",
"435 290 OFFCURVE",
"361 290 CURVE SMOOTH",
"174 290 LINE",
"174 158 LINE"
);
}
);
width = 677;
},
{
anchors = (
{
name = top;
position = "{169, 740}";
}
);
background = {
paths = (
{
closed = 1;
nodes = (
"163 506 LINE",
"363 506 LINE SMOOTH",
"460 506 OFFCURVE",
"502 463 OFFCURVE",
"502 390 CURVE SMOOTH",
"502 313 OFFCURVE",
"449 273 OFFCURVE",
"375 273 CURVE SMOOTH",
"179 273 LINE",
"179 193 LINE",
"373 193 LINE SMOOTH",
"511 193 OFFCURVE",
"603 282 OFFCURVE",
"603 390 CURVE SMOOTH",
"603 521 OFFCURVE",
"507 590 OFFCURVE",
"375 590 CURVE SMOOTH",
"163 591 LINE"
);
},
{
closed = 1;
nodes = (
"52 656 LINE",
"292 656 LINE",
"292 740 LINE",
"52 740 LINE"
);
},
{
closed = 1;
nodes = (
"215 51 LINE",
"215 685 LINE",
"119 685 LINE",
"119 51 LINE"
);
},
{
closed = 1;
nodes = (
"51 0 LINE",
"291 0 LINE",
"291 84 LINE",
"51 84 LINE"
);
}
);
};
components = (
{
name = serif.top;
transform = "{1, 0, 0, 1, -31, 40}";
},
{
name = uc.stem;
transform = "{1, 0, 0, 1, -28, 0}";
},
{
name = serif.bot;
transform = "{1, 0, 0, 1, -32, 0}";
}
);
layerId = UUID1;
paths = (
{
closed = 1;
nodes = (
"373 193 LINE SMOOTH",
"511 193 OFFCURVE",
"603 282 OFFCURVE",
"603 390 CURVE SMOOTH",
"603 521 OFFCURVE",
"507 590 OFFCURVE",
"375 590 CURVE SMOOTH",
"163 591 LINE",
"163 506 LINE",
"363 506 LINE SMOOTH",
"460 506 OFFCURVE",
"502 463 OFFCURVE",
"502 390 CURVE SMOOTH",
"502 313 OFFCURVE",
"449 273 OFFCURVE",
"375 273 CURVE SMOOTH",
"179 273 LINE",
"179 193 LINE"
);
}
);
width = 646;
}
);
unicode = 00DE;
},
{
color = 4;
glyphname = Q;
lastChange = "2016-08-14 20:23:35 +0000";
layers = (
{
anchors = (
{
name = top;
position = "{415, 700}";
}
);
background = {
paths = (
{
closed = 1;
nodes = (
"321 -129 LINE",
"346 -120 OFFCURVE",
"355 -123 OFFCURVE",
"376 -123 CURVE SMOOTH",
"425 -123 OFFCURVE",
"506 -193 OFFCURVE",
"583 -193 CURVE SMOOTH",
"678 -193 OFFCURVE",
"757 -131 OFFCURVE",
"768 -36 CURVE",
"659 18 LINE",
"651 -32 OFFCURVE",
"612 -52 OFFCURVE",
"572 -52 CURVE SMOOTH",
"511 -51 OFFCURVE",
"454 7 OFFCURVE",
"392 7 CURVE SMOOTH",
"376 7 OFFCURVE",
"346 9 OFFCURVE",
"322 -3 CURVE"
);
},
{
closed = 1;
nodes = (
"591 -13 OFFCURVE",
"749 158 OFFCURVE",
"749 370 CURVE SMOOTH",
"749 583 OFFCURVE",
"591 754 OFFCURVE",
"390 754 CURVE SMOOTH",
"190 754 OFFCURVE",
"32 583 OFFCURVE",
"32 370 CURVE SMOOTH",
"32 158 OFFCURVE",
"190 -13 OFFCURVE",
"390 -13 CURVE SMOOTH"
);
},
{
closed = 1;
nodes = (
"279 140 OFFCURVE",
"198 245 OFFCURVE",
"198 370 CURVE SMOOTH",
"198 496 OFFCURVE",
"279 601 OFFCURVE",
"390 601 CURVE SMOOTH",
"502 601 OFFCURVE",
"582 496 OFFCURVE",
"582 370 CURVE SMOOTH",
"582 245 OFFCURVE",
"504 140 OFFCURVE",
"390 140 CURVE SMOOTH"
);
}
);
};
components = (
{
name = O;
}
);
layerId = UUID0;
paths = (
{
closed = 1;
nodes = (
"678 -193 OFFCURVE",
"757 -131 OFFCURVE",
"768 -36 CURVE",
"659 18 LINE",
"651 -32 OFFCURVE",
"612 -52 OFFCURVE",
"572 -52 CURVE SMOOTH",
"511 -51 OFFCURVE",
"454 7 OFFCURVE",
"392 7 CURVE SMOOTH",
"376 7 OFFCURVE",
"346 9 OFFCURVE",
"322 -3 CURVE",
"321 -129 LINE",
"346 -120 OFFCURVE",
"355 -123 OFFCURVE",
"376 -123 CURVE SMOOTH",
"425 -123 OFFCURVE",
"506 -193 OFFCURVE",
"583 -193 CURVE SMOOTH"
);
}
);
width = 798;
},
{
anchors = (
{
name = top;
position = "{415, 700}";
}
);
background = {
paths = (
{
closed = 1;
nodes = (
"343 -99 LINE",
"352 -95 OFFCURVE",
"370 -93 OFFCURVE",
"384 -93 CURVE SMOOTH",
"459 -93 OFFCURVE",
"482 -159 OFFCURVE",
"593 -159 CURVE SMOOTH",
"655 -159 OFFCURVE",
"729 -122 OFFCURVE",
"745 -49 CURVE",
"671 -15 LINE",
"662 -53 OFFCURVE",
"630 -72 OFFCURVE",
"593 -72 CURVE SMOOTH",
"498 -72 OFFCURVE",
"487 -6 OFFCURVE",
"388 -6 CURVE SMOOTH",
"380 -6 OFFCURVE",
"351 -7 OFFCURVE",
"343 -9 CURVE"
);
},
{
closed = 1;
nodes = (
"599 -15 OFFCURVE",
"746 157 OFFCURVE",
"746 370 CURVE SMOOTH",
"746 584 OFFCURVE",
"601 755 OFFCURVE",
"391 755 CURVE SMOOTH",
"183 755 OFFCURVE",
"35 584 OFFCURVE",
"35 370 CURVE SMOOTH",
"35 157 OFFCURVE",
"182 -15 OFFCURVE",
"391 -15 CURVE SMOOTH"
);
},
{
closed = 1;
nodes = (
"237 77 OFFCURVE",
"135 213 OFFCURVE",
"135 370 CURVE SMOOTH",
"135 527 OFFCURVE",
"236 664 OFFCURVE",
"391 664 CURVE SMOOTH",
"545 664 OFFCURVE",
"645 526 OFFCURVE",
"645 370 CURVE SMOOTH",
"645 213 OFFCURVE",
"546 77 OFFCURVE",
"391 77 CURVE SMOOTH"
);
}
);
};
components = (
{
name = O;
}
);
layerId = UUID1;
paths = (
{
closed = 1;
nodes = (
"655 -159 OFFCURVE",
"729 -122 OFFCURVE",
"745 -49 CURVE",
"671 -15 LINE",
"662 -53 OFFCURVE",
"630 -72 OFFCURVE",
"593 -72 CURVE SMOOTH",
"498 -72 OFFCURVE",
"487 -6 OFFCURVE",
"388 -6 CURVE SMOOTH",
"380 -6 OFFCURVE",
"351 -7 OFFCURVE",
"343 -9 CURVE",
"343 -99 LINE",
"352 -95 OFFCURVE",
"370 -93 OFFCURVE",
"384 -93 CURVE SMOOTH",
"459 -93 OFFCURVE",
"482 -159 OFFCURVE",
"593 -159 CURVE SMOOTH"
);
}
);
width = 813;
}
);
unicode = 0051;
},
{
color = 4;
glyphname = R;
lastChange = "2016-08-14 20:23:35 +0000";
layers = (
{
anchors = (
{
name = top;
position = "{367, 660}";
}
);
background = {
paths = (
{
closed = 1;
nodes = (
"727 0 LINE",
"726 134 LINE",
"665 134 LINE",
"640 240 LINE SMOOTH",
"622 318 OFFCURVE",
"575 355 OFFCURVE",
"525 359 CURVE",
"357 295 LINE",
"436 295 OFFCURVE",
"471 260 OFFCURVE",
"483 176 CURVE SMOOTH",
"512 0 LINE"
);
},
{
closed = 1;
nodes = (
"55 606 LINE",
"391 606 LINE SMOOTH",
"470 606 OFFCURVE",
"512 572 OFFCURVE",
"512 515 CURVE SMOOTH",
"512 454 OFFCURVE",
"465 427 OFFCURVE",
"391 427 CURVE SMOOTH",
"174 427 LINE",
"174 295 LINE",
"441 295 LINE",
"491 316 LINE",
"615 360 OFFCURVE",
"688 404 OFFCURVE",
"688 532 CURVE SMOOTH",
"688 642 OFFCURVE",
"599 740 OFFCURVE",
"447 740 CURVE SMOOTH",
"55 740 LINE"
);
},
{
closed = 1;
nodes = (
"294 61 LINE",
"294 665 LINE",
"132 665 LINE",
"132 61 LINE"
);
},
{
closed = 1;
nodes = (
"55 0 LINE",
"362 0 LINE",
"362 134 LINE",
"55 134 LINE"
);
}
);
};
components = (
{
name = uc.stem;
transform = "{1, 0, 0, 1, -10, 0}";
},
{
name = serif.bot;
transform = "{0.93, 0, 0, 1, -10, 0}";
}
);
layerId = UUID0;
paths = (
{
closed = 1;
nodes = (
"441 295 LINE",
"491 316 LINE",
"615 360 OFFCURVE",
"688 404 OFFCURVE",
"688 532 CURVE SMOOTH",
"688 642 OFFCURVE",
"599 740 OFFCURVE",
"447 740 CURVE SMOOTH",
"55 740 LINE",
"55 606 LINE",
"391 606 LINE SMOOTH",
"470 606 OFFCURVE",
"512 572 OFFCURVE",
"512 515 CURVE SMOOTH",
"512 454 OFFCURVE",
"465 427 OFFCURVE",
"391 427 CURVE SMOOTH",
"174 427 LINE",
"174 295 LINE"
);
},
{
closed = 1;
nodes = (
"727 0 LINE",
"726 134 LINE",
"665 134 LINE",
"640 240 LINE SMOOTH",
"622 318 OFFCURVE",
"575 355 OFFCURVE",
"525 359 CURVE",
"357 295 LINE",
"436 295 OFFCURVE",
"471 260 OFFCURVE",
"483 176 CURVE SMOOTH",
"512 0 LINE"
);
}
);
width = 747;
},
{
anchors = (
{
name = top;
position = "{336, 660}";
}
);
background = {
paths = (
{
closed = 1;
nodes = (
"661 0 LINE",
"660 93 LINE",
"596 93 LINE",
"555 254 LINE SMOOTH",
"538 323 OFFCURVE",
"489 370 OFFCURVE",
"451 371 CURVE",
"331 343 LINE",
"403 343 OFFCURVE",
"442 306 OFFCURVE",
"462 225 CURVE SMOOTH",
"517 0 LINE"
);
},
{
closed = 1;
nodes = (
"70 656 LINE",
"366 656 LINE SMOOTH",
"463 656 OFFCURVE",
"505 613 OFFCURVE",
"505 539 CURVE SMOOTH",
"505 463 OFFCURVE",
"452 423 OFFCURVE",
"378 423 CURVE SMOOTH",
"185 423 LINE",
"185 343 LINE",
"331 343 LINE",
"419 356 LINE",
"522 360 OFFCURVE",
"606 449 OFFCURVE",
"606 540 CURVE SMOOTH",
"606 671 OFFCURVE",
"510 740 OFFCURVE",
"378 740 CURVE SMOOTH",
"70 740 LINE"
);
},
{
closed = 1;
nodes = (
"236 51 LINE",
"236 685 LINE",
"140 685 LINE",
"140 51 LINE"
);
},
{
closed = 1;
nodes = (
"71 0 LINE",
"311 0 LINE",
"311 84 LINE",
"71 84 LINE"
);
}
);
};
components = (
{
name = uc.stem;
transform = "{1, 0, 0, 1, -4, 0}";
},
{
name = serif.bot;
transform = "{1, 0, 0, 1, -8, 0}";
}
);
layerId = UUID1;
paths = (
{
closed = 1;
nodes = (
"334 343 LINE",
"422 356 LINE",
"525 360 OFFCURVE",
"609 449 OFFCURVE",
"609 540 CURVE SMOOTH",
"609 671 OFFCURVE",
"513 740 OFFCURVE",
"381 740 CURVE SMOOTH",
"70 741 LINE",
"70 656 LINE",
"369 656 LINE SMOOTH",
"466 656 OFFCURVE",
"508 613 OFFCURVE",
"508 539 CURVE SMOOTH",
"508 463 OFFCURVE",
"455 423 OFFCURVE",
"381 423 CURVE SMOOTH",
"185 423 LINE",
"185 343 LINE"
);
},
{
closed = 1;
nodes = (
"664 0 LINE",
"663 93 LINE",
"599 93 LINE",
"558 254 LINE SMOOTH",
"541 323 OFFCURVE",
"492 370 OFFCURVE",
"454 371 CURVE",
"334 343 LINE",
"406 343 OFFCURVE",
"445 306 OFFCURVE",
"465 225 CURVE SMOOTH",
"520 0 LINE"
);
}
);
width = 715;
}
);
unicode = 0052;
},
{
color = 4;
glyphname = S;
lastChange = "2016-08-14 20:23:35 +0000";
layers = (
{
anchors = (
{
name = bottom;
position = "{316, 0}";
},
{
name = top;
position = "{302, 740}";
}
);
background = {
paths = (
{
closed = 1;
nodes = (
"68 122 LINE",
"92 33 OFFCURVE",
"171 -15 OFFCURVE",
"316 -15 CURVE SMOOTH",
"473 -15 OFFCURVE",
"597 82 OFFCURVE",
"597 223 CURVE SMOOTH",
"597 339 OFFCURVE",
"536 409 OFFCURVE",
"422 435 CURVE SMOOTH",
"304 461 LINE SMOOTH",
"253 472 OFFCURVE",
"198 483 OFFCURVE",
"198 541 CURVE SMOOTH",
"198 587 OFFCURVE",
"241 607 OFFCURVE",
"304 607 CURVE SMOOTH",
"359 607 OFFCURVE",
"426 574 OFFCURVE",
"426 513 CURVE",
"577 527 LINE",
"546 619 LINE",
"512 704 OFFCURVE",
"414 755 OFFCURVE",
"290 755 CURVE SMOOTH",
"147 755 OFFCURVE",
"23 676 OFFCURVE",
"23 536 CURVE SMOOTH",
"23 403 OFFCURVE",
"110 337 OFFCURVE",
"219 313 CURVE SMOOTH",
"327 290 LINE SMOOTH",
"372 280 OFFCURVE",
"416 262 OFFCURVE",
"416 213 CURVE SMOOTH",
"416 166 OFFCURVE",
"382 133 OFFCURVE",
"320 133 CURVE SMOOTH",
"238 133 OFFCURVE",
"172 180 OFFCURVE",
"172 239 CURVE",
"40 239 LINE"
);
},
{
closed = 1;
nodes = (
"426 513 LINE",
"588 513 LINE",
"588 658 LINE",
"426 658 LINE"
);
},
{
closed = 1;
nodes = (
"20 95 LINE",
"172 95 LINE",
"172 239 LINE",
"20 239 LINE"
);
}
);
};
layerId = UUID0;
paths = (
{
closed = 1;
nodes = (
"472 -15 OFFCURVE",
"582 83 OFFCURVE",
"582 226 CURVE SMOOTH",
"582 331 OFFCURVE",
"524 396 OFFCURVE",
"449 422 CURVE SMOOTH",
"315 467 LINE SMOOTH",
"269 482 OFFCURVE",
"213 489 OFFCURVE",
"213 547 CURVE SMOOTH",
"213 594 OFFCURVE",
"253 614 OFFCURVE",
"302 614 CURVE SMOOTH",
"363 614 OFFCURVE",
"418 568 OFFCURVE",
"411 514 CURVE",
"567 527 LINE",
"546 617 LINE",
"526 689 OFFCURVE",
"435 762 OFFCURVE",
"302 762 CURVE SMOOTH",
"148 762 OFFCURVE",
"38 682 OFFCURVE",
"38 541 CURVE SMOOTH",
"38 420 OFFCURVE",
"116 353 OFFCURVE",
"201 327 CURVE SMOOTH",
"313 291 LINE SMOOTH",
"353 278 OFFCURVE",
"401 263 OFFCURVE",
"401 214 CURVE SMOOTH",
"401 166 OFFCURVE",
"369 137 OFFCURVE",
"311 137 CURVE SMOOTH",
"234 137 OFFCURVE",
"197 180 OFFCURVE",
"197 239 CURVE",
"40 239 LINE",
"57 169 LINE",
"74 58 OFFCURVE",
"178 -15 OFFCURVE",
"311 -15 CURVE SMOOTH"
);
},
{
closed = 1;
nodes = (
"197 122 LINE",
"197 269 LINE",
"20 269 LINE",
"20 122 LINE"
);
},
{
closed = 1;
nodes = (
"588 489 LINE",
"588 636 LINE",
"411 636 LINE",
"411 489 LINE"
);
}
);
width = 608;
},
{
anchors = (
{
name = bottom;
position = "{298, 0}";
},
{
name = top;
position = "{316, 740}";
}
);
background = {
paths = (
{
closed = 1;
nodes = (
"74 145 LINE",
"97 64 OFFCURVE",
"156 -16 OFFCURVE",
"312 -16 CURVE SMOOTH",
"460 -16 OFFCURVE",
"566 76 OFFCURVE",
"566 198 CURVE SMOOTH",
"566 311 OFFCURVE",
"502 367 OFFCURVE",
"384 405 CURVE SMOOTH",
"285 437 LINE SMOOTH",
"233 455 OFFCURVE",
"165 467 OFFCURVE",
"165 553 CURVE SMOOTH",
"165 611 OFFCURVE",
"214 660 OFFCURVE",
"313 660 CURVE SMOOTH",
"379 660 OFFCURVE",
"451 620 OFFCURVE",
"451 553 CURVE",
"557 556 LINE",
"540 606 LINE",
"505 692 OFFCURVE",
"429 751 OFFCURVE",
"316 751 CURVE SMOOTH",
"156 751 OFFCURVE",
"65 660 OFFCURVE",
"65 547 CURVE SMOOTH",
"65 435 OFFCURVE",
"128 378 OFFCURVE",
"222 349 CURVE SMOOTH",
"329 319 LINE SMOOTH",
"386 301 OFFCURVE",
"461 272 OFFCURVE",
"461 193 CURVE SMOOTH",
"461 121 OFFCURVE",
"406 78 OFFCURVE",
"317 78 CURVE SMOOTH",
"226 78 OFFCURVE",
"162 118 OFFCURVE",
"162 198 CURVE",
"71 178 LINE"
);
},
{
closed = 1;
nodes = (
"449 539 LINE",
"569 539 LINE",
"569 623 LINE",
"449 623 LINE"
);
},
{
closed = 1;
nodes = (
"39 138 LINE",
"162 138 LINE",
"162 222 LINE",
"39 222 LINE"
);
}
);
};
layerId = UUID1;
paths = (
{
closed = 1;
nodes = (
"460 -16 OFFCURVE",
"566 76 OFFCURVE",
"566 198 CURVE SMOOTH",
"566 311 OFFCURVE",
"502 367 OFFCURVE",
"384 405 CURVE SMOOTH",
"285 437 LINE SMOOTH",
"233 455 OFFCURVE",
"165 467 OFFCURVE",
"165 553 CURVE SMOOTH",
"165 611 OFFCURVE",
"214 660 OFFCURVE",
"313 660 CURVE SMOOTH",
"379 660 OFFCURVE",
"451 620 OFFCURVE",
"451 553 CURVE",
"557 556 LINE",
"540 606 LINE",
"505 692 OFFCURVE",
"429 751 OFFCURVE",
"316 751 CURVE SMOOTH",
"156 751 OFFCURVE",
"65 660 OFFCURVE",
"65 547 CURVE SMOOTH",
"65 435 OFFCURVE",
"128 378 OFFCURVE",
"222 349 CURVE SMOOTH",
"329 319 LINE SMOOTH",
"386 301 OFFCURVE",
"461 272 OFFCURVE",
"461 193 CURVE SMOOTH",
"461 121 OFFCURVE",
"406 78 OFFCURVE",
"317 78 CURVE SMOOTH",
"226 78 OFFCURVE",
"162 118 OFFCURVE",
"162 198 CURVE",
"71 178 LINE",
"74 145 LINE",
"97 64 OFFCURVE",
"156 -16 OFFCURVE",
"312 -16 CURVE SMOOTH"
);
},
{
closed = 1;
nodes = (
"162 138 LINE",
"162 222 LINE",
"39 222 LINE",
"39 138 LINE"
);
},
{
closed = 1;
nodes = (
"569 539 LINE",
"569 623 LINE",
"449 623 LINE",
"449 539 LINE"
);
}
);
width = 591;
}
);
unicode = 0053;
},
{
color = 4;
glyphname = Scommaaccent;
lastChange = "2016-08-14 17:38:38 +0000";
layers = (
{
background = {
paths = (
{
closed = 1;
nodes = (
"68 122 LINE",
"92 33 OFFCURVE",
"171 -15 OFFCURVE",
"316 -15 CURVE SMOOTH",
"473 -15 OFFCURVE",
"597 82 OFFCURVE",
"597 223 CURVE SMOOTH",
"597 339 OFFCURVE",
"536 409 OFFCURVE",
"422 435 CURVE SMOOTH",
"304 461 LINE SMOOTH",
"253 472 OFFCURVE",
"198 483 OFFCURVE",
"198 541 CURVE SMOOTH",
"198 587 OFFCURVE",
"241 607 OFFCURVE",
"304 607 CURVE SMOOTH",
"359 607 OFFCURVE",
"426 574 OFFCURVE",
"426 513 CURVE",
"577 527 LINE",
"546 619 LINE",
"512 704 OFFCURVE",
"414 755 OFFCURVE",
"290 755 CURVE SMOOTH",
"147 755 OFFCURVE",
"23 676 OFFCURVE",
"23 536 CURVE SMOOTH",
"23 403 OFFCURVE",
"110 337 OFFCURVE",
"219 313 CURVE SMOOTH",
"327 290 LINE SMOOTH",
"372 280 OFFCURVE",
"416 262 OFFCURVE",
"416 213 CURVE SMOOTH",
"416 166 OFFCURVE",
"382 133 OFFCURVE",
"320 133 CURVE SMOOTH",
"238 133 OFFCURVE",
"172 180 OFFCURVE",
"172 239 CURVE",
"40 239 LINE"
);
},
{
closed = 1;
nodes = (
"426 513 LINE",
"588 513 LINE",
"588 658 LINE",
"426 658 LINE"
);
},
{
closed = 1;
nodes = (
"20 95 LINE",
"172 95 LINE",
"172 239 LINE",
"20 239 LINE"
);
},
{
closed = 1;
nodes = (
"205 -195 LINE",
"306 -230 LINE",
"402 -65 LINE",
"261 -14 LINE"
);
}
);
};
components = (
{
name = S;
},
{
name = commabelow;
transform = "{1, 0, 0, 1, 167, 0}";
}
);
layerId = UUID0;
width = 608;
},
{
background = {
paths = (
{
closed = 1;
nodes = (
"74 145 LINE",
"97 64 OFFCURVE",
"156 -16 OFFCURVE",
"312 -16 CURVE SMOOTH",
"460 -16 OFFCURVE",
"566 76 OFFCURVE",
"566 198 CURVE SMOOTH",
"566 311 OFFCURVE",
"502 367 OFFCURVE",
"384 405 CURVE SMOOTH",
"285 437 LINE SMOOTH",
"233 455 OFFCURVE",
"165 467 OFFCURVE",
"165 553 CURVE SMOOTH",
"165 611 OFFCURVE",
"214 660 OFFCURVE",
"313 660 CURVE SMOOTH",
"379 660 OFFCURVE",
"451 620 OFFCURVE",
"451 553 CURVE",
"557 556 LINE",
"540 606 LINE",
"505 692 OFFCURVE",
"429 751 OFFCURVE",
"316 751 CURVE SMOOTH",
"156 751 OFFCURVE",
"65 660 OFFCURVE",
"65 547 CURVE SMOOTH",
"65 435 OFFCURVE",
"128 378 OFFCURVE",
"222 349 CURVE SMOOTH",
"329 319 LINE SMOOTH",
"386 301 OFFCURVE",
"461 272 OFFCURVE",
"461 193 CURVE SMOOTH",
"461 121 OFFCURVE",
"406 78 OFFCURVE",
"317 78 CURVE SMOOTH",
"226 78 OFFCURVE",
"162 118 OFFCURVE",
"162 198 CURVE",
"71 178 LINE"
);
},
{
closed = 1;
nodes = (
"449 539 LINE",
"569 539 LINE",
"569 623 LINE",
"449 623 LINE"
);
},
{
closed = 1;
nodes = (
"39 138 LINE",
"162 138 LINE",
"162 222 LINE",
"39 222 LINE"
);
},
{
closed = 1;
nodes = (
"216 -205 LINE",
"286 -231 LINE",
"374 -61 LINE",
"271 -20 LINE"
);
}
);
};
components = (
{
name = S;
},
{
name = commabelow;
transform = "{1, 0, 0, 1, 202, 0}";
}
);
layerId = UUID1;
width = 591;
}
);
unicode = 0218;
},
{
color = 4;
glyphname = T;
lastChange = "2016-08-14 20:23:35 +0000";
layers = (
{
anchors = (
{
name = top;
position = "{342, 700}";
}
);
background = {
paths = (
{
closed = 1;
nodes = (
"683 515 LINE",
"683 740 LINE",
"10 740 LINE",
"10 515 LINE",
"169 515 LINE",
"169 611 LINE",
"523 611 LINE",
"523 515 LINE"
);
},
{
closed = 1;
nodes = (
"421 61 LINE",
"421 665 LINE",
"259 665 LINE",
"259 61 LINE"
);
},
{
closed = 1;
nodes = (
"182 0 LINE",
"499 0 LINE",
"499 134 LINE",
"182 134 LINE"
);
}
);
};
components = (
{
name = uc.stem;
transform = "{1, 0, 0, 1, 117, 0}";
},
{
name = serif.bot;
transform = "{0.96, 0, 0, 1, 115, 0}";
}
);
layerId = UUID0;
paths = (
{
closed = 1;
nodes = (
"169 515 LINE",
"169 611 LINE",
"523 611 LINE",
"523 515 LINE",
"683 515 LINE",
"683 740 LINE",
"10 740 LINE",
"10 515 LINE"
);
}
);
width = 693;
},
{
anchors = (
{
name = top;
position = "{342, 700}";
}
);
background = {
paths = (
{
closed = 1;
nodes = (
"680 545 LINE",
"680 740 LINE",
"20 740 LINE",
"20 545 LINE",
"120 545 LINE",
"120 660 LINE",
"580 660 LINE",
"580 545 LINE"
);
},
{
closed = 1;
nodes = (
"385 51 LINE",
"385 685 LINE",
"289 685 LINE",
"289 51 LINE"
);
},
{
closed = 1;
nodes = (
"221 0 LINE",
"461 0 LINE",
"461 84 LINE",
"221 84 LINE"
);
}
);
};
components = (
{
name = uc.stem;
transform = "{1, 0, 0, 1, 142, 0}";
},
{
name = serif.bot;
transform = "{1, 0, 0, 1, 138, 0}";
}
);
layerId = UUID1;
paths = (
{
closed = 1;
nodes = (
"120 545 LINE",
"120 660 LINE",
"580 660 LINE",
"580 545 LINE",
"680 545 LINE",
"680 740 LINE",
"20 740 LINE",
"20 545 LINE"
);
}
);
width = 700;
}
);
unicode = 0054;
},
{
color = 4;
glyphname = U;
lastChange = "2016-08-14 17:38:38 +0000";
layers = (
{
anchors = (
{
name = top;
position = "{379, 740}";
}
);
background = {
paths = (
{
closed = 1;
nodes = (
"25 606 LINE",
"322 606 LINE",
"322 740 LINE",
"25 740 LINE"
);
},
{
closed = 1;
nodes = (
"431 606 LINE",
"728 606 LINE",
"728 740 LINE",
"431 740 LINE"
);
},
{
closed = 1;
nodes = (
"510 624 LINE",
"510 299 LINE SMOOTH",
"510 179 OFFCURVE",
"459 144 OFFCURVE",
"382 144 CURVE SMOOTH",
"308 144 OFFCURVE",
"254 187 OFFCURVE",
"254 299 CURVE SMOOTH",
"254 622 LINE",
"92 620 LINE",
"92 309 LINE SMOOTH",
"92 110 OFFCURVE",
"219 -10 OFFCURVE",
"379 -10 CURVE SMOOTH",
"541 -10 OFFCURVE",
"669 110 OFFCURVE",
"669 318 CURVE SMOOTH",
"669 625 LINE"
);
}
);
};
components = (
{
name = serif.top;
transform = "{0.9, 0, 0, 1, -38, 40}";
},
{
name = serif.top;
transform = "{0.9, 0, 0, 1, 368, 40}";
},
{
name = U.alt1;
}
);
layerId = UUID0;
width = 762;
},
{
anchors = (
{
name = top;
position = "{404, 740}";
}
);
background = {
paths = (
{
closed = 1;
nodes = (
"55 656 LINE",
"295 656 LINE",
"295 740 LINE",
"55 740 LINE"
);
},
{
closed = 1;
nodes = (
"515 656 LINE",
"755 656 LINE",
"755 740 LINE",
"515 740 LINE"
);
},
{
closed = 1;
nodes = (
"595 701 LINE",
"595 313 LINE SMOOTH",
"595 142 OFFCURVE",
"520 81 OFFCURVE",
"407 81 CURVE SMOOTH",
"296 81 OFFCURVE",
"219 146 OFFCURVE",
"219 313 CURVE SMOOTH",
"219 697 LINE",
"123 697 LINE",
"123 313 LINE SMOOTH",
"123 110 OFFCURVE",
"245 -10 OFFCURVE",
"403 -10 CURVE SMOOTH",
"563 -10 OFFCURVE",
"689 109 OFFCURVE",
"689 322 CURVE SMOOTH",
"689 702 LINE"
);
}
);
};
components = (
{
name = serif.top;
transform = "{1, 0, 0, 1, -28, 40}";
},
{
name = serif.top;
transform = "{1, 0, 0, 1, 432, 40}";
},
{
name = U.alt1;
}
);
layerId = UUID1;
width = 761;
}
);
unicode = 0055;
},
{
color = 4;
glyphname = Uacute;
lastChange = "2016-08-14 17:38:38 +0000";
layers = (
{
background = {
paths = (
{
closed = 1;
nodes = (
"25 606 LINE",
"322 606 LINE",
"322 740 LINE",
"25 740 LINE"
);
},
{
closed = 1;
nodes = (
"431 606 LINE",
"728 606 LINE",
"728 740 LINE",
"431 740 LINE"
);
},
{
closed = 1;
nodes = (
"510 624 LINE",
"510 299 LINE SMOOTH",
"510 179 OFFCURVE",
"459 144 OFFCURVE",
"382 144 CURVE SMOOTH",
"308 144 OFFCURVE",
"254 187 OFFCURVE",
"254 299 CURVE SMOOTH",
"254 622 LINE",
"92 620 LINE",
"92 309 LINE SMOOTH",
"92 110 OFFCURVE",
"219 -10 OFFCURVE",
"379 -10 CURVE SMOOTH",
"541 -10 OFFCURVE",
"669 110 OFFCURVE",
"669 318 CURVE SMOOTH",
"669 625 LINE"
);
},
{
closed = 1;
nodes = (
"329 809 LINE",
"444 809 LINE",
"593 949 LINE",
"593 961 LINE",
"434 961 LINE"
);
}
);
};
components = (
{
name = serif.top;
transform = "{0.9, 0, 0, 1, -38, 40}";
},
{
name = serif.top;
transform = "{0.9, 0, 0, 1, 368, 40}";
},
{
name = U.alt1;
},
{
name = acute;
transform = "{1, 0, 0, 1, 309, 234}";
}
);
layerId = UUID0;
width = 762;
},
{
background = {
paths = (
{
closed = 1;
nodes = (
"55 656 LINE",
"295 656 LINE",
"295 740 LINE",
"55 740 LINE"
);
},
{
closed = 1;
nodes = (
"515 656 LINE",
"755 656 LINE",
"755 740 LINE",
"515 740 LINE"
);
},
{
closed = 1;
nodes = (
"595 701 LINE",
"595 313 LINE SMOOTH",
"595 142 OFFCURVE",
"520 81 OFFCURVE",
"407 81 CURVE SMOOTH",
"296 81 OFFCURVE",
"219 146 OFFCURVE",
"219 313 CURVE SMOOTH",
"219 697 LINE",
"123 697 LINE",
"123 313 LINE SMOOTH",
"123 110 OFFCURVE",
"245 -10 OFFCURVE",
"403 -10 CURVE SMOOTH",
"563 -10 OFFCURVE",
"689 109 OFFCURVE",
"689 322 CURVE SMOOTH",
"689 702 LINE"
);
},
{
closed = 1;
nodes = (
"336 809 LINE",
"411 809 LINE",
"557 947 LINE",
"557 955 LINE",
"440 955 LINE"
);
}
);
};
components = (
{
name = serif.top;
transform = "{1, 0, 0, 1, -28, 40}";
},
{
name = serif.top;
transform = "{1, 0, 0, 1, 432, 40}";
},
{
name = U.alt1;
},
{
name = acute;
transform = "{1, 0, 0, 1, 295, 234}";
}
);
layerId = UUID1;
width = 761;
}
);
unicode = 00DA;
},
{
color = 4;
glyphname = Ucircumflex;
lastChange = "2016-08-14 17:38:38 +0000";
layers = (
{
background = {
paths = (
{
closed = 1;
nodes = (
"25 606 LINE",
"322 606 LINE",
"322 740 LINE",
"25 740 LINE"
);
},
{
closed = 1;
nodes = (
"431 606 LINE",
"728 606 LINE",
"728 740 LINE",
"431 740 LINE"
);
},
{
closed = 1;
nodes = (
"510 624 LINE",
"510 299 LINE SMOOTH",
"510 179 OFFCURVE",
"459 144 OFFCURVE",
"382 144 CURVE SMOOTH",
"308 144 OFFCURVE",
"254 187 OFFCURVE",
"254 299 CURVE SMOOTH",
"254 622 LINE",
"92 620 LINE",
"92 309 LINE SMOOTH",
"92 110 OFFCURVE",
"219 -10 OFFCURVE",
"379 -10 CURVE SMOOTH",
"541 -10 OFFCURVE",
"669 110 OFFCURVE",
"669 318 CURVE SMOOTH",
"669 625 LINE"
);
},
{
closed = 1;
nodes = (
"205 808 LINE",
"338 967 LINE",
"455 967 LINE",
"589 808 LINE",
"469 808 LINE",
"397 883 LINE",
"326 808 LINE"
);
}
);
};
components = (
{
name = serif.top;
transform = "{0.9, 0, 0, 1, -38, 40}";
},
{
name = serif.top;
transform = "{0.9, 0, 0, 1, 368, 40}";
},
{
name = U.alt1;
},
{
name = circumflex;
transform = "{1, 0, 0, 1, 163, 234}";
}
);
layerId = UUID0;
width = 762;
},
{
background = {
paths = (
{
closed = 1;
nodes = (
"55 656 LINE",
"295 656 LINE",
"295 740 LINE",
"55 740 LINE"
);
},
{
closed = 1;
nodes = (
"515 656 LINE",
"755 656 LINE",
"755 740 LINE",
"515 740 LINE"
);
},
{
closed = 1;
nodes = (
"595 701 LINE",
"595 313 LINE SMOOTH",
"595 142 OFFCURVE",
"520 81 OFFCURVE",
"407 81 CURVE SMOOTH",
"296 81 OFFCURVE",
"219 146 OFFCURVE",
"219 313 CURVE SMOOTH",
"219 697 LINE",
"123 697 LINE",
"123 313 LINE SMOOTH",
"123 110 OFFCURVE",
"245 -10 OFFCURVE",
"403 -10 CURVE SMOOTH",
"563 -10 OFFCURVE",
"689 109 OFFCURVE",
"689 322 CURVE SMOOTH",
"689 702 LINE"
);
},
{
closed = 1;
nodes = (
"278 808 LINE",
"400 961 LINE",
"431 961 LINE",
"554 808 LINE",
"481 808 LINE",
"416 884 LINE",
"350 808 LINE"
);
}
);
};
components = (
{
name = serif.top;
transform = "{1, 0, 0, 1, -28, 40}";
},
{
name = serif.top;
transform = "{1, 0, 0, 1, 432, 40}";
},
{
name = U.alt1;
},
{
name = circumflex;
transform = "{1, 0, 0, 1, 172, 234}";
}
);
layerId = UUID1;
width = 761;
}
);
unicode = 00DB;
},
{
color = 4;
glyphname = Udieresis;
lastChange = "2016-10-12 15:33:50 +0000";
layers = (
{
background = {
paths = (
{
closed = 1;
nodes = (
"168 812 OFFCURVE",
"202 777 OFFCURVE",
"245 777 CURVE SMOOTH",
"286 777 OFFCURVE",
"321 812 OFFCURVE",
"321 854 CURVE SMOOTH",
"321 896 OFFCURVE",
"286 931 OFFCURVE",
"245 931 CURVE SMOOTH",
"202 931 OFFCURVE",
"168 896 OFFCURVE",
"168 854 CURVE SMOOTH"
);
},
{
closed = 1;
nodes = (
"435 812 OFFCURVE",
"469 777 OFFCURVE",
"512 777 CURVE SMOOTH",
"553 777 OFFCURVE",
"588 812 OFFCURVE",
"588 854 CURVE SMOOTH",
"588 896 OFFCURVE",
"553 931 OFFCURVE",
"512 931 CURVE SMOOTH",
"469 931 OFFCURVE",
"435 896 OFFCURVE",
"435 854 CURVE SMOOTH"
);
},
{
closed = 1;
nodes = (
"25 606 LINE",
"322 606 LINE",
"322 740 LINE",
"25 740 LINE"
);
},
{
closed = 1;
nodes = (
"431 606 LINE",
"728 606 LINE",
"728 740 LINE",
"431 740 LINE"
);
},
{
closed = 1;
nodes = (
"510 624 LINE",
"510 299 LINE SMOOTH",
"510 179 OFFCURVE",
"459 144 OFFCURVE",
"382 144 CURVE SMOOTH",
"308 144 OFFCURVE",
"254 187 OFFCURVE",
"254 299 CURVE SMOOTH",
"254 622 LINE",
"92 620 LINE",
"92 309 LINE SMOOTH",
"92 110 OFFCURVE",
"219 -10 OFFCURVE",
"379 -10 CURVE SMOOTH",
"541 -10 OFFCURVE",
"669 110 OFFCURVE",
"669 318 CURVE SMOOTH",
"669 625 LINE"
);
}
);
};
components = (
{
name = U;
},
{
name = dieresiscomb;
transform = "{1, 0, 0, 1, 75, 234}";
}
);
layerId = UUID0;
width = 762;
},
{
background = {
paths = (
{
closed = 1;
nodes = (
"187 863 OFFCURVE",
"216 833 OFFCURVE",
"250 833 CURVE SMOOTH",
"283 833 OFFCURVE",
"311 863 OFFCURVE",
"311 898 CURVE SMOOTH",
"311 932 OFFCURVE",
"283 961 OFFCURVE",
"250 961 CURVE SMOOTH",
"216 961 OFFCURVE",
"187 932 OFFCURVE",
"187 898 CURVE SMOOTH"
);
},
{
closed = 1;
nodes = (
"411 863 OFFCURVE",
"440 833 OFFCURVE",
"474 833 CURVE SMOOTH",
"507 833 OFFCURVE",
"535 863 OFFCURVE",
"535 898 CURVE SMOOTH",
"535 932 OFFCURVE",
"507 961 OFFCURVE",
"474 961 CURVE SMOOTH",
"440 961 OFFCURVE",
"411 932 OFFCURVE",
"411 898 CURVE SMOOTH"
);
},
{
closed = 1;
nodes = (
"55 656 LINE",
"295 656 LINE",
"295 740 LINE",
"55 740 LINE"
);
},
{
closed = 1;
nodes = (
"515 656 LINE",
"755 656 LINE",
"755 740 LINE",
"515 740 LINE"
);
},
{
closed = 1;
nodes = (
"595 701 LINE",
"595 313 LINE SMOOTH",
"595 142 OFFCURVE",
"520 81 OFFCURVE",
"407 81 CURVE SMOOTH",
"296 81 OFFCURVE",
"219 146 OFFCURVE",
"219 313 CURVE SMOOTH",
"219 697 LINE",
"123 697 LINE",
"123 313 LINE SMOOTH",
"123 110 OFFCURVE",
"245 -10 OFFCURVE",
"403 -10 CURVE SMOOTH",
"563 -10 OFFCURVE",
"689 109 OFFCURVE",
"689 322 CURVE SMOOTH",
"689 702 LINE"
);
}
);
};
components = (
{
name = U;
},
{
name = dieresiscomb;
transform = "{1, 0, 0, 1, 134, 234}";
}
);
layerId = UUID1;
width = 761;
}
);
unicode = 00DC;
},
{
color = 4;
glyphname = Ugrave;
lastChange = "2016-08-14 17:38:38 +0000";
layers = (
{
background = {
paths = (
{
closed = 1;
nodes = (
"25 606 LINE",
"322 606 LINE",
"322 740 LINE",
"25 740 LINE"
);
},
{
closed = 1;
nodes = (
"431 606 LINE",
"728 606 LINE",
"728 740 LINE",
"431 740 LINE"
);
},
{
closed = 1;
nodes = (
"510 624 LINE",
"510 299 LINE SMOOTH",
"510 179 OFFCURVE",
"459 144 OFFCURVE",
"382 144 CURVE SMOOTH",
"308 144 OFFCURVE",
"254 187 OFFCURVE",
"254 299 CURVE SMOOTH",
"254 622 LINE",
"92 620 LINE",
"92 309 LINE SMOOTH",
"92 110 OFFCURVE",
"219 -10 OFFCURVE",
"379 -10 CURVE SMOOTH",
"541 -10 OFFCURVE",
"669 110 OFFCURVE",
"669 318 CURVE SMOOTH",
"669 625 LINE"
);
},
{
closed = 1;
nodes = (
"339 809 LINE",
"196 949 LINE",
"196 961 LINE",
"355 961 LINE",
"451 809 LINE"
);
}
);
};
components = (
{
name = serif.top;
transform = "{0.9, 0, 0, 1, -38, 40}";
},
{
name = serif.top;
transform = "{0.9, 0, 0, 1, 368, 40}";
},
{
name = U.alt1;
},
{
name = grave;
transform = "{1, 0, 0, 1, 114, 234}";
}
);
layerId = UUID0;
width = 762;
},
{
background = {
paths = (
{
closed = 1;
nodes = (
"55 656 LINE",
"295 656 LINE",
"295 740 LINE",
"55 740 LINE"
);
},
{
closed = 1;
nodes = (
"515 656 LINE",
"755 656 LINE",
"755 740 LINE",
"515 740 LINE"
);
},
{
closed = 1;
nodes = (
"595 701 LINE",
"595 313 LINE SMOOTH",
"595 142 OFFCURVE",
"520 81 OFFCURVE",
"407 81 CURVE SMOOTH",
"296 81 OFFCURVE",
"219 146 OFFCURVE",
"219 313 CURVE SMOOTH",
"219 697 LINE",
"123 697 LINE",
"123 313 LINE SMOOTH",
"123 110 OFFCURVE",
"245 -10 OFFCURVE",
"403 -10 CURVE SMOOTH",
"563 -10 OFFCURVE",
"689 109 OFFCURVE",
"689 322 CURVE SMOOTH",
"689 702 LINE"
);
},
{
closed = 1;
nodes = (
"369 809 LINE",
"229 947 LINE",
"229 955 LINE",
"350 955 LINE",
"440 809 LINE"
);
}
);
};
components = (
{
name = serif.top;
transform = "{1, 0, 0, 1, -28, 40}";
},
{
name = serif.top;
transform = "{1, 0, 0, 1, 432, 40}";
},
{
name = U.alt1;
},
{
name = grave;
transform = "{1, 0, 0, 1, 139, 234}";
}
);
layerId = UUID1;
width = 761;
}
);
unicode = 00D9;
},
{
color = 9;
glyphname = Uhorn;
lastChange = "2016-10-12 21:03:34 +0000";
layers = (
{
anchors = (
{
name = bottom;
position = "{381, 0}";
},
{
name = ogonek;
position = "{685, 10}";
},
{
name = top;
position = "{404, 740}";
},
{
name = topright;
position = "{741, 740}";
}
);
components = (
{
name = serif.top;
transform = "{1, 0, 0, 1, -28, 40}";
},
{
name = U.alt1;
},
{
name = horncomb;
transform = "{1, 0, 0, 1, 344, 234}";
}
);
layerId = UUID1;
paths = (
{
closed = 1;
nodes = (
"689 656 LINE",
"689 740 LINE",
"515 740 LINE",
"515 656 LINE"
);
}
);
width = 761;
},
{
anchors = (
{
name = bottom;
position = "{381, 0}";
},
{
name = ogonek;
position = "{686, 10}";
},
{
name = top;
position = "{379, 740}";
},
{
name = topright;
position = "{742, 740}";
}
);
components = (
{
name = serif.top;
transform = "{0.9, 0, 0, 1, -38, 40}";
},
{
name = U.alt1;
},
{
name = horncomb;
transform = "{1, 0, 0, 1, 302, 234}";
}
);
layerId = UUID0;
paths = (
{
closed = 1;
nodes = (
"668 606 LINE",
"668 740 LINE",
"431 740 LINE",
"431 606 LINE"
);
}
);
width = 762;
}
);
unicode = 01AF;
},
{
color = 4;
glyphname = Uogonek;
lastChange = "2016-08-14 20:23:35 +0000";
layers = (
{
background = {
paths = (
{
closed = 1;
nodes = (
"538 103 LINE",
"471 68 OFFCURVE",
"362 -17 OFFCURVE",
"362 -116 CURVE SMOOTH",
"362 -203 OFFCURVE",
"438 -230 OFFCURVE",
"507 -230 CURVE SMOOTH",
"552 -230 OFFCURVE",
"591 -215 OFFCURVE",
"608 -203 CURVE",
"584 -122 LINE",
"571 -128 OFFCURVE",
"550 -138 OFFCURVE",
"525 -138 CURVE SMOOTH",
"501 -138 OFFCURVE",
"477 -125 OFFCURVE",
"477 -95 CURVE SMOOTH",
"477 -28 OFFCURVE",
"517 12 OFFCURVE",
"572 64 CURVE"
);
},
{
closed = 1;
nodes = (
"510 624 LINE",
"510 299 LINE SMOOTH",
"510 179 OFFCURVE",
"459 144 OFFCURVE",
"382 144 CURVE SMOOTH",
"308 144 OFFCURVE",
"254 187 OFFCURVE",
"254 299 CURVE SMOOTH",
"254 622 LINE",
"92 620 LINE",
"92 309 LINE SMOOTH",
"92 110 OFFCURVE",
"219 -10 OFFCURVE",
"379 -10 CURVE SMOOTH",
"541 -10 OFFCURVE",
"669 110 OFFCURVE",
"669 318 CURVE SMOOTH",
"669 625 LINE"
);
},
{
closed = 1;
nodes = (
"25 606 LINE",
"322 606 LINE",
"322 740 LINE",
"25 740 LINE"
);
},
{
closed = 1;
nodes = (
"431 606 LINE",
"728 606 LINE",
"728 740 LINE",
"431 740 LINE"
);
}
);
};
components = (
{
name = U.alt1;
},
{
name = serif.top;
transform = "{0.9, 0, 0, 1, -38, 40}";
},
{
name = serif.top;
transform = "{0.9, 0, 0, 1, 368, 40}";
}
);
layerId = UUID0;
paths = (
{
closed = 1;
nodes = (
"552 -230 OFFCURVE",
"591 -215 OFFCURVE",
"608 -203 CURVE",
"584 -122 LINE",
"571 -128 OFFCURVE",
"550 -138 OFFCURVE",
"525 -138 CURVE SMOOTH",
"501 -138 OFFCURVE",
"477 -125 OFFCURVE",
"477 -95 CURVE SMOOTH",
"477 -28 OFFCURVE",
"517 12 OFFCURVE",
"572 64 CURVE",
"538 103 LINE",
"471 68 OFFCURVE",
"362 -17 OFFCURVE",
"362 -116 CURVE SMOOTH",
"362 -203 OFFCURVE",
"438 -230 OFFCURVE",
"507 -230 CURVE SMOOTH"
);
}
);
width = 762;
},
{
background = {
paths = (
{
closed = 1;
nodes = (
"553 76 LINE",
"470 30 OFFCURVE",
"409 -23 OFFCURVE",
"409 -108 CURVE SMOOTH",
"409 -193 OFFCURVE",
"477 -230 OFFCURVE",
"548 -230 CURVE SMOOTH",
"593 -230 OFFCURVE",
"629 -216 OFFCURVE",
"649 -205 CURVE",
"628 -145 LINE",
"615 -151 OFFCURVE",
"584 -158 OFFCURVE",
"559 -158 CURVE SMOOTH",
"526 -158 OFFCURVE",
"494 -137 OFFCURVE",
"494 -93 CURVE SMOOTH",
"494 -32 OFFCURVE",
"527 0 OFFCURVE",
"601 72 CURVE"
);
},
{
closed = 1;
nodes = (
"595 701 LINE",
"595 313 LINE SMOOTH",
"595 142 OFFCURVE",
"520 81 OFFCURVE",
"407 81 CURVE SMOOTH",
"296 81 OFFCURVE",
"219 146 OFFCURVE",
"219 313 CURVE SMOOTH",
"219 697 LINE",
"123 697 LINE",
"123 313 LINE SMOOTH",
"123 110 OFFCURVE",
"245 -10 OFFCURVE",
"403 -10 CURVE SMOOTH",
"563 -10 OFFCURVE",
"689 109 OFFCURVE",
"689 322 CURVE SMOOTH",
"689 702 LINE"
);
},
{
closed = 1;
nodes = (
"55 656 LINE",
"295 656 LINE",
"295 740 LINE",
"55 740 LINE"
);
},
{
closed = 1;
nodes = (
"515 656 LINE",
"755 656 LINE",
"755 740 LINE",
"515 740 LINE"
);
}
);
};
components = (
{
name = U.alt1;
},
{
name = serif.top;
transform = "{1, 0, 0, 1, -28, 40}";
},
{
name = serif.top;
transform = "{1, 0, 0, 1, 432, 40}";
}
);
layerId = UUID1;
paths = (
{
closed = 1;
nodes = (
"593 -230 OFFCURVE",
"629 -216 OFFCURVE",
"649 -205 CURVE",
"628 -145 LINE",
"615 -151 OFFCURVE",
"584 -158 OFFCURVE",
"559 -158 CURVE SMOOTH",
"526 -158 OFFCURVE",
"494 -137 OFFCURVE",
"494 -93 CURVE SMOOTH",
"494 -32 OFFCURVE",
"527 0 OFFCURVE",
"601 72 CURVE",
"553 76 LINE",
"470 30 OFFCURVE",
"409 -23 OFFCURVE",
"409 -108 CURVE SMOOTH",
"409 -193 OFFCURVE",
"477 -230 OFFCURVE",
"548 -230 CURVE SMOOTH"
);
}
);
width = 761;
}
);
unicode = 0172;
},
{
color = 4;
glyphname = V;
lastChange = "2016-08-14 20:23:35 +0000";
layers = (
{
anchors = (
{
name = top;
position = "{376, 700}";
}
);
background = {
paths = (
{
closed = 1;
nodes = (
"273 0 LINE",
"473 0 LINE",
"697 685 LINE",
"530 685 LINE",
"377 186 LINE",
"224 685 LINE",
"56 685 LINE"
);
},
{
closed = 1;
nodes = (
"10 606 LINE",
"327 606 LINE",
"327 740 LINE",
"10 740 LINE"
);
},
{
closed = 1;
nodes = (
"420 606 LINE",
"737 606 LINE",
"737 740 LINE",
"420 740 LINE"
);
}
);
};
components = (
{
name = serif.top;
transform = "{0.96, 0, 0, 1, -57, 40}";
},
{
name = serif.top;
transform = "{0.96, 0, 0, 1, 353, 40}";
}
);
layerId = UUID0;
paths = (
{
closed = 1;
nodes = (
"473 0 LINE",
"697 685 LINE",
"530 685 LINE",
"377 186 LINE",
"224 685 LINE",
"56 685 LINE",
"273 0 LINE"
);
}
);
width = 747;
},
{
anchors = (
{
name = top;
position = "{369, 700}";
}
);
background = {
paths = (
{
closed = 1;
nodes = (
"297 0 LINE",
"431 0 LINE",
"686 697 LINE",
"577 697 LINE",
"361 85 LINE",
"158 697 LINE",
"46 697 LINE"
);
},
{
closed = 1;
nodes = (
"-5 656 LINE",
"235 656 LINE",
"235 740 LINE",
"-5 740 LINE"
);
},
{
closed = 1;
nodes = (
"495 656 LINE",
"735 656 LINE",
"735 740 LINE",
"495 740 LINE"
);
}
);
};
components = (
{
name = serif.top;
transform = "{1, 0, 0, 1, -78, 40}";
},
{
name = serif.top;
transform = "{1, 0, 0, 1, 397, 40}";
}
);
layerId = UUID1;
paths = (
{
closed = 1;
nodes = (
"434 0 LINE",
"660 697 LINE",
"558 697 LINE",
"361 85 LINE",
"168 697 LINE",
"57 697 LINE",
"285 0 LINE"
);
}
);
width = 725;
}
);
unicode = 0056;
},
{
color = 4;
glyphname = W;
lastChange = "2016-08-14 20:23:35 +0000";
layers = (
{
anchors = (
{
name = top;
position = "{587, 700}";
}
);
background = {
paths = (
{
closed = 1;
nodes = (
"258 0 LINE",
"467 0 LINE",
"581 462 LINE",
"693 0 LINE",
"904 0 LINE",
"1081 630 LINE",
"917 630 LINE",
"801 207 LINE",
"672 739 LINE",
"490 739 LINE",
"359 207 LINE",
"244 628 LINE",
"78 628 LINE"
);
},
{
closed = 1;
nodes = (
"10 606 LINE",
"327 606 LINE",
"327 740 LINE",
"10 740 LINE"
);
},
{
closed = 1;
nodes = (
"824 606 LINE",
"1141 606 LINE",
"1141 740 LINE",
"824 740 LINE"
);
}
);
};
components = (
{
name = serif.top;
transform = "{0.96, 0, 0, 1, -57, 40}";
},
{
name = serif.top;
transform = "{0.96, 0, 0, 1, 757, 40}";
}
);
layerId = UUID0;
paths = (
{
closed = 1;
nodes = (
"467 0 LINE",
"581 462 LINE",
"693 0 LINE",
"904 0 LINE",
"1081 630 LINE",
"917 630 LINE",
"801 207 LINE",
"672 739 LINE",
"490 739 LINE",
"359 207 LINE",
"244 628 LINE",
"78 628 LINE",
"258 0 LINE"
);
}
);
width = 1151;
},
{
anchors = (
{
name = top;
position = "{578, 700}";
}
);
background = {
paths = (
{
closed = 1;
nodes = (
"287 0 LINE",
"435 0 LINE",
"619 645 LINE",
"820 0 LINE",
"969 0 LINE",
"1194 697 LINE",
"1092 697 LINE",
"896 87 LINE",
"695 740 LINE",
"549 740 LINE",
"360 87 LINE",
"169 697 LINE",
"55 697 LINE"
);
},
{
closed = 1;
nodes = (
"3 656 LINE",
"243 656 LINE",
"243 740 LINE",
"3 740 LINE"
);
},
{
closed = 1;
nodes = (
"1006 656 LINE",
"1246 656 LINE",
"1246 740 LINE",
"1006 740 LINE"
);
}
);
};
components = (
{
name = serif.top;
transform = "{1, 0, 0, 1, -80, 40}";
},
{
name = serif.top;
transform = "{1, 0, 0, 1, 780, 40}";
}
);
layerId = UUID1;
paths = (
{
closed = 1;
nodes = (
"398 0 LINE",
"555 572 LINE",
"713 0 LINE",
"849 0 LINE",
"1054 697 LINE",
"961 697 LINE",
"783 87 LINE",
"609 740 LINE",
"509 740 LINE",
"331 87 LINE",
"156 697 LINE",
"55 697 LINE",
"262 0 LINE"
);
}
);
width = 1120;
}
);
unicode = 0057;
},
{
color = 4;
glyphname = X;
lastChange = "2016-08-14 20:23:35 +0000";
layers = (
{
anchors = (
{
name = top;
position = "{380, 700}";
}
);
background = {
paths = (
{
closed = 1;
nodes = (
"48 132 LINE",
"223 91 LINE",
"712 612 LINE",
"535 652 LINE"
);
},
{
closed = 1;
nodes = (
"527 94 LINE",
"710 129 LINE",
"216 652 LINE",
"36 619 LINE"
);
},
{
closed = 1;
nodes = (
"417 0 LINE",
"731 0 LINE",
"731 134 LINE",
"417 134 LINE"
);
},
{
closed = 1;
nodes = (
"419 606 LINE",
"733 606 LINE",
"733 740 LINE",
"419 740 LINE"
);
},
{
closed = 1;
nodes = (
"18 606 LINE",
"332 606 LINE",
"332 740 LINE",
"18 740 LINE"
);
},
{
closed = 1;
nodes = (
"16 0 LINE",
"330 0 LINE",
"330 134 LINE",
"16 134 LINE"
);
}
);
};
components = (
{
name = serif.bot;
transform = "{0.95, 0, 0, 1, 351, 0}";
},
{
name = serif.top;
transform = "{0.95, 0, 0, 1, 353, 40}";
},
{
name = serif.top;
transform = "{0.95, 0, 0, 1, -48, 40}";
},
{
name = serif.bot;
transform = "{0.95, 0, 0, 1, -50, 0}";
}
);
layerId = UUID0;
paths = (
{
closed = 1;
nodes = (
"710 129 LINE",
"216 652 LINE",
"36 619 LINE",
"527 94 LINE"
);
},
{
closed = 1;
nodes = (
"712 612 LINE",
"535 652 LINE",
"48 132 LINE",
"223 91 LINE"
);
}
);
width = 770;
},
{
anchors = (
{
name = top;
position = "{380, 700}";
}
);
background = {
paths = (
{
closed = 1;
nodes = (
"125 75 LINE",
"206 41 LINE",
"661 672 LINE",
"576 704 LINE"
);
},
{
closed = 1;
nodes = (
"583 44 LINE",
"666 73 LINE",
"213 711 LINE",
"128 677 LINE"
);
},
{
closed = 1;
nodes = (
"464 0 LINE",
"704 0 LINE",
"704 84 LINE",
"464 84 LINE"
);
},
{
closed = 1;
nodes = (
"464 656 LINE",
"704 656 LINE",
"704 740 LINE",
"464 740 LINE"
);
},
{
closed = 1;
nodes = (
"83 656 LINE",
"323 656 LINE",
"323 740 LINE",
"83 740 LINE"
);
},
{
closed = 1;
nodes = (
"83 0 LINE",
"323 0 LINE",
"323 84 LINE",
"83 84 LINE"
);
}
);
};
components = (
{
name = serif.bot;
transform = "{1, 0, 0, 1, 381, 0}";
},
{
name = serif.top;
transform = "{1, 0, 0, 1, 381, 40}";
},
{
name = serif.top;
transform = "{1, 0, 0, 1, 0, 40}";
},
{
name = serif.bot;
}
);
layerId = UUID1;
paths = (
{
closed = 1;
nodes = (
"666 73 LINE",
"213 711 LINE",
"128 677 LINE",
"583 44 LINE"
);
},
{
closed = 1;
nodes = (
"661 672 LINE",
"576 704 LINE",
"125 75 LINE",
"206 41 LINE"
);
}
);
width = 758;
}
);
unicode = 0058;
},
{
color = 4;
glyphname = Y;
lastChange = "2016-08-14 17:38:38 +0000";
layers = (
{
anchors = (
{
name = top;
position = "{384, 740}";
}
);
background = {
paths = (
{
closed = 1;
nodes = (
"679 614 LINE",
"487 614 LINE",
"377 436 LINE",
"272 616 LINE",
"81 616 LINE",
"311 286 LINE",
"295 387 LINE",
"295 113 LINE",
"453 113 LINE",
"453 385 LINE",
"436 284 LINE"
);
},
{
closed = 1;
nodes = (
"23 606 LINE",
"340 606 LINE",
"340 740 LINE",
"23 740 LINE"
);
},
{
closed = 1;
nodes = (
"411 606 LINE",
"728 606 LINE",
"728 740 LINE",
"411 740 LINE"
);
},
{
closed = 1;
nodes = (
"213 0 LINE",
"543 0 LINE",
"543 134 LINE",
"213 134 LINE"
);
}
);
};
components = (
{
name = serif.top;
transform = "{0.96, 0, 0, 1, -44, 40}";
},
{
name = serif.top;
transform = "{0.96, 0, 0, 1, 344, 40}";
},
{
name = serif.bot;
transform = "{1, 0, 0, 1, 143, 0}";
},
{
name = Y.alt1;
}
);
layerId = UUID0;
width = 750;
},
{
anchors = (
{
name = top;
position = "{344, 740}";
}
);
background = {
paths = (
{
closed = 1;
nodes = (
"597 677 LINE",
"496 677 LINE",
"334 418 LINE",
"181 679 LINE",
"68 679 LINE",
"286 331 LINE",
"279 370 LINE",
"279 54 LINE",
"375 54 LINE",
"375 370 LINE",
"370 333 LINE"
);
},
{
closed = 1;
nodes = (
"25 656 LINE",
"265 656 LINE",
"265 740 LINE",
"25 740 LINE"
);
},
{
closed = 1;
nodes = (
"406 656 LINE",
"646 656 LINE",
"646 740 LINE",
"406 740 LINE"
);
},
{
closed = 1;
nodes = (
"211 0 LINE",
"451 0 LINE",
"451 84 LINE",
"211 84 LINE"
);
}
);
};
components = (
{
name = serif.top;
transform = "{1, 0, 0, 1, -58, 40}";
},
{
name = serif.top;
transform = "{1, 0, 0, 1, 323, 40}";
},
{
name = serif.bot;
transform = "{1, 0, 0, 1, 128, 0}";
},
{
name = Y.alt1;
}
);
layerId = UUID1;
width = 661;
}
);
unicode = 0059;
},
{
color = 4;
glyphname = Yacute;
lastChange = "2016-08-14 17:38:38 +0000";
layers = (
{
background = {
paths = (
{
closed = 1;
nodes = (
"679 614 LINE",
"487 614 LINE",
"377 436 LINE",
"272 616 LINE",
"81 616 LINE",
"311 286 LINE",
"295 387 LINE",
"295 113 LINE",
"453 113 LINE",
"453 385 LINE",
"436 284 LINE"
);
},
{
closed = 1;
nodes = (
"23 606 LINE",
"340 606 LINE",
"340 740 LINE",
"23 740 LINE"
);
},
{
closed = 1;
nodes = (
"411 606 LINE",
"728 606 LINE",
"728 740 LINE",
"411 740 LINE"
);
},
{
closed = 1;
nodes = (
"213 0 LINE",
"543 0 LINE",
"543 134 LINE",
"213 134 LINE"
);
},
{
closed = 1;
nodes = (
"334 809 LINE",
"449 809 LINE",
"598 949 LINE",
"598 961 LINE",
"439 961 LINE"
);
}
);
};
components = (
{
name = serif.top;
transform = "{0.96, 0, 0, 1, -44, 40}";
},
{
name = serif.top;
transform = "{0.96, 0, 0, 1, 344, 40}";
},
{
name = serif.bot;
transform = "{1, 0, 0, 1, 143, 0}";
},
{
name = Y.alt1;
},
{
name = acute;
transform = "{1, 0, 0, 1, 314, 234}";
}
);
layerId = UUID0;
width = 750;
},
{
background = {
paths = (
{
closed = 1;
nodes = (
"597 677 LINE",
"496 677 LINE",
"334 418 LINE",
"181 679 LINE",
"68 679 LINE",
"286 331 LINE",
"279 370 LINE",
"279 54 LINE",
"375 54 LINE",
"375 370 LINE",
"370 333 LINE"
);
},
{
closed = 1;
nodes = (
"25 656 LINE",
"265 656 LINE",
"265 740 LINE",
"25 740 LINE"
);
},
{
closed = 1;
nodes = (
"406 656 LINE",
"646 656 LINE",
"646 740 LINE",
"406 740 LINE"
);
},
{
closed = 1;
nodes = (
"211 0 LINE",
"451 0 LINE",
"451 84 LINE",
"211 84 LINE"
);
},
{
closed = 1;
nodes = (
"276 809 LINE",
"351 809 LINE",
"497 947 LINE",
"497 955 LINE",
"380 955 LINE"
);
}
);
};
components = (
{
name = serif.top;
transform = "{1, 0, 0, 1, -58, 40}";
},
{
name = serif.top;
transform = "{1, 0, 0, 1, 323, 40}";
},
{
name = serif.bot;
transform = "{1, 0, 0, 1, 128, 0}";
},
{
name = Y.alt1;
},
{
name = acute;
transform = "{1, 0, 0, 1, 235, 234}";
}
);
layerId = UUID1;
width = 661;
}
);
unicode = 00DD;
},
{
color = 4;
glyphname = Z;
lastChange = "2016-08-14 20:23:35 +0000";
layers = (
{
anchors = (
{
name = top;
position = "{328, 740}";
}
);
background = {
paths = (
{
closed = 1;
nodes = (
"593 740 LINE",
"31 740 LINE",
"31 478 LINE",
"190 478 LINE",
"190 595 LINE",
"414 595 LINE",
"415 626 LINE",
"30 153 LINE",
"30 0 LINE",
"592 0 LINE",
"592 260 LINE",
"433 260 LINE",
"433 145 LINE",
"186 145 LINE",
"187 100 LINE",
"593 587 LINE"
);
}
);
};
layerId = UUID0;
paths = (
{
closed = 1;
nodes = (
"592 0 LINE",
"592 260 LINE",
"433 260 LINE",
"433 145 LINE",
"186 145 LINE",
"187 100 LINE",
"593 587 LINE",
"593 740 LINE",
"31 740 LINE",
"31 478 LINE",
"190 478 LINE",
"190 595 LINE",
"414 595 LINE",
"415 626 LINE",
"30 153 LINE",
"30 0 LINE"
);
}
);
width = 623;
},
{
anchors = (
{
name = top;
position = "{301, 740}";
}
);
background = {
paths = (
{
closed = 1;
nodes = (
"568 740 LINE",
"33 740 LINE",
"33 531 LINE",
"129 531 LINE",
"129 656 LINE",
"496 656 LINE",
"474 668 LINE",
"25 111 LINE",
"25 0 LINE",
"565 0 LINE",
"565 207 LINE",
"469 207 LINE",
"469 84 LINE",
"102 84 LINE",
"110 69 LINE",
"568 631 LINE"
);
}
);
};
layerId = UUID1;
paths = (
{
closed = 1;
nodes = (
"565 0 LINE",
"565 207 LINE",
"469 207 LINE",
"469 84 LINE",
"102 84 LINE",
"110 69 LINE",
"568 631 LINE",
"568 740 LINE",
"33 740 LINE",
"33 531 LINE",
"129 531 LINE",
"129 656 LINE",
"496 656 LINE",
"474 668 LINE",
"25 111 LINE",
"25 0 LINE"
);
}
);
width = 593;
}
);
unicode = 005A;
},
{
export = 0;
glyphname = A.alt1;
lastChange = "2016-08-14 20:23:35 +0000";
layers = (
{
layerId = UUID0;
paths = (
{
closed = 1;
nodes = (
"209 111 LINE",
"362 606 LINE",
"517 111 LINE",
"671 111 LINE",
"466 740 LINE",
"270 740 LINE",
"61 111 LINE"
);
},
{
closed = 1;
nodes = (
"535 240 LINE",
"484 365 LINE",
"222 365 LINE",
"177 240 LINE"
);
}
);
width = 728;
},
{
layerId = UUID1;
paths = (
{
closed = 1;
nodes = (
"145 37 LINE",
"359 664 LINE",
"577 39 LINE",
"682 39 LINE",
"436 740 LINE",
"292 740 LINE",
"45 37 LINE"
);
},
{
closed = 1;
nodes = (
"556 252 LINE",
"525 333 LINE",
"219 333 LINE",
"192 252 LINE"
);
}
);
width = 731;
}
);
},
{
export = 0;
glyphname = D.alt1;
lastChange = "2016-08-14 20:23:35 +0000";
layers = (
{
layerId = UUID0;
paths = (
{
closed = 1;
nodes = (
"324 0 LINE SMOOTH",
"527 0 OFFCURVE",
"687 166 OFFCURVE",
"687 371 CURVE SMOOTH",
"687 576 OFFCURVE",
"527 740 OFFCURVE",
"324 740 CURVE SMOOTH",
"40 740 LINE",
"40 606 LINE",
"323 606 LINE SMOOTH",
"429 606 OFFCURVE",
"515 503 OFFCURVE",
"515 371 CURVE SMOOTH",
"515 239 OFFCURVE",
"429 134 OFFCURVE",
"323 134 CURVE SMOOTH",
"40 134 LINE",
"40 0 LINE"
);
}
);
width = 717;
},
{
layerId = UUID1;
paths = (
{
closed = 1;
nodes = (
"349 0 LINE SMOOTH",
"552 0 OFFCURVE",
"705 166 OFFCURVE",
"705 372 CURVE SMOOTH",
"705 576 OFFCURVE",
"552 740 OFFCURVE",
"349 740 CURVE SMOOTH",
"68 740 LINE",
"68 656 LINE",
"355 656 LINE SMOOTH",
"492 656 OFFCURVE",
"603 531 OFFCURVE",
"603 372 CURVE SMOOTH",
"603 211 OFFCURVE",
"492 84 OFFCURVE",
"355 84 CURVE SMOOTH",
"68 84 LINE",
"68 0 LINE"
);
}
);
width = 740;
}
);
},
{
export = 0;
glyphname = E.alt1;
lastChange = "2016-08-14 20:23:35 +0000";
layers = (
{
layerId = UUID0;
paths = (
{
closed = 1;
nodes = (
"644 0 LINE",
"644 265 LINE",
"485 265 LINE",
"485 134 LINE",
"55 134 LINE",
"55 0 LINE"
);
},
{
closed = 1;
nodes = (
"442 305 LINE",
"442 447 LINE",
"182 447 LINE",
"182 305 LINE"
);
},
{
closed = 1;
nodes = (
"644 488 LINE",
"644 740 LINE",
"55 740 LINE",
"55 593 LINE",
"485 593 LINE",
"485 488 LINE"
);
}
);
width = 674;
},
{
layerId = UUID1;
paths = (
{
closed = 1;
nodes = (
"590 531 LINE",
"590 740 LINE",
"60 740 LINE",
"60 656 LINE",
"490 656 LINE",
"490 531 LINE"
);
},
{
closed = 1;
nodes = (
"590 0 LINE",
"590 209 LINE",
"490 209 LINE",
"490 84 LINE",
"60 84 LINE",
"60 0 LINE"
);
},
{
closed = 1;
nodes = (
"448 335 LINE",
"448 419 LINE",
"184 419 LINE",
"184 335 LINE"
);
}
);
width = 618;
}
);
},
{
export = 0;
glyphname = M.alt1;
lastChange = "2016-08-14 20:23:35 +0000";
layers = (
{
layerId = UUID0;
paths = (
{
closed = 1;
nodes = (
"641 9 LINE",
"889 625 LINE",
"863 665 LINE",
"863 101 LINE",
"1021 101 LINE",
"1021 606 LINE",
"1090 606 LINE",
"1090 740 LINE",
"781 740 LINE",
"539 102 LINE",
"621 102 LINE",
"360 740 LINE",
"55 740 LINE",
"55 606 LINE",
"124 606 LINE",
"124 101 LINE",
"277 101 LINE",
"282 662 LINE",
"253 613 LINE",
"504 9 LINE"
);
}
);
width = 1145;
},
{
layerId = UUID1;
paths = (
{
closed = 1;
nodes = (
"585 0 LINE",
"860 693 LINE",
"844 683 LINE",
"844 61 LINE",
"935 61 LINE",
"935 647 LINE",
"1012 647 LINE",
"1012 740 LINE",
"783 740 LINE",
"526 50 LINE",
"562 55 LINE",
"310 740 LINE",
"70 740 LINE",
"70 647 LINE",
"146 647 LINE",
"146 61 LINE",
"240 61 LINE",
"240 693 LINE",
"226 688 LINE",
"502 0 LINE"
);
}
);
width = 1062;
}
);
},
{
export = 0;
glyphname = N.alt1;
lastChange = "2016-08-14 20:23:35 +0000";
layers = (
{
layerId = UUID0;
paths = (
{
closed = 1;
nodes = (
"744 0 LINE",
"744 629 LINE",
"586 629 LINE",
"586 244 LINE",
"597 238 LINE",
"280 741 LINE",
"56 741 LINE",
"56 606 LINE",
"116 606 LINE",
"116 112 LINE",
"274 112 LINE",
"274 533 LINE",
"253 511 LINE",
"582 0 LINE"
);
}
);
width = 829;
},
{
layerId = UUID1;
paths = (
{
closed = 1;
nodes = (
"683 0 LINE",
"683 682 LINE",
"589 682 LINE",
"589 106 LINE",
"604 104 LINE",
"247 741 LINE",
"52 741 LINE",
"52 656 LINE",
"118 656 LINE",
"118 60 LINE",
"214 60 LINE",
"214 648 LINE",
"195 648 LINE",
"558 0 LINE"
);
}
);
width = 764;
}
);
},
{
export = 0;
glyphname = P.alt1;
lastChange = "2016-08-14 20:23:35 +0000";
layers = (
{
layerId = UUID0;
paths = (
{
closed = 1;
nodes = (
"397 0 LINE SMOOTH",
"549 0 OFFCURVE",
"658 103 OFFCURVE",
"658 237 CURVE SMOOTH",
"658 356 OFFCURVE",
"577 465 OFFCURVE",
"397 465 CURVE SMOOTH",
"174 465 LINE",
"174 331 LINE",
"361 331 LINE SMOOTH",
"435 331 OFFCURVE",
"482 302 OFFCURVE",
"482 234 CURVE SMOOTH",
"482 171 OFFCURVE",
"440 134 OFFCURVE",
"361 134 CURVE SMOOTH",
"55 134 LINE",
"55 0 LINE"
);
}
);
width = 634;
},
{
layerId = UUID1;
paths = (
{
closed = 1;
nodes = (
"378 0 LINE SMOOTH",
"513 0 OFFCURVE",
"609 101 OFFCURVE",
"609 220 CURVE SMOOTH",
"609 341 OFFCURVE",
"517 431 OFFCURVE",
"379 431 CURVE SMOOTH",
"185 431 LINE",
"185 347 LINE",
"371 347 LINE SMOOTH",
"465 347 OFFCURVE",
"508 287 OFFCURVE",
"508 215 CURVE SMOOTH",
"508 138 OFFCURVE",
"456 84 OFFCURVE",
"375 84 CURVE SMOOTH",
"57 84 LINE",
"57 0 LINE"
);
}
);
width = 633;
}
);
},
{
export = 0;
glyphname = U.alt1;
lastChange = "2016-08-14 20:23:35 +0000";
layers = (
{
layerId = UUID0;
paths = (
{
closed = 1;
nodes = (
"541 -10 OFFCURVE",
"669 110 OFFCURVE",
"669 318 CURVE SMOOTH",
"669 625 LINE",
"510 624 LINE",
"510 299 LINE SMOOTH",
"510 179 OFFCURVE",
"459 144 OFFCURVE",
"382 144 CURVE SMOOTH",
"308 144 OFFCURVE",
"254 187 OFFCURVE",
"254 299 CURVE SMOOTH",
"254 622 LINE",
"92 620 LINE",
"92 309 LINE SMOOTH",
"92 110 OFFCURVE",
"219 -10 OFFCURVE",
"379 -10 CURVE SMOOTH"
);
}
);
width = 762;
},
{
layerId = UUID1;
paths = (
{
closed = 1;
nodes = (
"563 -10 OFFCURVE",
"689 111 OFFCURVE",
"689 322 CURVE SMOOTH",
"689 702 LINE",
"584 701 LINE",
"584 313 LINE SMOOTH",
"584 145 OFFCURVE",
"513 96 OFFCURVE",
"407 96 CURVE SMOOTH",
"305 96 OFFCURVE",
"230 156 OFFCURVE",
"230 313 CURVE SMOOTH",
"230 699 LINE",
"123 697 LINE",
"123 313 LINE SMOOTH",
"123 111 OFFCURVE",
"247 -10 OFFCURVE",
"403 -10 CURVE SMOOTH"
);
}
);
width = 761;
}
);
},
{
export = 0;
glyphname = Y.alt1;
lastChange = "2016-08-14 20:23:35 +0000";
layers = (
{
layerId = UUID0;
paths = (
{
closed = 1;
nodes = (
"453 113 LINE",
"453 385 LINE",
"436 284 LINE",
"679 614 LINE",
"487 614 LINE",
"377 436 LINE",
"272 616 LINE",
"81 616 LINE",
"311 286 LINE",
"295 387 LINE",
"295 113 LINE"
);
}
);
width = 750;
},
{
layerId = UUID1;
paths = (
{
closed = 1;
nodes = (
"375 54 LINE",
"375 370 LINE",
"370 333 LINE",
"597 677 LINE",
"496 677 LINE",
"334 418 LINE",
"181 679 LINE",
"68 679 LINE",
"286 331 LINE",
"279 370 LINE",
"279 54 LINE"
);
}
);
width = 661;
}
);
},
{
export = 0;
glyphname = C.alt2;
lastChange = "2016-10-11 17:14:11 +0000";
layers = (
{
anchors = (
{
name = bottom;
position = "{387, 0}";
},
{
name = top;
position = "{387, 700}";
}
);
layerId = UUID0;
paths = (
{
closed = 1;
nodes = (
"554 -10 OFFCURVE",
"686 97 OFFCURVE",
"729 255 CURVE",
"549 256 LINE",
"525 199 OFFCURVE",
"474 155 OFFCURVE",
"390 155 CURVE SMOOTH",
"282 155 OFFCURVE",
"197 253 OFFCURVE",
"197 371 CURVE SMOOTH",
"197 491 OFFCURVE",
"281 589 OFFCURVE",
"390 589 CURVE SMOOTH",
"458 589 OFFCURVE",
"523 546 OFFCURVE",
"550 488 CURVE",
"731 488 LINE",
"690 643 OFFCURVE",
"548 753 OFFCURVE",
"390 753 CURVE SMOOTH",
"190 753 OFFCURVE",
"32 581 OFFCURVE",
"32 371 CURVE SMOOTH",
"32 162 OFFCURVE",
"189 -10 OFFCURVE",
"390 -10 CURVE SMOOTH"
);
},
{
closed = 1;
nodes = (
"733 107 LINE",
"733 255 LINE",
"566 255 LINE",
"580 107 LINE"
);
},
{
closed = 1;
nodes = (
"736 488 LINE",
"736 636 LINE",
"569 636 LINE",
"583 488 LINE"
);
}
);
width = 772;
},
{
anchors = (
{
name = bottom;
position = "{387, 0}";
},
{
name = top;
position = "{387, 700}";
}
);
layerId = UUID1;
paths = (
{
closed = 1;
nodes = (
"542 -12 OFFCURVE",
"645 74 OFFCURVE",
"705 201 CURVE",
"617 241 LINE",
"566 134 OFFCURVE",
"502 80 OFFCURVE",
"390 80 CURVE SMOOTH",
"240 80 OFFCURVE",
"136 215 OFFCURVE",
"136 371 CURVE SMOOTH",
"136 527 OFFCURVE",
"239 663 OFFCURVE",
"390 663 CURVE SMOOTH",
"491 663 OFFCURVE",
"565 604 OFFCURVE",
"608 530 CURVE",
"709 542 LINE",
"658 655 OFFCURVE",
"560 754 OFFCURVE",
"390 754 CURVE SMOOTH",
"183 754 OFFCURVE",
"37 579 OFFCURVE",
"37 371 CURVE SMOOTH",
"37 164 OFFCURVE",
"182 -12 OFFCURVE",
"390 -12 CURVE SMOOTH"
);
},
{
closed = 1;
nodes = (
"721 530 LINE",
"721 616 LINE",
"608 616 LINE",
"608 530 LINE"
);
},
{
closed = 1;
nodes = (
"721 530 LINE",
"721 616 LINE",
"608 616 LINE",
"608 530 LINE"
);
}
);
width = 773;
}
);
},
{
export = 0;
glyphname = N.alt2;
lastChange = "2016-08-14 20:23:35 +0000";
layers = (
{
layerId = UUID0;
paths = (
{
closed = 1;
nodes = (
"274 0 LINE",
"608 521 LINE",
"587 543 LINE",
"587 112 LINE",
"745 112 LINE",
"745 606 LINE",
"805 606 LINE",
"805 741 LINE",
"587 741 LINE",
"264 228 LINE",
"275 234 LINE",
"275 629 LINE",
"117 629 LINE",
"117 134 LINE",
"55 134 LINE",
"55 0 LINE"
);
}
);
width = 829;
},
{
layerId = UUID1;
paths = (
{
closed = 1;
nodes = (
"232 0 LINE",
"605 648 LINE",
"586 648 LINE",
"586 60 LINE",
"682 60 LINE",
"682 656 LINE",
"748 656 LINE",
"748 741 LINE",
"563 741 LINE",
"196 104 LINE",
"211 106 LINE",
"211 682 LINE",
"117 682 LINE",
"117 86 LINE",
"50 86 LINE",
"50 0 LINE"
);
}
);
width = 764;
}
);
},
{
export = 0;
glyphname = C.alt3;
lastChange = "2016-08-14 20:23:35 +0000";
layers = (
{
layerId = UUID0;
paths = (
{
closed = 1;
nodes = (
"554 -10 OFFCURVE",
"691 105 OFFCURVE",
"734 263 CURVE",
"574 307 LINE",
"547 218 OFFCURVE",
"474 155 OFFCURVE",
"390 155 CURVE SMOOTH",
"282 155 OFFCURVE",
"197 253 OFFCURVE",
"197 371 CURVE SMOOTH",
"197 491 OFFCURVE",
"281 589 OFFCURVE",
"390 589 CURVE SMOOTH",
"458 589 OFFCURVE",
"523 546 OFFCURVE",
"550 488 CURVE",
"731 488 LINE",
"690 643 OFFCURVE",
"548 753 OFFCURVE",
"390 753 CURVE SMOOTH",
"190 753 OFFCURVE",
"32 581 OFFCURVE",
"32 371 CURVE SMOOTH",
"32 162 OFFCURVE",
"189 -10 OFFCURVE",
"390 -10 CURVE SMOOTH"
);
},
{
closed = 1;
nodes = (
"731 740 LINE",
"583 740 LINE",
"583 511 LINE",
"731 488 LINE"
);
}
);
width = 772;
},
{
layerId = UUID1;
paths = (
{
closed = 1;
nodes = (
"542 -12 OFFCURVE",
"645 74 OFFCURVE",
"705 201 CURVE",
"617 241 LINE",
"566 134 OFFCURVE",
"502 80 OFFCURVE",
"390 80 CURVE SMOOTH",
"240 80 OFFCURVE",
"136 215 OFFCURVE",
"136 371 CURVE SMOOTH",
"136 527 OFFCURVE",
"239 663 OFFCURVE",
"390 663 CURVE SMOOTH",
"491 663 OFFCURVE",
"565 604 OFFCURVE",
"608 530 CURVE",
"709 542 LINE",
"658 655 OFFCURVE",
"560 754 OFFCURVE",
"390 754 CURVE SMOOTH",
"183 754 OFFCURVE",
"37 579 OFFCURVE",
"37 371 CURVE SMOOTH",
"37 164 OFFCURVE",
"182 -12 OFFCURVE",
"390 -12 CURVE SMOOTH"
);
},
{
closed = 1;
nodes = (
"721 530 LINE",
"721 616 LINE",
"608 616 LINE",
"608 530 LINE"
);
}
);
width = 773;
}
);
},
{
export = 0;
glyphname = G.alt3;
lastChange = "2016-08-14 20:23:35 +0000";
layers = (
{
layerId = UUID0;
paths = (
{
closed = 1;
nodes = (
"558 -10 OFFCURVE",
"631 48 OFFCURVE",
"708 134 CURVE",
"708 381 LINE",
"549 307 LINE",
"549 205 LINE",
"513 171 OFFCURVE",
"481 152 OFFCURVE",
"404 152 CURVE SMOOTH",
"282 152 OFFCURVE",
"197 253 OFFCURVE",
"197 371 CURVE SMOOTH",
"197 491 OFFCURVE",
"281 589 OFFCURVE",
"390 589 CURVE SMOOTH",
"462 589 OFFCURVE",
"523 544 OFFCURVE",
"556 479 CURVE",
"617 479 LINE",
"729 498 LINE",
"682 646 OFFCURVE",
"549 753 OFFCURVE",
"390 753 CURVE SMOOTH",
"190 753 OFFCURVE",
"32 581 OFFCURVE",
"32 371 CURVE SMOOTH",
"32 162 OFFCURVE",
"189 -10 OFFCURVE",
"390 -10 CURVE SMOOTH"
);
},
{
closed = 1;
nodes = (
"786 268 LINE",
"786 402 LINE",
"456 402 LINE",
"456 268 LINE"
);
},
{
closed = 1;
nodes = (
"746 479 LINE",
"746 626 LINE",
"569 626 LINE",
"569 479 LINE"
);
}
);
width = 816;
},
{
layerId = UUID1;
paths = (
{
closed = 1;
nodes = (
"530 -12 OFFCURVE",
"654 70 OFFCURVE",
"717 190 CURVE",
"725 213 LINE",
"670 244 LINE",
"643 259 LINE",
"611 145 OFFCURVE",
"510 80 OFFCURVE",
"390 80 CURVE SMOOTH",
"240 80 OFFCURVE",
"136 215 OFFCURVE",
"136 371 CURVE SMOOTH",
"136 527 OFFCURVE",
"239 663 OFFCURVE",
"390 663 CURVE SMOOTH",
"503 663 OFFCURVE",
"589 587 OFFCURVE",
"626 484 CURVE",
"664 485 LINE",
"713 530 LINE",
"660 661 OFFCURVE",
"542 754 OFFCURVE",
"390 754 CURVE SMOOTH",
"183 754 OFFCURVE",
"37 579 OFFCURVE",
"37 371 CURVE SMOOTH",
"37 164 OFFCURVE",
"182 -12 OFFCURVE",
"390 -12 CURVE SMOOTH"
);
},
{
closed = 1;
nodes = (
"323 616 LINE",
"323 700 LINE",
"83 700 LINE",
"83 616 LINE"
);
},
{
closed = 1;
nodes = (
"744 484 LINE",
"744 568 LINE",
"631 568 LINE",
"631 484 LINE"
);
}
);
width = 784;
}
);
},
{
export = 0;
glyphname = N.alt3;
lastChange = "2016-08-14 20:23:35 +0000";
layers = (
{
layerId = UUID0;
paths = (
{
closed = 1;
nodes = (
"259 0 LINE",
"538 299 LINE",
"523 308 LINE",
"523 47 LINE",
"674 47 LINE",
"674 371 LINE",
"734 371 LINE",
"734 506 LINE",
"532 506 LINE",
"247 195 LINE",
"268 180 LINE",
"268 446 LINE",
"117 446 LINE",
"117 134 LINE",
"55 134 LINE",
"55 0 LINE"
);
}
);
width = 829;
},
{
layerId = UUID1;
paths = (
{
closed = 1;
nodes = (
"238 0 LINE",
"541 446 LINE",
"509 439 LINE",
"509 32 LINE",
"601 32 LINE",
"601 420 LINE",
"667 420 LINE",
"667 506 LINE",
"494 506 LINE",
"210 86 LINE",
"229 72 LINE",
"229 475 LINE",
"137 475 LINE",
"137 84 LINE",
"70 84 LINE",
"70 0 LINE"
);
}
);
width = 746;
}
);
},
{
export = 0;
glyphname = B.check;
lastChange = "2016-10-12 15:24:42 +0000";
layers = (
{
anchors = (
{
name = top;
position = "{373, 700}";
}
);
layerId = UUID0;
paths = (
{
closed = 1;
nodes = (
"427 0 LINE SMOOTH",
"553 0 OFFCURVE",
"651 95 OFFCURVE",
"651 229 CURVE SMOOTH",
"651 349 OFFCURVE",
"549 403 OFFCURVE",
"415 418 CURVE",
"408 332 LINE",
"552 337 OFFCURVE",
"644 383 OFFCURVE",
"644 516 CURVE SMOOTH",
"644 638 OFFCURVE",
"550 740 OFFCURVE",
"416 740 CURVE SMOOTH",
"55 741 LINE",
"55 606 LINE",
"409 606 LINE SMOOTH",
"446 606 OFFCURVE",
"476 561 OFFCURVE",
"476 521 CURVE SMOOTH",
"476 480 OFFCURVE",
"446 440 OFFCURVE",
"409 440 CURVE SMOOTH",
"198 440 LINE",
"198 306 LINE",
"416 306 LINE SMOOTH",
"453 306 OFFCURVE",
"484 269 OFFCURVE",
"484 221 CURVE SMOOTH",
"484 176 OFFCURVE",
"454 134 OFFCURVE",
"416 134 CURVE SMOOTH",
"55 134 LINE",
"55 0 LINE"
);
},
{
closed = 1;
nodes = (
"293 681 LINE",
"131 681 LINE",
"131 45 LINE",
"293 45 LINE"
);
}
);
width = 677;
},
{
anchors = (
{
name = top;
position = "{335, 700}";
}
);
layerId = UUID1;
paths = (
{
closed = 1;
nodes = (
"393 0 LINE SMOOTH",
"513 0 OFFCURVE",
"609 97 OFFCURVE",
"609 220 CURVE SMOOTH",
"609 317 OFFCURVE",
"512 403 OFFCURVE",
"387 403 CURVE",
"371 347 LINE",
"515 347 OFFCURVE",
"605 426 OFFCURVE",
"605 524 CURVE SMOOTH",
"605 645 OFFCURVE",
"509 740 OFFCURVE",
"389 740 CURVE SMOOTH",
"70 741 LINE",
"70 656 LINE",
"390 656 LINE SMOOTH",
"451 656 OFFCURVE",
"501 591 OFFCURVE",
"501 527 CURVE SMOOTH",
"501 468 OFFCURVE",
"452 414 OFFCURVE",
"390 414 CURVE SMOOTH",
"190 414 LINE",
"187 329 LINE",
"394 329 LINE SMOOTH",
"455 329 OFFCURVE",
"505 275 OFFCURVE",
"505 218 CURVE SMOOTH",
"505 152 OFFCURVE",
"456 84 OFFCURVE",
"394 84 CURVE SMOOTH",
"70 84 LINE",
"70 0 LINE"
);
},
{
closed = 1;
nodes = (
"222 51 LINE",
"222 685 LINE",
"126 685 LINE",
"126 51 LINE"
);
}
);
width = 646;
}
);
},
{
export = 0;
glyphname = K.legs;
lastChange = "2016-08-14 20:23:35 +0000";
layers = (
{
layerId = UUID0;
paths = (
{
closed = 1;
nodes = (
"778 0 LINE",
"778 145 LINE",
"718 145 LINE",
"455 411 LINE",
"452 359 LINE",
"728 596 LINE",
"783 596 LINE",
"783 740 LINE",
"531 740 LINE",
"531 597 LINE",
"290 387 LINE",
"532 145 LINE",
"532 0 LINE"
);
}
);
width = 808;
},
{
layerId = UUID1;
paths = (
{
closed = 1;
nodes = (
"728 0 LINE",
"728 84 LINE",
"649 84 LINE",
"323 405 LINE",
"308 351 LINE",
"670 656 LINE",
"728 656 LINE",
"728 740 LINE",
"558 740 LINE",
"558 656 LINE",
"235 378 LINE",
"529 84 LINE",
"529 0 LINE"
);
}
);
width = 763;
}
);
},
{
export = 0;
glyphname = R.rev;
lastChange = "2016-08-14 20:23:35 +0000";
layers = (
{
anchors = (
{
name = top;
position = "{367, 660}";
}
);
layerId = UUID0;
paths = (
{
closed = 1;
nodes = (
"608 295 LINE",
"608 427 LINE",
"391 427 LINE SMOOTH",
"317 427 OFFCURVE",
"270 454 OFFCURVE",
"270 515 CURVE SMOOTH",
"270 572 OFFCURVE",
"312 606 OFFCURVE",
"391 606 CURVE SMOOTH",
"727 606 LINE",
"727 740 LINE",
"335 740 LINE SMOOTH",
"183 740 OFFCURVE",
"94 642 OFFCURVE",
"94 532 CURVE SMOOTH",
"94 404 OFFCURVE",
"167 360 OFFCURVE",
"291 316 CURVE",
"341 295 LINE"
);
},
{
closed = 1;
nodes = (
"270 0 LINE",
"299 176 LINE SMOOTH",
"311 260 OFFCURVE",
"346 295 OFFCURVE",
"425 295 CURVE",
"257 359 LINE",
"207 355 OFFCURVE",
"160 318 OFFCURVE",
"142 240 CURVE SMOOTH",
"117 144 LINE",
"56 144 LINE",
"55 0 LINE"
);
},
{
closed = 1;
nodes = (
"727 0 LINE",
"727 134 LINE",
"420 134 LINE",
"420 0 LINE"
);
},
{
closed = 1;
nodes = (
"650 61 LINE",
"650 665 LINE",
"488 665 LINE",
"488 61 LINE"
);
}
);
width = 747;
},
{
anchors = (
{
name = top;
position = "{336, 660}";
}
);
layerId = UUID1;
paths = (
{
closed = 1;
nodes = (
"549 343 LINE",
"549 423 LINE",
"353 423 LINE SMOOTH",
"279 423 OFFCURVE",
"226 463 OFFCURVE",
"226 539 CURVE SMOOTH",
"226 613 OFFCURVE",
"268 656 OFFCURVE",
"365 656 CURVE SMOOTH",
"664 656 LINE",
"664 741 LINE",
"353 740 LINE SMOOTH",
"221 740 OFFCURVE",
"125 671 OFFCURVE",
"125 540 CURVE SMOOTH",
"125 449 OFFCURVE",
"209 360 OFFCURVE",
"312 356 CURVE",
"400 343 LINE"
);
},
{
closed = 1;
nodes = (
"214 0 LINE",
"269 225 LINE SMOOTH",
"289 306 OFFCURVE",
"328 343 OFFCURVE",
"400 343 CURVE",
"280 371 LINE",
"242 370 OFFCURVE",
"193 323 OFFCURVE",
"176 254 CURVE SMOOTH",
"135 93 LINE",
"71 93 LINE",
"70 0 LINE"
);
},
{
closed = 1;
nodes = (
"659 0 LINE",
"659 84 LINE",
"419 84 LINE",
"419 0 LINE"
);
},
{
closed = 1;
nodes = (
"591 51 LINE",
"591 685 LINE",
"495 685 LINE",
"495 51 LINE"
);
}
);
width = 715;
}
);
},
{
export = 0;
glyphname = R.super;
lastChange = "2016-08-14 20:23:35 +0000";
layers = (
{
anchors = (
{
name = top;
position = "{367, 660}";
}
);
layerId = UUID0;
paths = (
{
closed = 1;
nodes = (
"489 252 LINE",
"488 358 LINE",
"451 358 LINE",
"441 399 LINE SMOOTH",
"430 453 OFFCURVE",
"401 471 OFFCURVE",
"364 475 CURVE",
"275 435 LINE",
"425 469 OFFCURVE",
"471 495 OFFCURVE",
"471 587 CURVE SMOOTH",
"471 649 OFFCURVE",
"417 723 OFFCURVE",
"312 723 CURVE SMOOTH",
"39 723 LINE",
"39 617 LINE",
"258 617 LINE SMOOTH",
"301 617 OFFCURVE",
"328 599 OFFCURVE",
"328 570 CURVE SMOOTH",
"328 537 OFFCURVE",
"300 525 OFFCURVE",
"253 525 CURVE SMOOTH",
"116 525 LINE",
"116 419 LINE",
"253 419 LINE SMOOTH",
"307 419 OFFCURVE",
"311 398 OFFCURVE",
"315 344 CURVE SMOOTH",
"323 252 LINE"
);
},
{
closed = 1;
nodes = (
"260 252 LINE",
"260 358 LINE",
"37 358 LINE",
"37 252 LINE"
);
},
{
closed = 1;
nodes = (
"220 295 LINE",
"220 667 LINE",
"90 667 LINE",
"90 295 LINE"
);
}
);
width = 502;
},
{
anchors = (
{
name = top;
position = "{330, 660}";
}
);
layerId = UUID1;
paths = (
{
closed = 1;
nodes = (
"451 250 LINE",
"450 327 LINE",
"410 327 LINE",
"390 409 LINE SMOOTH",
"379 458 OFFCURVE",
"348 484 OFFCURVE",
"318 486 CURVE",
"313 466 LINE",
"385 487 OFFCURVE",
"423 521 OFFCURVE",
"423 597 CURVE SMOOTH",
"423 673 OFFCURVE",
"363 731 OFFCURVE",
"268 731 CURVE SMOOTH",
"32 731 LINE",
"32 654 LINE",
"240 654 LINE SMOOTH",
"296 654 OFFCURVE",
"323 630 OFFCURVE",
"323 590 CURVE SMOOTH",
"323 546 OFFCURVE",
"292 527 OFFCURVE",
"244 527 CURVE SMOOTH",
"109 527 LINE",
"109 451 LINE",
"207 451 LINE SMOOTH",
"258 451 OFFCURVE",
"292 428 OFFCURVE",
"301 374 CURVE SMOOTH",
"326 250 LINE"
);
},
{
closed = 1;
nodes = (
"219 250 LINE",
"219 327 LINE",
"34 327 LINE",
"34 250 LINE"
);
},
{
closed = 1;
nodes = (
"174 288 LINE",
"174 686 LINE",
"82 686 LINE",
"82 288 LINE"
);
}
);
width = 468;
}
);
},
{
color = 4;
glyphname = a;
lastChange = "2016-08-14 20:24:57 +0000";
layers = (
{
anchors = (
{
name = bottom;
position = "{291, 0}";
},
{
name = ogonek;
position = "{523, 10}";
},
{
name = top;
position = "{254, 506}";
}
);
background = {
paths = (
{
closed = 1;
nodes = (
"354 145 LINE",
"328 122 OFFCURVE",
"287 103 OFFCURVE",
"239 103 CURVE SMOOTH",
"195 103 OFFCURVE",
"173 126 OFFCURVE",
"173 156 CURVE SMOOTH",
"173 188 OFFCURVE",
"203 206 OFFCURVE",
"233 206 CURVE SMOOTH",
"288 206 OFFCURVE",
"316 206 OFFCURVE",
"353 206 CURVE",
"357 297 LINE",
"323 305 OFFCURVE",
"283 311 OFFCURVE",
"234 311 CURVE SMOOTH",
"108 311 OFFCURVE",
"35 244 OFFCURVE",
"35 150 CURVE SMOOTH",
"35 58 OFFCURVE",
"107 -12 OFFCURVE",
"228 -12 CURVE SMOOTH",
"278 -12 OFFCURVE",
"307 -1 OFFCURVE",
"354 30 CURVE"
);
},
{
closed = 1;
nodes = (
"350 0 LINE",
"493 0 LINE",
"493 107 OFFCURVE",
"493 212 OFFCURVE",
"493 318 CURVE SMOOTH",
"493 464 OFFCURVE",
"402 517 OFFCURVE",
"275 517 CURVE SMOOTH",
"194 517 OFFCURVE",
"121 492 OFFCURVE",
"55 447 CURVE",
"102 352 LINE",
"145 375 OFFCURVE",
"189 387 OFFCURVE",
"250 387 CURVE SMOOTH",
"309 387 OFFCURVE",
"350 365 OFFCURVE",
"350 314 CURVE SMOOTH",
"350 94 LINE"
);
},
{
closed = 1;
nodes = (
"363 0 LINE",
"561 0 LINE",
"561 134 LINE",
"363 134 LINE"
);
}
);
};
components = (
{
name = serif.bot;
transform = "{0.6, 0, 0, 1, 321, 0}";
},
{
name = a.alt1;
}
);
layerId = UUID0;
width = 581;
},
{
anchors = (
{
name = bottom;
position = "{255, 0}";
},
{
name = ogonek;
position = "{458, 10}";
},
{
name = top;
position = "{254, 506}";
}
);
background = {
paths = (
{
closed = 1;
nodes = (
"351 123 LINE",
"328 92 OFFCURVE",
"275 62 OFFCURVE",
"223 62 CURVE SMOOTH",
"163 62 OFFCURVE",
"122 90 OFFCURVE",
"122 144 CURVE SMOOTH",
"122 201 OFFCURVE",
"171 233 OFFCURVE",
"241 233 CURVE SMOOTH",
"279 233 OFFCURVE",
"316 233 OFFCURVE",
"354 233 CURVE",
"360 282 LINE",
"333 291 OFFCURVE",
"295 296 OFFCURVE",
"244 296 CURVE SMOOTH",
"156 296 OFFCURVE",
"34 261 OFFCURVE",
"34 134 CURVE SMOOTH",
"34 53 OFFCURVE",
"104 -14 OFFCURVE",
"203 -14 CURVE SMOOTH",
"272 -14 OFFCURVE",
"325 22 OFFCURVE",
"366 68 CURVE"
);
},
{
closed = 1;
nodes = (
"346 0 LINE",
"436 0 LINE",
"436 112 OFFCURVE",
"437 225 OFFCURVE",
"437 337 CURVE SMOOTH",
"437 463 OFFCURVE",
"365 517 OFFCURVE",
"248 517 CURVE SMOOTH",
"184 517 OFFCURVE",
"114 494 OFFCURVE",
"66 463 CURVE",
"96 400 LINE",
"125 419 OFFCURVE",
"178 437 OFFCURVE",
"239 437 CURVE SMOOTH",
"304 437 OFFCURVE",
"347 404 OFFCURVE",
"347 332 CURVE SMOOTH",
"346 95 LINE"
);
},
{
closed = 1;
nodes = (
"349 0 LINE",
"493 0 LINE",
"493 84 LINE",
"349 84 LINE"
);
}
);
};
components = (
{
name = serif.bot;
transform = "{0.6, 0, 0, 1, 290, 0}";
},
{
name = a.alt1;
}
);
layerId = UUID1;
width = 509;
}
);
unicode = 0061;
},
{
color = 4;
glyphname = aacute;
lastChange = "2016-08-14 17:38:38 +0000";
layers = (
{
background = {
paths = (
{
closed = 1;
nodes = (
"354 145 LINE",
"328 122 OFFCURVE",
"287 103 OFFCURVE",
"239 103 CURVE SMOOTH",
"195 103 OFFCURVE",
"173 126 OFFCURVE",
"173 156 CURVE SMOOTH",
"173 188 OFFCURVE",
"203 206 OFFCURVE",
"233 206 CURVE SMOOTH",
"288 206 OFFCURVE",
"316 206 OFFCURVE",
"353 206 CURVE",
"357 297 LINE",
"323 305 OFFCURVE",
"283 311 OFFCURVE",
"234 311 CURVE SMOOTH",
"108 311 OFFCURVE",
"35 244 OFFCURVE",
"35 150 CURVE SMOOTH",
"35 58 OFFCURVE",
"107 -12 OFFCURVE",
"228 -12 CURVE SMOOTH",
"278 -12 OFFCURVE",
"307 -1 OFFCURVE",
"354 30 CURVE"
);
},
{
closed = 1;
nodes = (
"350 0 LINE",
"493 0 LINE",
"493 107 OFFCURVE",
"493 212 OFFCURVE",
"493 318 CURVE SMOOTH",
"493 464 OFFCURVE",
"402 517 OFFCURVE",
"275 517 CURVE SMOOTH",
"194 517 OFFCURVE",
"121 492 OFFCURVE",
"55 447 CURVE",
"102 352 LINE",
"145 375 OFFCURVE",
"189 387 OFFCURVE",
"250 387 CURVE SMOOTH",
"309 387 OFFCURVE",
"350 365 OFFCURVE",
"350 314 CURVE SMOOTH",
"350 94 LINE"
);
},
{
closed = 1;
nodes = (
"363 0 LINE",
"561 0 LINE",
"561 134 LINE",
"363 134 LINE"
);
},
{
closed = 1;
nodes = (
"204 575 LINE",
"319 575 LINE",
"468 715 LINE",
"468 727 LINE",
"309 727 LINE"
);
}
);
};
components = (
{
name = serif.bot;
transform = "{0.6, 0, 0, 1, 321, 0}";
},
{
name = a.alt1;
},
{
name = acute;
transform = "{1, 0, 0, 1, 184, 0}";
}
);
layerId = UUID0;
width = 581;
},
{
background = {
paths = (
{
closed = 1;
nodes = (
"351 123 LINE",
"328 92 OFFCURVE",
"275 62 OFFCURVE",
"223 62 CURVE SMOOTH",
"163 62 OFFCURVE",
"122 90 OFFCURVE",
"122 144 CURVE SMOOTH",
"122 201 OFFCURVE",
"171 233 OFFCURVE",
"241 233 CURVE SMOOTH",
"279 233 OFFCURVE",
"316 233 OFFCURVE",
"354 233 CURVE",
"360 282 LINE",
"333 291 OFFCURVE",
"295 296 OFFCURVE",
"244 296 CURVE SMOOTH",
"156 296 OFFCURVE",
"34 261 OFFCURVE",
"34 134 CURVE SMOOTH",
"34 53 OFFCURVE",
"104 -14 OFFCURVE",
"203 -14 CURVE SMOOTH",
"272 -14 OFFCURVE",
"325 22 OFFCURVE",
"366 68 CURVE"
);
},
{
closed = 1;
nodes = (
"346 0 LINE",
"436 0 LINE",
"436 112 OFFCURVE",
"437 225 OFFCURVE",
"437 337 CURVE SMOOTH",
"437 463 OFFCURVE",
"365 517 OFFCURVE",
"248 517 CURVE SMOOTH",
"184 517 OFFCURVE",
"114 494 OFFCURVE",
"66 463 CURVE",
"96 400 LINE",
"125 419 OFFCURVE",
"178 437 OFFCURVE",
"239 437 CURVE SMOOTH",
"304 437 OFFCURVE",
"347 404 OFFCURVE",
"347 332 CURVE SMOOTH",
"346 95 LINE"
);
},
{
closed = 1;
nodes = (
"349 0 LINE",
"493 0 LINE",
"493 84 LINE",
"349 84 LINE"
);
},
{
closed = 1;
nodes = (
"186 575 LINE",
"261 575 LINE",
"407 713 LINE",
"407 721 LINE",
"290 721 LINE"
);
}
);
};
components = (
{
name = serif.bot;
transform = "{0.6, 0, 0, 1, 290, 0}";
},
{
name = a.alt1;
},
{
name = acute;
transform = "{1, 0, 0, 1, 145, 0}";
}
);
layerId = UUID1;
width = 509;
}
);
unicode = 00E1;
},
{
color = 4;
glyphname = acircumflex;
lastChange = "2016-08-14 17:38:38 +0000";
layers = (
{
background = {
paths = (
{
closed = 1;
nodes = (
"354 145 LINE",
"328 122 OFFCURVE",
"287 103 OFFCURVE",
"239 103 CURVE SMOOTH",
"195 103 OFFCURVE",
"173 126 OFFCURVE",
"173 156 CURVE SMOOTH",
"173 188 OFFCURVE",
"203 206 OFFCURVE",
"233 206 CURVE SMOOTH",
"288 206 OFFCURVE",
"316 206 OFFCURVE",
"353 206 CURVE",
"357 297 LINE",
"323 305 OFFCURVE",
"283 311 OFFCURVE",
"234 311 CURVE SMOOTH",
"108 311 OFFCURVE",
"35 244 OFFCURVE",
"35 150 CURVE SMOOTH",
"35 58 OFFCURVE",
"107 -12 OFFCURVE",
"228 -12 CURVE SMOOTH",
"278 -12 OFFCURVE",
"307 -1 OFFCURVE",
"354 30 CURVE"
);
},
{
closed = 1;
nodes = (
"350 0 LINE",
"493 0 LINE",
"493 107 OFFCURVE",
"493 212 OFFCURVE",
"493 318 CURVE SMOOTH",
"493 464 OFFCURVE",
"402 517 OFFCURVE",
"275 517 CURVE SMOOTH",
"194 517 OFFCURVE",
"121 492 OFFCURVE",
"55 447 CURVE",
"102 352 LINE",
"145 375 OFFCURVE",
"189 387 OFFCURVE",
"250 387 CURVE SMOOTH",
"309 387 OFFCURVE",
"350 365 OFFCURVE",
"350 314 CURVE SMOOTH",
"350 94 LINE"
);
},
{
closed = 1;
nodes = (
"363 0 LINE",
"561 0 LINE",
"561 134 LINE",
"363 134 LINE"
);
},
{
closed = 1;
nodes = (
"80 574 LINE",
"213 733 LINE",
"330 733 LINE",
"464 574 LINE",
"344 574 LINE",
"272 649 LINE",
"201 574 LINE"
);
}
);
};
components = (
{
name = serif.bot;
transform = "{0.6, 0, 0, 1, 321, 0}";
},
{
name = a.alt1;
},
{
name = circumflex;
transform = "{1, 0, 0, 1, 38, 0}";
}
);
layerId = UUID0;
width = 581;
},
{
background = {
paths = (
{
closed = 1;
nodes = (
"351 123 LINE",
"328 92 OFFCURVE",
"275 62 OFFCURVE",
"223 62 CURVE SMOOTH",
"163 62 OFFCURVE",
"122 90 OFFCURVE",
"122 144 CURVE SMOOTH",
"122 201 OFFCURVE",
"171 233 OFFCURVE",
"241 233 CURVE SMOOTH",
"279 233 OFFCURVE",
"316 233 OFFCURVE",
"354 233 CURVE",
"360 282 LINE",
"333 291 OFFCURVE",
"295 296 OFFCURVE",
"244 296 CURVE SMOOTH",
"156 296 OFFCURVE",
"34 261 OFFCURVE",
"34 134 CURVE SMOOTH",
"34 53 OFFCURVE",
"104 -14 OFFCURVE",
"203 -14 CURVE SMOOTH",
"272 -14 OFFCURVE",
"325 22 OFFCURVE",
"366 68 CURVE"
);
},
{
closed = 1;
nodes = (
"346 0 LINE",
"436 0 LINE",
"436 112 OFFCURVE",
"437 225 OFFCURVE",
"437 337 CURVE SMOOTH",
"437 463 OFFCURVE",
"365 517 OFFCURVE",
"248 517 CURVE SMOOTH",
"184 517 OFFCURVE",
"114 494 OFFCURVE",
"66 463 CURVE",
"96 400 LINE",
"125 419 OFFCURVE",
"178 437 OFFCURVE",
"239 437 CURVE SMOOTH",
"304 437 OFFCURVE",
"347 404 OFFCURVE",
"347 332 CURVE SMOOTH",
"346 95 LINE"
);
},
{
closed = 1;
nodes = (
"349 0 LINE",
"493 0 LINE",
"493 84 LINE",
"349 84 LINE"
);
},
{
closed = 1;
nodes = (
"128 574 LINE",
"250 727 LINE",
"281 727 LINE",
"404 574 LINE",
"331 574 LINE",
"266 650 LINE",
"200 574 LINE"
);
}
);
};
components = (
{
name = serif.bot;
transform = "{0.6, 0, 0, 1, 290, 0}";
},
{
name = a.alt1;
},
{
name = circumflex;
transform = "{1, 0, 0, 1, 22, 0}";
}
);
layerId = UUID1;
width = 509;
}
);
unicode = 00E2;
},
{
color = 4;
glyphname = adieresis;
lastChange = "2016-10-12 15:33:50 +0000";
layers = (
{
background = {
paths = (
{
closed = 1;
nodes = (
"354 145 LINE",
"328 122 OFFCURVE",
"287 103 OFFCURVE",
"239 103 CURVE SMOOTH",
"195 103 OFFCURVE",
"173 126 OFFCURVE",
"173 156 CURVE SMOOTH",
"173 188 OFFCURVE",
"203 206 OFFCURVE",
"233 206 CURVE SMOOTH",
"288 206 OFFCURVE",
"316 206 OFFCURVE",
"353 206 CURVE",
"357 297 LINE",
"323 305 OFFCURVE",
"283 311 OFFCURVE",
"234 311 CURVE SMOOTH",
"108 311 OFFCURVE",
"35 244 OFFCURVE",
"35 150 CURVE SMOOTH",
"35 58 OFFCURVE",
"107 -12 OFFCURVE",
"228 -12 CURVE SMOOTH",
"278 -12 OFFCURVE",
"307 -1 OFFCURVE",
"354 30 CURVE"
);
},
{
closed = 1;
nodes = (
"350 0 LINE",
"493 0 LINE",
"493 107 OFFCURVE",
"493 212 OFFCURVE",
"493 318 CURVE SMOOTH",
"493 464 OFFCURVE",
"402 517 OFFCURVE",
"275 517 CURVE SMOOTH",
"194 517 OFFCURVE",
"121 492 OFFCURVE",
"55 447 CURVE",
"102 352 LINE",
"145 375 OFFCURVE",
"189 387 OFFCURVE",
"250 387 CURVE SMOOTH",
"309 387 OFFCURVE",
"350 365 OFFCURVE",
"350 314 CURVE SMOOTH",
"350 94 LINE"
);
},
{
closed = 1;
nodes = (
"363 0 LINE",
"561 0 LINE",
"561 134 LINE",
"363 134 LINE"
);
},
{
closed = 1;
nodes = (
"51 607 OFFCURVE",
"89 568 OFFCURVE",
"138 568 CURVE SMOOTH",
"185 568 OFFCURVE",
"224 607 OFFCURVE",
"224 655 CURVE SMOOTH",
"224 703 OFFCURVE",
"185 742 OFFCURVE",
"138 742 CURVE SMOOTH",
"89 742 OFFCURVE",
"51 703 OFFCURVE",
"51 655 CURVE SMOOTH"
);
},
{
closed = 1;
nodes = (
"285 607 OFFCURVE",
"323 568 OFFCURVE",
"372 568 CURVE SMOOTH",
"419 568 OFFCURVE",
"458 607 OFFCURVE",
"458 655 CURVE SMOOTH",
"458 703 OFFCURVE",
"419 742 OFFCURVE",
"372 742 CURVE SMOOTH",
"323 742 OFFCURVE",
"285 703 OFFCURVE",
"285 655 CURVE SMOOTH"
);
}
);
};
components = (
{
name = a;
},
{
name = dieresiscomb;
transform = "{1, 0, 0, 1, -50, 0}";
}
);
layerId = UUID0;
width = 581;
},
{
background = {
paths = (
{
closed = 1;
nodes = (
"351 123 LINE",
"328 92 OFFCURVE",
"275 62 OFFCURVE",
"223 62 CURVE SMOOTH",
"163 62 OFFCURVE",
"122 90 OFFCURVE",
"122 144 CURVE SMOOTH",
"122 201 OFFCURVE",
"171 233 OFFCURVE",
"241 233 CURVE SMOOTH",
"279 233 OFFCURVE",
"316 233 OFFCURVE",
"354 233 CURVE",
"360 282 LINE",
"333 291 OFFCURVE",
"295 296 OFFCURVE",
"244 296 CURVE SMOOTH",
"156 296 OFFCURVE",
"34 261 OFFCURVE",
"34 134 CURVE SMOOTH",
"34 53 OFFCURVE",
"104 -14 OFFCURVE",
"203 -14 CURVE SMOOTH",
"272 -14 OFFCURVE",
"325 22 OFFCURVE",
"366 68 CURVE"
);
},
{
closed = 1;
nodes = (
"346 0 LINE",
"436 0 LINE",
"436 112 OFFCURVE",
"437 225 OFFCURVE",
"437 337 CURVE SMOOTH",
"437 463 OFFCURVE",
"365 517 OFFCURVE",
"248 517 CURVE SMOOTH",
"184 517 OFFCURVE",
"114 494 OFFCURVE",
"66 463 CURVE",
"96 400 LINE",
"125 419 OFFCURVE",
"178 437 OFFCURVE",
"239 437 CURVE SMOOTH",
"304 437 OFFCURVE",
"347 404 OFFCURVE",
"347 332 CURVE SMOOTH",
"346 95 LINE"
);
},
{
closed = 1;
nodes = (
"349 0 LINE",
"493 0 LINE",
"493 84 LINE",
"349 84 LINE"
);
},
{
closed = 1;
nodes = (
"72 629 OFFCURVE",
"101 599 OFFCURVE",
"135 599 CURVE SMOOTH",
"168 599 OFFCURVE",
"196 629 OFFCURVE",
"196 664 CURVE SMOOTH",
"196 698 OFFCURVE",
"168 727 OFFCURVE",
"135 727 CURVE SMOOTH",
"101 727 OFFCURVE",
"72 698 OFFCURVE",
"72 664 CURVE SMOOTH"
);
},
{
closed = 1;
nodes = (
"296 629 OFFCURVE",
"325 599 OFFCURVE",
"359 599 CURVE SMOOTH",
"392 599 OFFCURVE",
"420 629 OFFCURVE",
"420 664 CURVE SMOOTH",
"420 698 OFFCURVE",
"392 727 OFFCURVE",
"359 727 CURVE SMOOTH",
"325 727 OFFCURVE",
"296 698 OFFCURVE",
"296 664 CURVE SMOOTH"
);
}
);
};
components = (
{
name = a;
},
{
name = dieresiscomb;
transform = "{1, 0, 0, 1, -16, 0}";
}
);
layerId = UUID1;
width = 509;
}
);
unicode = 00E4;
},
{
color = 4;
glyphname = agrave;
lastChange = "2016-08-14 17:38:38 +0000";
layers = (
{
background = {
paths = (
{
closed = 1;
nodes = (
"354 145 LINE",
"328 122 OFFCURVE",
"287 103 OFFCURVE",
"239 103 CURVE SMOOTH",
"195 103 OFFCURVE",
"173 126 OFFCURVE",
"173 156 CURVE SMOOTH",
"173 188 OFFCURVE",
"203 206 OFFCURVE",
"233 206 CURVE SMOOTH",
"288 206 OFFCURVE",
"316 206 OFFCURVE",
"353 206 CURVE",
"357 297 LINE",
"323 305 OFFCURVE",
"283 311 OFFCURVE",
"234 311 CURVE SMOOTH",
"108 311 OFFCURVE",
"35 244 OFFCURVE",
"35 150 CURVE SMOOTH",
"35 58 OFFCURVE",
"107 -12 OFFCURVE",
"228 -12 CURVE SMOOTH",
"278 -12 OFFCURVE",
"307 -1 OFFCURVE",
"354 30 CURVE"
);
},
{
closed = 1;
nodes = (
"350 0 LINE",
"493 0 LINE",
"493 107 OFFCURVE",
"493 212 OFFCURVE",
"493 318 CURVE SMOOTH",
"493 464 OFFCURVE",
"402 517 OFFCURVE",
"275 517 CURVE SMOOTH",
"194 517 OFFCURVE",
"121 492 OFFCURVE",
"55 447 CURVE",
"102 352 LINE",
"145 375 OFFCURVE",
"189 387 OFFCURVE",
"250 387 CURVE SMOOTH",
"309 387 OFFCURVE",
"350 365 OFFCURVE",
"350 314 CURVE SMOOTH",
"350 94 LINE"
);
},
{
closed = 1;
nodes = (
"363 0 LINE",
"561 0 LINE",
"561 134 LINE",
"363 134 LINE"
);
},
{
closed = 1;
nodes = (
"214 575 LINE",
"71 715 LINE",
"71 727 LINE",
"230 727 LINE",
"326 575 LINE"
);
}
);
};
components = (
{
name = serif.bot;
transform = "{0.6, 0, 0, 1, 321, 0}";
},
{
name = a.alt1;
},
{
name = grave;
transform = "{1, 0, 0, 1, 19, 0}";
}
);
layerId = UUID0;
width = 581;
},
{
background = {
paths = (
{
closed = 1;
nodes = (
"351 123 LINE",
"328 92 OFFCURVE",
"275 62 OFFCURVE",
"223 62 CURVE SMOOTH",
"163 62 OFFCURVE",
"122 90 OFFCURVE",
"122 144 CURVE SMOOTH",
"122 201 OFFCURVE",
"171 233 OFFCURVE",
"241 233 CURVE SMOOTH",
"279 233 OFFCURVE",
"316 233 OFFCURVE",
"354 233 CURVE",
"360 282 LINE",
"333 291 OFFCURVE",
"295 296 OFFCURVE",
"244 296 CURVE SMOOTH",
"156 296 OFFCURVE",
"34 261 OFFCURVE",
"34 134 CURVE SMOOTH",
"34 53 OFFCURVE",
"104 -14 OFFCURVE",
"203 -14 CURVE SMOOTH",
"272 -14 OFFCURVE",
"325 22 OFFCURVE",
"366 68 CURVE"
);
},
{
closed = 1;
nodes = (
"346 0 LINE",
"436 0 LINE",
"436 112 OFFCURVE",
"437 225 OFFCURVE",
"437 337 CURVE SMOOTH",
"437 463 OFFCURVE",
"365 517 OFFCURVE",
"248 517 CURVE SMOOTH",
"184 517 OFFCURVE",
"114 494 OFFCURVE",
"66 463 CURVE",
"96 400 LINE",
"125 419 OFFCURVE",
"178 437 OFFCURVE",
"239 437 CURVE SMOOTH",
"304 437 OFFCURVE",
"347 404 OFFCURVE",
"347 332 CURVE SMOOTH",
"346 95 LINE"
);
},
{
closed = 1;
nodes = (
"349 0 LINE",
"493 0 LINE",
"493 84 LINE",
"349 84 LINE"
);
},
{
closed = 1;
nodes = (
"219 575 LINE",
"79 713 LINE",
"79 721 LINE",
"200 721 LINE",
"290 575 LINE"
);
}
);
};
components = (
{
name = serif.bot;
transform = "{0.6, 0, 0, 1, 290, 0}";
},
{
name = a.alt1;
},
{
name = grave;
transform = "{1, 0, 0, 1, 19, 0}";
}
);
layerId = UUID1;
width = 509;
}
);
unicode = 00E0;
},
{
color = 4;
glyphname = aogonek;
lastChange = "2016-08-14 20:27:53 +0000";
layers = (
{
background = {
paths = (
{
closed = 1;
nodes = (
"482 -237 OFFCURVE",
"525 -225 OFFCURVE",
"539 -217 CURVE",
"515 -136 LINE",
"502 -142 OFFCURVE",
"485 -147 OFFCURVE",
"464 -147 CURVE SMOOTH",
"437 -147 OFFCURVE",
"415 -133 OFFCURVE",
"415 -99 CURVE SMOOTH",
"415 -53 OFFCURVE",
"451 0 OFFCURVE",
"536 0 CURVE SMOOTH",
"560 0 LINE",
"560 134 LINE",
"385 134 LINE",
"385 0 LINE",
"343 -25 OFFCURVE",
"315 -65 OFFCURVE",
"315 -116 CURVE SMOOTH",
"315 -202 OFFCURVE",
"373 -237 OFFCURVE",
"452 -237 CURVE SMOOTH"
);
}
);
};
layerId = UUID0;
paths = (
{
closed = 1;
nodes = (
"493 0 LINE",
"493 107 OFFCURVE",
"493 212 OFFCURVE",
"493 318 CURVE SMOOTH",
"493 464 OFFCURVE",
"402 517 OFFCURVE",
"275 517 CURVE SMOOTH",
"194 517 OFFCURVE",
"121 492 OFFCURVE",
"55 447 CURVE",
"102 352 LINE",
"145 375 OFFCURVE",
"189 387 OFFCURVE",
"250 387 CURVE SMOOTH",
"309 387 OFFCURVE",
"350 365 OFFCURVE",
"350 314 CURVE SMOOTH",
"350 94 LINE",
"388 55 LINE",
"387 0 LINE"
);
},
{
closed = 1;
nodes = (
"297 -12 OFFCURVE",
"355 21 OFFCURVE",
"392 51 CURVE",
"354 145 LINE",
"328 122 OFFCURVE",
"287 103 OFFCURVE",
"239 103 CURVE SMOOTH",
"195 103 OFFCURVE",
"173 126 OFFCURVE",
"173 156 CURVE SMOOTH",
"173 188 OFFCURVE",
"203 206 OFFCURVE",
"233 206 CURVE SMOOTH",
"288 206 OFFCURVE",
"316 206 OFFCURVE",
"353 206 CURVE",
"357 297 LINE",
"323 305 OFFCURVE",
"283 311 OFFCURVE",
"234 311 CURVE SMOOTH",
"108 311 OFFCURVE",
"35 244 OFFCURVE",
"35 150 CURVE SMOOTH",
"35 58 OFFCURVE",
"107 -12 OFFCURVE",
"228 -12 CURVE SMOOTH"
);
},
{
closed = 1;
nodes = (
"482 -237 OFFCURVE",
"525 -225 OFFCURVE",
"539 -217 CURVE",
"515 -136 LINE",
"502 -142 OFFCURVE",
"485 -147 OFFCURVE",
"464 -147 CURVE SMOOTH",
"437 -147 OFFCURVE",
"415 -133 OFFCURVE",
"415 -99 CURVE SMOOTH",
"415 -53 OFFCURVE",
"451 0 OFFCURVE",
"536 0 CURVE SMOOTH",
"560 0 LINE",
"560 134 LINE",
"385 134 LINE",
"385 0 LINE",
"343 -25 OFFCURVE",
"315 -65 OFFCURVE",
"315 -116 CURVE SMOOTH",
"315 -202 OFFCURVE",
"373 -237 OFFCURVE",
"452 -237 CURVE SMOOTH"
);
}
);
width = 581;
},
{
background = {
paths = (
{
closed = 1;
nodes = (
"415 -237 OFFCURVE",
"457 -225 OFFCURVE",
"471 -216 CURVE",
"446 -148 LINE",
"432 -154 OFFCURVE",
"414 -159 OFFCURVE",
"392 -159 CURVE SMOOTH",
"363 -159 OFFCURVE",
"339 -144 OFFCURVE",
"339 -110 CURVE SMOOTH",
"339 -71 OFFCURVE",
"367 0 OFFCURVE",
"459 0 CURVE SMOOTH",
"484 0 LINE",
"484 84 LINE",
"340 84 LINE",
"340 0 LINE",
"289 -14 OFFCURVE",
"247 -65 OFFCURVE",
"247 -132 CURVE SMOOTH",
"247 -180 OFFCURVE",
"287 -237 OFFCURVE",
"384 -237 CURVE SMOOTH"
);
}
);
};
layerId = UUID1;
paths = (
{
closed = 1;
nodes = (
"427 0 LINE",
"427 112 OFFCURVE",
"428 225 OFFCURVE",
"428 337 CURVE SMOOTH",
"428 463 OFFCURVE",
"356 517 OFFCURVE",
"239 517 CURVE SMOOTH",
"175 517 OFFCURVE",
"105 494 OFFCURVE",
"57 463 CURVE",
"87 400 LINE",
"116 419 OFFCURVE",
"169 437 OFFCURVE",
"230 437 CURVE SMOOTH",
"295 437 OFFCURVE",
"338 404 OFFCURVE",
"338 332 CURVE SMOOTH",
"337 95 LINE",
"337 22 LINE",
"337 0 LINE"
);
},
{
closed = 1;
nodes = (
"415 -237 OFFCURVE",
"457 -225 OFFCURVE",
"471 -216 CURVE",
"446 -148 LINE",
"432 -154 OFFCURVE",
"414 -159 OFFCURVE",
"392 -159 CURVE SMOOTH",
"363 -159 OFFCURVE",
"339 -144 OFFCURVE",
"339 -110 CURVE SMOOTH",
"339 -71 OFFCURVE",
"367 0 OFFCURVE",
"459 0 CURVE SMOOTH",
"484 0 LINE",
"484 84 LINE",
"340 84 LINE",
"340 0 LINE",
"289 -14 OFFCURVE",
"247 -65 OFFCURVE",
"247 -132 CURVE SMOOTH",
"247 -180 OFFCURVE",
"287 -237 OFFCURVE",
"384 -237 CURVE SMOOTH"
);
},
{
closed = 1;
nodes = (
"263 -14 OFFCURVE",
"316 22 OFFCURVE",
"357 68 CURVE",
"342 123 LINE",
"319 92 OFFCURVE",
"266 62 OFFCURVE",
"214 62 CURVE SMOOTH",
"154 62 OFFCURVE",
"113 90 OFFCURVE",
"113 144 CURVE SMOOTH",
"113 201 OFFCURVE",
"162 233 OFFCURVE",
"232 233 CURVE SMOOTH",
"270 233 OFFCURVE",
"307 233 OFFCURVE",
"345 233 CURVE",
"351 282 LINE",
"324 291 OFFCURVE",
"286 296 OFFCURVE",
"235 296 CURVE SMOOTH",
"147 296 OFFCURVE",
"25 261 OFFCURVE",
"25 134 CURVE SMOOTH",
"25 53 OFFCURVE",
"95 -14 OFFCURVE",
"194 -14 CURVE SMOOTH"
);
}
);
width = 509;
}
);
unicode = 0105;
},
{
color = 4;
glyphname = aring;
lastChange = "2016-08-14 17:38:38 +0000";
layers = (
{
background = {
paths = (
{
closed = 1;
nodes = (
"354 145 LINE",
"328 122 OFFCURVE",
"287 103 OFFCURVE",
"239 103 CURVE SMOOTH",
"195 103 OFFCURVE",
"173 126 OFFCURVE",
"173 156 CURVE SMOOTH",
"173 188 OFFCURVE",
"203 206 OFFCURVE",
"233 206 CURVE SMOOTH",
"288 206 OFFCURVE",
"316 206 OFFCURVE",
"353 206 CURVE",
"357 297 LINE",
"323 305 OFFCURVE",
"283 311 OFFCURVE",
"234 311 CURVE SMOOTH",
"108 311 OFFCURVE",
"35 244 OFFCURVE",
"35 150 CURVE SMOOTH",
"35 58 OFFCURVE",
"107 -12 OFFCURVE",
"228 -12 CURVE SMOOTH",
"278 -12 OFFCURVE",
"307 -1 OFFCURVE",
"354 30 CURVE"
);
},
{
closed = 1;
nodes = (
"350 0 LINE",
"493 0 LINE",
"493 107 OFFCURVE",
"493 212 OFFCURVE",
"493 318 CURVE SMOOTH",
"493 464 OFFCURVE",
"402 517 OFFCURVE",
"275 517 CURVE SMOOTH",
"194 517 OFFCURVE",
"121 492 OFFCURVE",
"55 447 CURVE",
"102 352 LINE",
"145 375 OFFCURVE",
"189 387 OFFCURVE",
"250 387 CURVE SMOOTH",
"309 387 OFFCURVE",
"350 365 OFFCURVE",
"350 314 CURVE SMOOTH",
"350 94 LINE"
);
},
{
closed = 1;
nodes = (
"363 0 LINE",
"561 0 LINE",
"561 134 LINE",
"363 134 LINE"
);
},
{
closed = 1;
nodes = (
"195 726 OFFCURVE",
"222 752 OFFCURVE",
"256 752 CURVE SMOOTH",
"290 752 OFFCURVE",
"316 726 OFFCURVE",
"316 692 CURVE SMOOTH",
"316 658 OFFCURVE",
"290 631 OFFCURVE",
"256 631 CURVE SMOOTH",
"222 631 OFFCURVE",
"195 658 OFFCURVE",
"195 692 CURVE SMOOTH"
);
},
{
closed = 1;
nodes = (
"171 847 OFFCURVE",
"101 777 OFFCURVE",
"101 692 CURVE SMOOTH",
"101 607 OFFCURVE",
"171 537 OFFCURVE",
"256 537 CURVE SMOOTH",
"341 537 OFFCURVE",
"411 607 OFFCURVE",
"411 692 CURVE SMOOTH",
"411 777 OFFCURVE",
"341 847 OFFCURVE",
"256 847 CURVE SMOOTH"
);
}
);
};
components = (
{
name = serif.bot;
transform = "{0.6, 0, 0, 1, 321, 0}";
},
{
name = a.alt1;
},
{
name = ring;
transform = "{1, 0, 0, 1, -40, 150}";
}
);
layerId = UUID0;
width = 581;
},
{
background = {
paths = (
{
closed = 1;
nodes = (
"351 123 LINE",
"328 92 OFFCURVE",
"275 62 OFFCURVE",
"223 62 CURVE SMOOTH",
"163 62 OFFCURVE",
"122 90 OFFCURVE",
"122 144 CURVE SMOOTH",
"122 201 OFFCURVE",
"171 233 OFFCURVE",
"241 233 CURVE SMOOTH",
"279 233 OFFCURVE",
"316 233 OFFCURVE",
"354 233 CURVE",
"360 282 LINE",
"333 291 OFFCURVE",
"295 296 OFFCURVE",
"244 296 CURVE SMOOTH",
"156 296 OFFCURVE",
"34 261 OFFCURVE",
"34 134 CURVE SMOOTH",
"34 53 OFFCURVE",
"104 -14 OFFCURVE",
"203 -14 CURVE SMOOTH",
"272 -14 OFFCURVE",
"325 22 OFFCURVE",
"366 68 CURVE"
);
},
{
closed = 1;
nodes = (
"346 0 LINE",
"436 0 LINE",
"436 112 OFFCURVE",
"437 225 OFFCURVE",
"437 337 CURVE SMOOTH",
"437 463 OFFCURVE",
"365 517 OFFCURVE",
"248 517 CURVE SMOOTH",
"184 517 OFFCURVE",
"114 494 OFFCURVE",
"66 463 CURVE",
"96 400 LINE",
"125 419 OFFCURVE",
"178 437 OFFCURVE",
"239 437 CURVE SMOOTH",
"304 437 OFFCURVE",
"347 404 OFFCURVE",
"347 332 CURVE SMOOTH",
"346 95 LINE"
);
},
{
closed = 1;
nodes = (
"349 0 LINE",
"493 0 LINE",
"493 84 LINE",
"349 84 LINE"
);
},
{
closed = 1;
nodes = (
"205 683 OFFCURVE",
"229 707 OFFCURVE",
"256 707 CURVE SMOOTH",
"283 707 OFFCURVE",
"307 683 OFFCURVE",
"307 656 CURVE SMOOTH",
"307 629 OFFCURVE",
"283 605 OFFCURVE",
"256 605 CURVE SMOOTH",
"229 605 OFFCURVE",
"205 629 OFFCURVE",
"205 656 CURVE SMOOTH"
);
},
{
closed = 1;
nodes = (
"188 781 OFFCURVE",
"131 724 OFFCURVE",
"131 656 CURVE SMOOTH",
"131 588 OFFCURVE",
"188 531 OFFCURVE",
"256 531 CURVE SMOOTH",
"324 531 OFFCURVE",
"381 588 OFFCURVE",
"381 656 CURVE SMOOTH",
"381 724 OFFCURVE",
"324 781 OFFCURVE",
"256 781 CURVE SMOOTH"
);
}
);
};
components = (
{
name = serif.bot;
transform = "{0.6, 0, 0, 1, 290, 0}";
},
{
name = a.alt1;
},
{
name = ring;
transform = "{1, 0, 0, 1, -42, 110}";
}
);
layerId = UUID1;
width = 509;
}
);
unicode = 00E5;
},
{
color = 4;
glyphname = atilde;
lastChange = "2016-08-14 17:38:38 +0000";
layers = (
{
background = {
paths = (
{
closed = 1;
nodes = (
"354 145 LINE",
"328 122 OFFCURVE",
"287 103 OFFCURVE",
"239 103 CURVE SMOOTH",
"195 103 OFFCURVE",
"173 126 OFFCURVE",
"173 156 CURVE SMOOTH",
"173 188 OFFCURVE",
"203 206 OFFCURVE",
"233 206 CURVE SMOOTH",
"288 206 OFFCURVE",
"316 206 OFFCURVE",
"353 206 CURVE",
"357 297 LINE",
"323 305 OFFCURVE",
"283 311 OFFCURVE",
"234 311 CURVE SMOOTH",
"108 311 OFFCURVE",
"35 244 OFFCURVE",
"35 150 CURVE SMOOTH",
"35 58 OFFCURVE",
"107 -12 OFFCURVE",
"228 -12 CURVE SMOOTH",
"278 -12 OFFCURVE",
"307 -1 OFFCURVE",
"354 30 CURVE"
);
},
{
closed = 1;
nodes = (
"350 0 LINE",
"493 0 LINE",
"493 107 OFFCURVE",
"493 212 OFFCURVE",
"493 318 CURVE SMOOTH",
"493 464 OFFCURVE",
"402 517 OFFCURVE",
"275 517 CURVE SMOOTH",
"194 517 OFFCURVE",
"121 492 OFFCURVE",
"55 447 CURVE",
"102 352 LINE",
"145 375 OFFCURVE",
"189 387 OFFCURVE",
"250 387 CURVE SMOOTH",
"309 387 OFFCURVE",
"350 365 OFFCURVE",
"350 314 CURVE SMOOTH",
"350 94 LINE"
);
},
{
closed = 1;
nodes = (
"363 0 LINE",
"561 0 LINE",
"561 134 LINE",
"363 134 LINE"
);
},
{
closed = 1;
nodes = (
"127 722 OFFCURVE",
"51 687 OFFCURVE",
"33 617 CURVE",
"107 583 LINE",
"120 600 OFFCURVE",
"140 614 OFFCURVE",
"169 614 CURVE SMOOTH",
"221 614 OFFCURVE",
"259 571 OFFCURVE",
"327 571 CURVE SMOOTH",
"388 571 OFFCURVE",
"441 617 OFFCURVE",
"461 676 CURVE",
"384 710 LINE",
"367 685 OFFCURVE",
"346 677 OFFCURVE",
"319 677 CURVE SMOOTH",
"274 677 OFFCURVE",
"226 722 OFFCURVE",
"172 722 CURVE SMOOTH"
);
}
);
};
components = (
{
name = serif.bot;
transform = "{0.6, 0, 0, 1, 321, 0}";
},
{
name = a.alt1;
},
{
name = tilde;
transform = "{1, 0, 0, 1, 28, 0}";
}
);
layerId = UUID0;
width = 581;
},
{
background = {
paths = (
{
closed = 1;
nodes = (
"351 123 LINE",
"328 92 OFFCURVE",
"275 62 OFFCURVE",
"223 62 CURVE SMOOTH",
"163 62 OFFCURVE",
"122 90 OFFCURVE",
"122 144 CURVE SMOOTH",
"122 201 OFFCURVE",
"171 233 OFFCURVE",
"241 233 CURVE SMOOTH",
"279 233 OFFCURVE",
"316 233 OFFCURVE",
"354 233 CURVE",
"360 282 LINE",
"333 291 OFFCURVE",
"295 296 OFFCURVE",
"244 296 CURVE SMOOTH",
"156 296 OFFCURVE",
"34 261 OFFCURVE",
"34 134 CURVE SMOOTH",
"34 53 OFFCURVE",
"104 -14 OFFCURVE",
"203 -14 CURVE SMOOTH",
"272 -14 OFFCURVE",
"325 22 OFFCURVE",
"366 68 CURVE"
);
},
{
closed = 1;
nodes = (
"346 0 LINE",
"436 0 LINE",
"436 112 OFFCURVE",
"437 225 OFFCURVE",
"437 337 CURVE SMOOTH",
"437 463 OFFCURVE",
"365 517 OFFCURVE",
"248 517 CURVE SMOOTH",
"184 517 OFFCURVE",
"114 494 OFFCURVE",
"66 463 CURVE",
"96 400 LINE",
"125 419 OFFCURVE",
"178 437 OFFCURVE",
"239 437 CURVE SMOOTH",
"304 437 OFFCURVE",
"347 404 OFFCURVE",
"347 332 CURVE SMOOTH",
"346 95 LINE"
);
},
{
closed = 1;
nodes = (
"349 0 LINE",
"493 0 LINE",
"493 84 LINE",
"349 84 LINE"
);
},
{
closed = 1;
nodes = (
"146 691 OFFCURVE",
"98 672 OFFCURVE",
"81 611 CURVE",
"134 585 LINE",
"144 621 OFFCURVE",
"168 623 OFFCURVE",
"187 623 CURVE SMOOTH",
"230 623 OFFCURVE",
"255 575 OFFCURVE",
"327 575 CURVE SMOOTH",
"380 575 OFFCURVE",
"420 607 OFFCURVE",
"433 662 CURVE",
"375 679 LINE",
"369 652 OFFCURVE",
"349 640 OFFCURVE",
"331 640 CURVE SMOOTH",
"280 640 OFFCURVE",
"256 691 OFFCURVE",
"191 691 CURVE SMOOTH"
);
}
);
};
components = (
{
name = serif.bot;
transform = "{0.6, 0, 0, 1, 290, 0}";
},
{
name = a.alt1;
},
{
name = tilde;
transform = "{1, 0, 0, 1, 38, 0}";
}
);
layerId = UUID1;
width = 509;
}
);
unicode = 00E3;
},
{
color = 4;
glyphname = ae;
lastChange = "2016-10-11 17:14:13 +0000";
layers = (
{
background = {
paths = (
{
closed = 1;
nodes = (
"375 157 LINE",
"341 125 OFFCURVE",
"299 103 OFFCURVE",
"239 103 CURVE SMOOTH",
"195 103 OFFCURVE",
"173 126 OFFCURVE",
"173 156 CURVE SMOOTH",
"173 188 OFFCURVE",
"203 206 OFFCURVE",
"233 206 CURVE SMOOTH",
"288 206 OFFCURVE",
"316 206 OFFCURVE",
"353 206 CURVE",
"357 297 LINE",
"323 305 OFFCURVE",
"283 311 OFFCURVE",
"234 311 CURVE SMOOTH",
"108 311 OFFCURVE",
"35 244 OFFCURVE",
"35 150 CURVE SMOOTH",
"35 58 OFFCURVE",
"107 -12 OFFCURVE",
"228 -12 CURVE SMOOTH",
"322 -12 OFFCURVE",
"382 29 OFFCURVE",
"421 71 CURVE"
);
},
{
closed = 1;
nodes = (
"347 220 LINE",
"489 250 LINE",
"489 277 OFFCURVE",
"489 281 OFFCURVE",
"489 318 CURVE SMOOTH",
"489 464 OFFCURVE",
"402 517 OFFCURVE",
"275 517 CURVE SMOOTH",
"194 517 OFFCURVE",
"121 492 OFFCURVE",
"55 447 CURVE",
"102 352 LINE",
"145 375 OFFCURVE",
"189 387 OFFCURVE",
"250 387 CURVE SMOOTH",
"309 387 OFFCURVE",
"347 365 OFFCURVE",
"347 314 CURVE SMOOTH"
);
},
{
closed = 1;
nodes = (
"414 221 LINE",
"864 221 LINE",
"865 238 OFFCURVE",
"865 254 OFFCURVE",
"863 270 CURVE SMOOTH",
"859 415 OFFCURVE",
"771 528 OFFCURVE",
"612 528 CURVE SMOOTH",
"454 528 OFFCURVE",
"346 408 OFFCURVE",
"346 260 CURVE SMOOTH",
"346 111 OFFCURVE",
"445 -13 OFFCURVE",
"621 -13 CURVE SMOOTH",
"714 -13 OFFCURVE",
"755 6 OFFCURVE",
"830 51 CURVE",
"776 151 LINE",
"728 133 OFFCURVE",
"683 117 OFFCURVE",
"624 117 CURVE SMOOTH",
"565 117 OFFCURVE",
"507 148 OFFCURVE",
"493 206 CURVE",
"491 225 OFFCURVE",
"489 244 OFFCURVE",
"490 266 CURVE",
"490 325 OFFCURVE",
"503 406 OFFCURVE",
"608 406 CURVE SMOOTH",
"677 406 OFFCURVE",
"698 368 OFFCURVE",
"707 324 CURVE",
"414 324 LINE"
);
}
);
};
components = (
{
name = e;
transform = "{1, 0, 0, 1, 321, 0}";
}
);
layerId = UUID0;
paths = (
{
closed = 1;
nodes = (
"489 250 LINE",
"489 277 OFFCURVE",
"489 281 OFFCURVE",
"489 318 CURVE SMOOTH",
"489 464 OFFCURVE",
"402 517 OFFCURVE",
"275 517 CURVE SMOOTH",
"194 517 OFFCURVE",
"121 492 OFFCURVE",
"55 447 CURVE",
"102 352 LINE",
"145 375 OFFCURVE",
"189 387 OFFCURVE",
"250 387 CURVE SMOOTH",
"309 387 OFFCURVE",
"347 365 OFFCURVE",
"347 314 CURVE SMOOTH",
"347 220 LINE"
);
},
{
closed = 1;
nodes = (
"322 -12 OFFCURVE",
"382 29 OFFCURVE",
"421 71 CURVE",
"375 157 LINE",
"341 125 OFFCURVE",
"299 103 OFFCURVE",
"239 103 CURVE SMOOTH",
"195 103 OFFCURVE",
"173 126 OFFCURVE",
"173 156 CURVE SMOOTH",
"173 188 OFFCURVE",
"203 206 OFFCURVE",
"233 206 CURVE SMOOTH",
"288 206 OFFCURVE",
"316 206 OFFCURVE",
"353 206 CURVE",
"357 297 LINE",
"323 305 OFFCURVE",
"283 311 OFFCURVE",
"234 311 CURVE SMOOTH",
"108 311 OFFCURVE",
"35 244 OFFCURVE",
"35 150 CURVE SMOOTH",
"35 58 OFFCURVE",
"107 -12 OFFCURVE",
"228 -12 CURVE SMOOTH"
);
}
);
width = 904;
},
{
background = {
paths = (
{
closed = 1;
nodes = (
"383 164 LINE",
"354 105 OFFCURVE",
"295 62 OFFCURVE",
"214 62 CURVE SMOOTH",
"154 62 OFFCURVE",
"113 90 OFFCURVE",
"113 144 CURVE SMOOTH",
"113 201 OFFCURVE",
"162 233 OFFCURVE",
"232 233 CURVE SMOOTH",
"270 233 OFFCURVE",
"307 233 OFFCURVE",
"345 233 CURVE",
"351 282 LINE",
"324 291 OFFCURVE",
"286 296 OFFCURVE",
"235 296 CURVE SMOOTH",
"147 296 OFFCURVE",
"25 261 OFFCURVE",
"25 134 CURVE SMOOTH",
"25 53 OFFCURVE",
"95 -14 OFFCURVE",
"204 -14 CURVE SMOOTH",
"288 -14 OFFCURVE",
"375 30 OFFCURVE",
"408 97 CURVE"
);
},
{
closed = 1;
nodes = (
"338 250 LINE",
"427 200 LINE",
"427 312 OFFCURVE",
"428 225 OFFCURVE",
"428 337 CURVE SMOOTH",
"428 463 OFFCURVE",
"356 517 OFFCURVE",
"239 517 CURVE SMOOTH",
"175 517 OFFCURVE",
"105 494 OFFCURVE",
"57 463 CURVE",
"87 400 LINE",
"116 419 OFFCURVE",
"169 437 OFFCURVE",
"230 437 CURVE SMOOTH",
"295 437 OFFCURVE",
"340 404 OFFCURVE",
"339 332 CURVE SMOOTH"
);
},
{
closed = 1;
nodes = (
"401 241 LINE",
"791 241 LINE",
"791 265 OFFCURVE",
"790 291 OFFCURVE",
"787 316 CURVE SMOOTH",
"774 418 OFFCURVE",
"727 519 OFFCURVE",
"575 519 CURVE SMOOTH",
"418 519 OFFCURVE",
"337 400 OFFCURVE",
"337 255 CURVE SMOOTH",
"337 77 OFFCURVE",
"437 -14 OFFCURVE",
"574 -14 CURVE SMOOTH",
"646 -14 OFFCURVE",
"713 8 OFFCURVE",
"779 53 CURVE",
"742 115 LINE",
"688 84 OFFCURVE",
"639 70 OFFCURVE",
"587 70 CURVE SMOOTH",
"520 70 OFFCURVE",
"463 103 OFFCURVE",
"439 168 CURVE",
"431 190 OFFCURVE",
"427 214 OFFCURVE",
"427 243 CURVE",
"427 364 OFFCURVE",
"463 443 OFFCURVE",
"569 443 CURVE SMOOTH",
"658 443 OFFCURVE",
"689 387 OFFCURVE",
"694 312 CURVE",
"401 312 LINE"
);
}
);
};
components = (
{
name = e;
transform = "{1, 0, 0, 1, 292, 0}";
}
);
layerId = UUID1;
paths = (
{
closed = 1;
nodes = (
"288 -14 OFFCURVE",
"375 30 OFFCURVE",
"408 97 CURVE",
"383 164 LINE",
"354 105 OFFCURVE",
"295 62 OFFCURVE",
"214 62 CURVE SMOOTH",
"154 62 OFFCURVE",
"113 90 OFFCURVE",
"113 144 CURVE SMOOTH",
"113 201 OFFCURVE",
"162 233 OFFCURVE",
"232 233 CURVE SMOOTH",
"270 233 OFFCURVE",
"307 233 OFFCURVE",
"345 233 CURVE",
"351 282 LINE",
"324 291 OFFCURVE",
"286 296 OFFCURVE",
"235 296 CURVE SMOOTH",
"147 296 OFFCURVE",
"25 261 OFFCURVE",
"25 134 CURVE SMOOTH",
"25 53 OFFCURVE",
"95 -14 OFFCURVE",
"204 -14 CURVE SMOOTH"
);
},
{
closed = 1;
nodes = (
"427 312 OFFCURVE",
"428 225 OFFCURVE",
"428 337 CURVE SMOOTH",
"428 463 OFFCURVE",
"356 517 OFFCURVE",
"239 517 CURVE SMOOTH",
"175 517 OFFCURVE",
"105 494 OFFCURVE",
"57 463 CURVE",
"87 400 LINE",
"116 419 OFFCURVE",
"169 437 OFFCURVE",
"230 437 CURVE SMOOTH",
"295 437 OFFCURVE",
"340 404 OFFCURVE",
"339 332 CURVE SMOOTH",
"338 250 LINE",
"427 200 LINE"
);
}
);
width = 871;
}
);
unicode = 00E6;
},
{
color = 4;
glyphname = b;
lastChange = "2016-08-14 19:53:33 +0000";
layers = (
{
anchors = (
{
name = top;
position = "{329, 506}";
}
);
background = {
paths = (
{
closed = 1;
nodes = (
"14 626 LINE",
"235 626 LINE",
"235 760 LINE",
"14 760 LINE"
);
},
{
closed = 1;
nodes = (
"162 59 LINE",
"211 18 OFFCURVE",
"272 -9 OFFCURVE",
"346 -9 CURVE SMOOTH",
"498 -9 OFFCURVE",
"607 110 OFFCURVE",
"607 256 CURVE SMOOTH",
"607 401 OFFCURVE",
"496 521 OFFCURVE",
"346 521 CURVE SMOOTH",
"280 521 OFFCURVE",
"217 494 OFFCURVE",
"163 446 CURVE",
"221 303 LINE",
"243 356 OFFCURVE",
"284 386 OFFCURVE",
"336 386 CURVE SMOOTH",
"403 386 OFFCURVE",
"458 336 OFFCURVE",
"458 255 CURVE SMOOTH",
"458 176 OFFCURVE",
"402 126 OFFCURVE",
"335 126 CURVE SMOOTH",
"280 126 OFFCURVE",
"235 161 OFFCURVE",
"221 208 CURVE"
);
},
{
closed = 1;
nodes = (
"85 760 LINE",
"85 0 LINE",
"235 0 LINE",
"235 760 LINE"
);
}
);
};
components = (
{
name = serif.top;
transform = "{0.67, 0, 0, 1, -33, 60}";
},
{
name = b.alt1;
transform = "{1, 0, 0, 1, 32, 0}";
}
);
layerId = UUID0;
width = 637;
},
{
anchors = (
{
name = top;
position = "{297, 506}";
}
);
background = {
paths = (
{
closed = 1;
nodes = (
"28 676 LINE",
"188 676 LINE",
"188 760 LINE",
"28 760 LINE"
);
},
{
closed = 1;
nodes = (
"172 51 LINE",
"200 17 OFFCURVE",
"257 -8 OFFCURVE",
"319 -8 CURVE SMOOTH",
"463 -8 OFFCURVE",
"567 100 OFFCURVE",
"567 262 CURVE SMOOTH",
"567 414 OFFCURVE",
"473 518 OFFCURVE",
"341 518 CURVE SMOOTH",
"275 518 OFFCURVE",
"211 486 OFFCURVE",
"164 440 CURVE",
"183 374 LINE",
"215 413 OFFCURVE",
"265 438 OFFCURVE",
"317 438 CURVE SMOOTH",
"403 438 OFFCURVE",
"473 373 OFFCURVE",
"473 259 CURVE SMOOTH",
"473 134 OFFCURVE",
"398 71 OFFCURVE",
"314 71 CURVE SMOOTH",
"245 71 OFFCURVE",
"202 96 OFFCURVE",
"184 121 CURVE"
);
},
{
closed = 1;
nodes = (
"101 760 LINE",
"101 0 LINE",
"192 0 LINE",
"192 760 LINE"
);
}
);
};
components = (
{
name = serif.top;
transform = "{0.67, 0, 0, 1, -28, 60}";
},
{
name = b.alt1;
}
);
layerId = UUID1;
width = 612;
}
);
unicode = 0062;
},
{
color = 4;
glyphname = c;
lastChange = "2016-08-14 20:23:35 +0000";
layers = (
{
anchors = (
{
name = bottom;
position = "{299, 0}";
},
{
name = top;
position = "{300, 506}";
}
);
background = {
paths = (
{
closed = 1;
nodes = (
"425 211 LINE",
"409 171 OFFCURVE",
"369 127 OFFCURVE",
"308 127 CURVE SMOOTH",
"236 127 OFFCURVE",
"181 181 OFFCURVE",
"181 258 CURVE SMOOTH",
"181 334 OFFCURVE",
"233 389 OFFCURVE",
"308 389 CURVE SMOOTH",
"355 389 OFFCURVE",
"388 370 OFFCURVE",
"416 338 CURVE",
"538 410 LINE",
"480 484 OFFCURVE",
"393 528 OFFCURVE",
"301 528 CURVE SMOOTH",
"148 528 OFFCURVE",
"35 411 OFFCURVE",
"35 259 CURVE SMOOTH",
"35 108 OFFCURVE",
"146 -12 OFFCURVE",
"301 -12 CURVE SMOOTH",
"450 -12 OFFCURVE",
"537 92 OFFCURVE",
"559 172 CURVE"
);
},
{
closed = 1;
nodes = (
"416 338 LINE",
"551 338 LINE",
"551 485 LINE",
"414 485 LINE"
);
}
);
};
layerId = UUID0;
paths = (
{
closed = 1;
nodes = (
"450 -12 OFFCURVE",
"537 92 OFFCURVE",
"559 172 CURVE",
"425 211 LINE",
"409 171 OFFCURVE",
"369 127 OFFCURVE",
"308 127 CURVE SMOOTH",
"236 127 OFFCURVE",
"181 181 OFFCURVE",
"181 258 CURVE SMOOTH",
"181 334 OFFCURVE",
"233 389 OFFCURVE",
"308 389 CURVE SMOOTH",
"355 389 OFFCURVE",
"388 370 OFFCURVE",
"416 338 CURVE",
"538 410 LINE",
"480 484 OFFCURVE",
"393 528 OFFCURVE",
"301 528 CURVE SMOOTH",
"148 528 OFFCURVE",
"35 411 OFFCURVE",
"35 259 CURVE SMOOTH",
"35 108 OFFCURVE",
"146 -12 OFFCURVE",
"301 -12 CURVE SMOOTH"
);
},
{
closed = 1;
nodes = (
"551 338 LINE",
"551 485 LINE",
"414 485 LINE",
"416 338 LINE"
);
}
);
width = 576;
},
{
anchors = (
{
name = bottom;
position = "{291, 0}";
},
{
name = top;
position = "{298, 506}";
}
);
background = {
paths = (
{
closed = 1;
nodes = (
"425 158 LINE",
"398 100 OFFCURVE",
"350 69 OFFCURVE",
"288 69 CURVE SMOOTH",
"204 69 OFFCURVE",
"135 141 OFFCURVE",
"135 254 CURVE SMOOTH",
"135 369 OFFCURVE",
"203 442 OFFCURVE",
"288 442 CURVE SMOOTH",
"344 442 OFFCURVE",
"386 419 OFFCURVE",
"414 370 CURVE",
"488 407 LINE",
"448 484 OFFCURVE",
"371 522 OFFCURVE",
"288 522 CURVE SMOOTH",
"153 522 OFFCURVE",
"44 410 OFFCURVE",
"44 254 CURVE SMOOTH",
"44 97 OFFCURVE",
"146 -14 OFFCURVE",
"287 -14 CURVE SMOOTH",
"384 -14 OFFCURVE",
"461 38 OFFCURVE",
"500 121 CURVE"
);
},
{
closed = 1;
nodes = (
"413 371 LINE",
"505 371 LINE",
"505 455 LINE",
"413 455 LINE"
);
}
);
};
layerId = UUID1;
paths = (
{
closed = 1;
nodes = (
"384 -14 OFFCURVE",
"461 38 OFFCURVE",
"500 121 CURVE",
"425 158 LINE",
"398 100 OFFCURVE",
"350 69 OFFCURVE",
"288 69 CURVE SMOOTH",
"204 69 OFFCURVE",
"135 141 OFFCURVE",
"135 254 CURVE SMOOTH",
"135 369 OFFCURVE",
"203 442 OFFCURVE",
"288 442 CURVE SMOOTH",
"344 442 OFFCURVE",
"386 419 OFFCURVE",
"414 370 CURVE",
"488 407 LINE",
"448 484 OFFCURVE",
"371 522 OFFCURVE",
"288 522 CURVE SMOOTH",
"153 522 OFFCURVE",
"44 410 OFFCURVE",
"44 254 CURVE SMOOTH",
"44 97 OFFCURVE",
"146 -14 OFFCURVE",
"287 -14 CURVE SMOOTH"
);
},
{
closed = 1;
nodes = (
"505 371 LINE",
"505 455 LINE",
"413 455 LINE",
"413 371 LINE"
);
}
);
width = 545;
}
);
unicode = 0063;
},
